<svg width="261" height="296" viewBox="0 0 261 296" fill="none" xmlns="http://www.w3.org/2000/svg">
<g clip-path="url(#clip0_78_87)">
<path d="M30.5 177.5C30.5 182.473 32.4754 187.242 35.9917 190.758C39.5081 194.275 44.2772 196.25 49.25 196.25H211.75C216.723 196.25 221.492 194.275 225.008 190.758C228.525 187.242 230.5 182.473 230.5 177.5V90C230.5 85.0272 228.525 80.2581 225.008 76.7417C221.492 73.2254 216.723 71.25 211.75 71.25H49.25C44.2772 71.25 39.5081 73.2254 35.9917 76.7417C32.4754 80.2581 30.5 85.0272 30.5 90L30.5 177.5ZM55.5 52.5C55.5 54.1576 56.1585 55.7473 57.3306 56.9194C58.5027 58.0915 60.0924 58.75 61.75 58.75H199.25C200.908 58.75 202.497 58.0915 203.669 56.9194C204.842 55.7473 205.5 54.1576 205.5 52.5C205.5 50.8424 204.842 49.2527 203.669 48.0806C202.497 46.9085 200.908 46.25 199.25 46.25H61.75C60.0924 46.25 58.5027 46.9085 57.3306 48.0806C56.1585 49.2527 55.5 50.8424 55.5 52.5ZM80.5 27.5C80.5 29.1576 81.1585 30.7473 82.3306 31.9194C83.5027 33.0915 85.0924 33.75 86.75 33.75H174.25C175.908 33.75 177.497 33.0915 178.669 31.9194C179.842 30.7473 180.5 29.1576 180.5 27.5C180.5 25.8424 179.842 24.2527 178.669 23.0806C177.497 21.9085 175.908 21.25 174.25 21.25H86.75C85.0924 21.25 83.5027 21.9085 82.3306 23.0806C81.1585 24.2527 80.5 25.8424 80.5 27.5Z" fill="#4BAA00"/>
</g>
<path d="M96.0284 272V242.909H107.676C109.816 242.909 111.601 243.226 113.031 243.861C114.461 244.495 115.536 245.376 116.256 246.503C116.975 247.62 117.335 248.908 117.335 250.366C117.335 251.503 117.108 252.502 116.653 253.364C116.199 254.216 115.574 254.917 114.778 255.466C113.992 256.006 113.093 256.389 112.08 256.616V256.901C113.188 256.948 114.224 257.26 115.19 257.838C116.166 258.416 116.956 259.225 117.562 260.267C118.169 261.299 118.472 262.53 118.472 263.96C118.472 265.504 118.088 266.882 117.321 268.094C116.563 269.296 115.441 270.248 113.955 270.949C112.468 271.65 110.635 272 108.457 272H96.0284ZM102.179 266.972H107.193C108.907 266.972 110.157 266.645 110.943 265.991C111.729 265.329 112.122 264.448 112.122 263.349C112.122 262.545 111.928 261.834 111.54 261.219C111.152 260.603 110.598 260.12 109.878 259.77C109.168 259.42 108.32 259.244 107.335 259.244H102.179V266.972ZM102.179 255.082H106.739C107.581 255.082 108.33 254.936 108.983 254.642C109.646 254.339 110.167 253.913 110.545 253.364C110.934 252.814 111.128 252.156 111.128 251.389C111.128 250.338 110.754 249.491 110.006 248.847C109.267 248.203 108.216 247.881 106.852 247.881H102.179V255.082ZM132.218 272.426C129.983 272.426 128.061 271.953 126.451 271.006C124.851 270.049 123.62 268.723 122.758 267.028C121.906 265.333 121.479 263.383 121.479 261.176C121.479 258.941 121.91 256.981 122.772 255.295C123.643 253.6 124.879 252.279 126.479 251.332C128.08 250.376 129.983 249.898 132.19 249.898C134.093 249.898 135.76 250.243 137.19 250.935C138.62 251.626 139.751 252.597 140.585 253.847C141.418 255.097 141.877 256.564 141.962 258.25H136.252C136.091 257.161 135.665 256.285 134.974 255.622C134.292 254.95 133.397 254.614 132.289 254.614C131.352 254.614 130.532 254.869 129.832 255.381C129.14 255.883 128.601 256.616 128.212 257.582C127.824 258.548 127.63 259.718 127.63 261.091C127.63 262.483 127.819 263.667 128.198 264.642C128.586 265.617 129.131 266.361 129.832 266.872C130.532 267.384 131.352 267.639 132.289 267.639C132.98 267.639 133.601 267.497 134.15 267.213C134.709 266.929 135.168 266.517 135.528 265.977C135.897 265.428 136.138 264.77 136.252 264.003H141.962C141.868 265.67 141.413 267.137 140.599 268.406C139.794 269.666 138.681 270.651 137.261 271.361C135.84 272.071 134.159 272.426 132.218 272.426ZM155.78 272.426C153.536 272.426 151.604 271.972 149.984 271.062C148.375 270.144 147.134 268.847 146.263 267.17C145.392 265.485 144.956 263.491 144.956 261.19C144.956 258.946 145.392 256.976 146.263 255.281C147.134 253.586 148.36 252.265 149.942 251.318C151.533 250.371 153.398 249.898 155.538 249.898C156.978 249.898 158.318 250.13 159.558 250.594C160.808 251.048 161.897 251.735 162.825 252.653C163.763 253.572 164.492 254.727 165.013 256.119C165.534 257.502 165.794 259.121 165.794 260.977V262.639H147.371V258.889H160.098C160.098 258.018 159.909 257.246 159.53 256.574C159.151 255.902 158.625 255.376 157.953 254.997C157.29 254.609 156.518 254.415 155.638 254.415C154.719 254.415 153.905 254.628 153.195 255.054C152.494 255.471 151.945 256.034 151.547 256.744C151.149 257.445 150.946 258.226 150.936 259.088V262.653C150.936 263.733 151.135 264.666 151.533 265.452C151.94 266.238 152.513 266.844 153.251 267.27C153.99 267.696 154.866 267.909 155.879 267.909C156.552 267.909 157.167 267.814 157.726 267.625C158.285 267.436 158.763 267.152 159.161 266.773C159.558 266.394 159.861 265.93 160.07 265.381L165.666 265.75C165.382 267.095 164.8 268.269 163.919 269.273C163.048 270.267 161.921 271.044 160.538 271.602C159.165 272.152 157.579 272.426 155.78 272.426Z" fill="black"/>
<defs>
<clipPath id="clip0_78_87">
<rect width="200" height="200" fill="white" transform="translate(30.5 15)"/>
</clipPath>
</defs>
</svg>
