<svg width="261" height="296" fill="none" xmlns="http://www.w3.org/2000/svg"><rect x=".5" width="260" height="296" rx="60" fill="#000"/><g clip-path="url(#prefix__clip0_78_87)"><path d="M30.5 177.5a18.749 18.749 0 0018.75 18.75h162.5c4.973 0 9.742-1.975 13.258-5.492A18.746 18.746 0 00230.5 177.5V90a18.748 18.748 0 00-18.75-18.75H49.25A18.75 18.75 0 0030.5 90v87.5zm25-125a6.25 6.25 0 006.25 6.25h137.5a6.248 6.248 0 006.25-6.25 6.247 6.247 0 00-6.25-6.25H61.75a6.25 6.25 0 00-6.25 6.25zm25-25a6.25 6.25 0 006.25 6.25h87.5a6.248 6.248 0 006.25-6.25 6.247 6.247 0 00-6.25-6.25h-87.5a6.25 6.25 0 00-6.25 6.25z" fill="#fff"/></g><path d="M96.028 272v-29.091h11.648c2.14 0 3.925.317 5.355.952 1.43.634 2.505 1.515 3.225 2.642.719 1.117 1.079 2.405 1.079 3.863 0 1.137-.227 2.136-.682 2.998a5.874 5.874 0 01-1.875 2.102c-.786.54-1.685.923-2.698 1.15v.285a6.504 6.504 0 013.11.937c.976.578 1.766 1.387 2.372 2.429.607 1.032.91 2.263.91 3.693 0 1.544-.384 2.922-1.151 4.134-.758 1.202-1.88 2.154-3.366 2.855-1.487.701-3.32 1.051-5.498 1.051H96.028zm6.151-5.028h5.014c1.714 0 2.964-.327 3.75-.981.786-.662 1.179-1.543 1.179-2.642 0-.804-.194-1.515-.582-2.13-.388-.616-.942-1.099-1.662-1.449-.71-.35-1.558-.526-2.543-.526h-5.156v7.728zm0-11.89h4.56c.842 0 1.591-.146 2.244-.44.663-.303 1.184-.729 1.562-1.278.389-.55.583-1.208.583-1.975 0-1.051-.374-1.898-1.122-2.542-.739-.644-1.79-.966-3.154-.966h-4.673v7.201zm30.039 17.344c-2.235 0-4.157-.473-5.767-1.42-1.6-.957-2.831-2.283-3.693-3.978-.852-1.695-1.279-3.645-1.279-5.852 0-2.235.431-4.195 1.293-5.881.871-1.695 2.107-3.016 3.707-3.963 1.601-.956 3.504-1.434 5.711-1.434 1.903 0 3.57.345 5 1.037 1.43.691 2.561 1.662 3.395 2.912.833 1.25 1.292 2.717 1.377 4.403h-5.71c-.161-1.089-.587-1.965-1.278-2.628-.682-.672-1.577-1.008-2.685-1.008-.937 0-1.757.255-2.457.767-.692.502-1.231 1.235-1.62 2.201-.388.966-.582 2.136-.582 3.509 0 1.392.189 2.576.568 3.551.388.975.933 1.719 1.634 2.23.7.512 1.52.767 2.457.767.691 0 1.312-.142 1.861-.426a3.592 3.592 0 001.378-1.236c.369-.549.61-1.207.724-1.974h5.71c-.094 1.667-.549 3.134-1.363 4.403-.805 1.26-1.918 2.245-3.338 2.955-1.421.71-3.102 1.065-5.043 1.065zm23.562 0c-2.244 0-4.176-.454-5.796-1.364-1.609-.918-2.85-2.215-3.721-3.892-.871-1.685-1.307-3.679-1.307-5.98 0-2.244.436-4.214 1.307-5.909.871-1.695 2.097-3.016 3.679-3.963 1.591-.947 3.456-1.42 5.596-1.42 1.44 0 2.78.232 4.02.696a8.916 8.916 0 013.267 2.059c.938.919 1.667 2.074 2.188 3.466.521 1.383.781 3.002.781 4.858v1.662h-18.423v-3.75h12.727c0-.871-.189-1.643-.568-2.315a4.079 4.079 0 00-1.577-1.577c-.663-.388-1.435-.582-2.315-.582-.919 0-1.733.213-2.443.639-.701.417-1.25.98-1.648 1.69-.398.701-.601 1.482-.611 2.344v3.565c0 1.08.199 2.013.597 2.799.407.786.98 1.392 1.718 1.818.739.426 1.615.639 2.628.639.673 0 1.288-.095 1.847-.284a3.825 3.825 0 001.435-.852c.397-.379.7-.843.909-1.392l5.596.369a7.638 7.638 0 01-1.747 3.523c-.871.994-1.998 1.771-3.381 2.329-1.373.55-2.959.824-4.758.824z" fill="#fff"/><defs><clipPath id="prefix__clip0_78_87"><path fill="#fff" transform="translate(30.5 15)" d="M0 0h200v200H0z"/></clipPath></defs></svg>