<svg width="50" height="50" viewBox="0 0 50 50" fill="none" xmlns="http://www.w3.org/2000/svg">
<path d="M25 4.6875C13.8 4.6875 4.6875 13.8 4.6875 25C4.6875 36.2 13.8 45.3125 25 45.3125C36.2 45.3125 45.3125 36.2 45.3125 25C45.3125 13.8 36.2 4.6875 25 4.6875ZM25 7.8125C34.5109 7.8125 42.1875 15.4891 42.1875 25C42.1875 34.5109 34.5109 42.1875 25 42.1875C15.4891 42.1875 7.8125 34.5109 7.8125 25C7.8125 15.4891 15.4891 7.8125 25 7.8125ZM25 13.8672L23.875 14.9922L14.9906 23.8766L17.1875 26.125L23.4375 19.875V35.9375H26.5625V19.875L32.8125 26.125L35.0094 23.875L26.1234 14.9906L24.9984 13.8656L25 13.8672Z" fill="#1E1E1E"/>
</svg>
