<svg width="260" height="345" viewBox="0 0 260 345" fill="none" xmlns="http://www.w3.org/2000/svg">
<rect width="200" height="200" transform="translate(30 15.6924)" fill="white"/>
<path d="M82.2917 182.517C89.9623 182.517 96.1806 176.299 96.1806 168.628C96.1806 160.958 89.9623 154.74 82.2917 154.74C74.6211 154.74 68.4028 160.958 68.4028 168.628C68.4028 176.299 74.6211 182.517 82.2917 182.517Z" fill="#4BAA00"/>
<path d="M183.728 182.517C191.398 182.517 197.617 176.299 197.617 168.628C197.617 160.958 191.398 154.74 183.728 154.74C176.057 154.74 169.839 160.958 169.839 168.628C169.839 176.299 176.057 182.517 183.728 182.517Z" fill="#4BAA00"/>
<path d="M107.05 160.295H169.839V161.915C169.839 166.517 166.442 170.248 162.256 170.248H114.631C110.442 170.248 107.047 166.517 107.047 161.915L107.05 160.295Z" fill="black"/>
<path d="M108.328 63.959L105.389 63.3146C104.67 63.157 104.042 62.7203 103.645 62.1005C103.248 61.4807 103.112 60.7284 103.269 60.009L104.506 54.3535C104.663 53.6342 105.1 53.007 105.72 52.6096C106.339 52.2121 107.092 52.0771 107.811 52.234L110.753 52.8785C111.472 53.036 112.099 53.4727 112.497 54.0926C112.894 54.7124 113.029 55.4647 112.872 56.184L111.636 61.8368C111.479 62.5566 111.043 63.1845 110.423 63.5825C109.803 63.9805 109.048 64.1159 108.328 63.959Z" fill="#4BAA00"/>
<path d="M144.022 59.7589L143.328 63.4367C143.196 64.1247 142.797 64.7324 142.218 65.127C141.639 65.5215 140.927 65.6708 140.239 65.5423L128.761 63.3673C128.073 63.2353 127.465 62.8362 127.071 62.2574C126.676 61.6785 126.527 60.967 126.656 60.2784L127.35 56.6034C127.482 55.9154 127.881 55.3077 128.46 54.9131C129.039 54.5186 129.75 54.3693 130.439 54.4978L141.917 56.6701C142.605 56.8021 143.212 57.2011 143.607 57.78C144.001 58.3588 144.151 59.0703 144.022 59.7589ZM89.8555 48.7839L89.1583 52.4645C89.0263 53.1512 88.6279 53.7577 88.0502 54.1517C87.4726 54.5456 86.7625 54.6951 86.075 54.5673L74.6305 52.4006C73.9434 52.2692 73.3362 51.8711 72.9416 51.2934C72.5471 50.7156 72.3973 50.0051 72.525 49.3173L73.2222 45.6339C73.3542 44.9467 73.753 44.3397 74.3313 43.9456C74.9096 43.5516 75.6204 43.4026 76.3083 43.5312L87.7528 45.6978C88.4394 45.8299 89.046 46.2282 89.4399 46.8059C89.8339 47.3836 89.9833 48.0937 89.8555 48.7812" fill="black"/>
<path d="M113.097 55.309L126.608 57.959M90.8417 50.9424L104.536 53.6285" stroke="#4BAA00" stroke-width="2" stroke-miterlimit="10" stroke-linecap="round" stroke-linejoin="round"/>
<path d="M82.2917 182.517C89.9623 182.517 96.1806 176.299 96.1806 168.628C96.1806 160.958 89.9623 154.74 82.2917 154.74C74.621 154.74 68.4028 160.958 68.4028 168.628C68.4028 176.299 74.621 182.517 82.2917 182.517Z" stroke="#4BAA00" stroke-width="2" stroke-miterlimit="10"/>
<path d="M183.728 182.517C191.398 182.517 197.617 176.299 197.617 168.628C197.617 160.958 191.398 154.74 183.728 154.74C176.057 154.74 169.839 160.958 169.839 168.628C169.839 176.299 176.057 182.517 183.728 182.517Z" stroke="#4BAA00" stroke-width="2" stroke-miterlimit="10"/>
<path d="M106.469 63.7979L86.7111 149.465L82.2917 168.628" stroke="#4BAA00" stroke-width="2" stroke-miterlimit="10" stroke-linecap="round" stroke-linejoin="round"/>
<path d="M107.05 160.295H169.839V161.915C169.839 166.517 166.442 170.248 162.256 170.248H114.631C110.442 170.248 107.047 166.517 107.047 161.915L107.05 160.295Z" stroke="#4BAA00" stroke-width="1.908" stroke-miterlimit="10" stroke-linecap="round" stroke-linejoin="round"/>
<path d="M112.917 55.2757C112.952 55.5789 112.937 55.8858 112.872 56.1841L111.636 61.8368C111.479 62.5561 111.042 63.1833 110.422 63.5807C109.802 63.9782 109.05 64.1132 108.331 63.9563L105.386 63.3146C104.667 63.1564 104.041 62.7195 103.644 62.0997C103.247 61.4799 103.112 60.728 103.269 60.0091L104.506 54.3535C104.561 54.1109 104.644 53.8831 104.753 53.6702" stroke="#4BAA00" stroke-width="2" stroke-miterlimit="10" stroke-linecap="round" stroke-linejoin="round"/>
<path d="M104.75 53.67C105.031 53.1266 105.484 52.6912 106.038 52.4315C106.592 52.1719 107.216 52.1024 107.814 52.2338L110.753 52.8783C111.318 53.0018 111.831 53.299 112.22 53.7283C112.608 54.1576 112.853 54.6976 112.919 55.2727M92.9278 126.573L107.05 160.295" stroke="#4BAA00" stroke-width="2" stroke-miterlimit="10" stroke-linecap="round" stroke-linejoin="round"/>
<path d="M89.8556 48.7839L89.1583 52.4645C89.0263 53.1512 88.628 53.7577 88.0503 54.1517C87.4726 54.5456 86.7625 54.6951 86.075 54.5673L74.6306 52.4006C73.9434 52.2692 73.3362 51.8711 72.9416 51.2934C72.5471 50.7156 72.3973 50.0051 72.525 49.3173L73.2222 45.6339C73.3543 44.9467 73.753 44.3397 74.3313 43.9456C74.9096 43.5516 75.6205 43.4026 76.3083 43.5312L87.7528 45.6978C88.4395 45.8299 89.046 46.2282 89.44 46.8059C89.8339 47.3836 89.9833 48.0937 89.8556 48.7812M144.022 59.7589L143.328 63.4367C143.196 64.1247 142.797 64.7324 142.218 65.127C141.639 65.5215 140.928 65.6708 140.239 65.5423L128.761 63.3673C128.073 63.2353 127.465 62.8362 127.071 62.2574C126.676 61.6785 126.527 60.967 126.656 60.2784L127.35 56.6034C127.482 55.9154 127.881 55.3077 128.46 54.9131C129.039 54.5186 129.75 54.3693 130.439 54.4978L141.917 56.6701C142.605 56.8021 143.212 57.2011 143.607 57.78C144.001 58.3588 144.151 59.0703 144.022 59.7589Z" stroke="#4BAA00" stroke-width="1.908" stroke-miterlimit="10" stroke-linecap="round" stroke-linejoin="round"/>
<path d="M104 59.3437L110.326 52.6924L108.653 58.0216H112L105.49 63.6924L107.18 59.3437" fill="black"/>
<path d="M67.413 256.002V260.931H54.8704V256.002H67.413ZM46.2056 263.161H52.3278C52.4319 264.828 52.9528 266.083 53.8903 266.925C54.8278 267.768 56.2151 268.19 58.0522 268.19C59.5484 268.19 60.7369 267.839 61.6175 267.138C62.4982 266.438 63.1327 265.429 63.521 264.113C63.9092 262.787 64.1033 261.201 64.1033 259.354V256.996C64.1033 255.093 63.8808 253.488 63.4357 252.181C63.0001 250.865 62.3325 249.87 61.4329 249.198C60.5427 248.526 59.4016 248.19 58.0096 248.19C56.6365 248.19 55.5475 248.398 54.7425 248.815C53.9376 249.231 53.3505 249.828 52.9812 250.604C52.6119 251.371 52.3846 252.299 52.2994 253.388H46.1772C46.3666 251.476 46.9158 249.752 47.8249 248.218C48.7435 246.674 50.0456 245.453 51.7312 244.553C53.4263 243.654 55.5191 243.204 58.0096 243.204C60.4812 243.204 62.6261 243.767 64.4442 244.894C66.2624 246.021 67.6687 247.617 68.663 249.681C69.6573 251.745 70.1545 254.189 70.1545 257.011V259.369C70.1545 262.19 69.6668 264.629 68.6914 266.684C67.7255 268.729 66.3382 270.311 64.5295 271.428C62.7208 272.536 60.5617 273.09 58.0522 273.09C55.6564 273.09 53.6014 272.673 51.8874 271.84C50.1734 270.997 48.8335 269.833 47.8675 268.346C46.9016 266.85 46.3477 265.121 46.2056 263.161ZM73.3043 272.692L73.2759 267.891H74.0004C74.5117 267.891 74.9521 267.768 75.3214 267.522C75.7002 267.266 76.0127 266.854 76.2589 266.286C76.5051 265.718 76.6992 264.965 76.8413 264.028C76.9833 263.081 77.078 261.916 77.1254 260.533L77.4805 250.874H94.0714V272.692H88.3043V255.633H82.9208L82.5799 262.295C82.4947 264.122 82.2721 265.694 81.9123 267.011C81.5619 268.327 81.0742 269.406 80.4492 270.249C79.8242 271.083 79.0714 271.698 78.1907 272.096C77.31 272.494 76.2873 272.692 75.1225 272.692H73.3043ZM108.706 273.119C106.461 273.119 104.529 272.664 102.91 271.755C101.3 270.836 100.06 269.539 99.1886 267.863C98.3174 266.177 97.8817 264.184 97.8817 261.883C97.8817 259.638 98.3174 257.669 99.1886 255.974C100.06 254.279 101.286 252.958 102.868 252.011C104.458 251.064 106.324 250.59 108.464 250.59C109.904 250.59 111.243 250.822 112.484 251.286C113.734 251.741 114.823 252.427 115.751 253.346C116.689 254.264 117.418 255.42 117.939 256.812C118.459 258.194 118.72 259.814 118.72 261.67V263.332H100.297V259.582H113.024C113.024 258.71 112.834 257.939 112.456 257.266C112.077 256.594 111.551 256.068 110.879 255.69C110.216 255.301 109.444 255.107 108.564 255.107C107.645 255.107 106.831 255.32 106.12 255.746C105.42 256.163 104.87 256.726 104.473 257.437C104.075 258.137 103.871 258.919 103.862 259.78V263.346C103.862 264.425 104.061 265.358 104.458 266.144C104.866 266.93 105.439 267.536 106.177 267.962C106.916 268.388 107.792 268.601 108.805 268.601C109.477 268.601 110.093 268.507 110.652 268.317C111.21 268.128 111.689 267.844 112.086 267.465C112.484 267.086 112.787 266.622 112.995 266.073L118.592 266.442C118.308 267.787 117.725 268.961 116.845 269.965C115.974 270.959 114.847 271.736 113.464 272.295C112.091 272.844 110.505 273.119 108.706 273.119ZM122.669 272.692V250.874H128.72V259.34H130.424L136.362 250.874H143.464L135.751 261.698L143.549 272.692H136.362L130.978 264.951H128.72V272.692H122.669ZM144.97 255.633V250.874H164.743V255.633H157.711V272.692H151.944V255.633H144.97ZM168.411 280.874V250.874H174.377V254.539H174.647C174.912 253.952 175.295 253.355 175.797 252.749C176.309 252.134 176.971 251.622 177.786 251.215C178.61 250.798 179.632 250.59 180.854 250.59C182.445 250.59 183.913 251.007 185.257 251.84C186.602 252.664 187.677 253.909 188.482 255.576C189.287 257.233 189.689 259.312 189.689 261.812C189.689 264.245 189.296 266.3 188.51 267.976C187.734 269.643 186.673 270.907 185.328 271.769C183.993 272.621 182.497 273.047 180.84 273.047C179.666 273.047 178.667 272.853 177.843 272.465C177.028 272.077 176.361 271.589 175.84 271.002C175.319 270.405 174.921 269.804 174.647 269.198H174.462V280.874H168.411ZM174.334 261.783C174.334 263.081 174.514 264.212 174.874 265.178C175.234 266.144 175.755 266.897 176.436 267.437C177.118 267.967 177.947 268.232 178.922 268.232C179.907 268.232 180.74 267.962 181.422 267.422C182.104 266.873 182.62 266.116 182.971 265.15C183.33 264.174 183.51 263.052 183.51 261.783C183.51 260.524 183.335 259.416 182.985 258.459C182.634 257.503 182.118 256.755 181.436 256.215C180.755 255.675 179.917 255.405 178.922 255.405C177.937 255.405 177.104 255.666 176.422 256.187C175.75 256.708 175.234 257.446 174.874 258.403C174.514 259.359 174.334 260.486 174.334 261.783ZM203.581 273.119C201.375 273.119 199.467 272.65 197.857 271.712C196.257 270.765 195.021 269.449 194.15 267.763C193.278 266.068 192.843 264.103 192.843 261.869C192.843 259.615 193.278 257.645 194.15 255.959C195.021 254.264 196.257 252.948 197.857 252.011C199.467 251.064 201.375 250.59 203.581 250.59C205.788 250.59 207.691 251.064 209.292 252.011C210.901 252.948 212.142 254.264 213.013 255.959C213.884 257.645 214.32 259.615 214.32 261.869C214.32 264.103 213.884 266.068 213.013 267.763C212.142 269.449 210.901 270.765 209.292 271.712C207.691 272.65 205.788 273.119 203.581 273.119ZM203.61 268.431C204.614 268.431 205.452 268.147 206.124 267.579C206.796 267.001 207.303 266.215 207.644 265.221C207.994 264.226 208.169 263.095 208.169 261.826C208.169 260.557 207.994 259.425 207.644 258.431C207.303 257.437 206.796 256.651 206.124 256.073C205.452 255.495 204.614 255.207 203.61 255.207C202.596 255.207 201.744 255.495 201.053 256.073C200.371 256.651 199.855 257.437 199.505 258.431C199.164 259.425 198.993 260.557 198.993 261.826C198.993 263.095 199.164 264.226 199.505 265.221C199.855 266.215 200.371 267.001 201.053 267.579C201.744 268.147 202.596 268.431 203.61 268.431ZM57.3704 321.119C55.1355 321.119 53.2132 320.645 51.6033 319.698C50.003 318.742 48.7719 317.416 47.9102 315.721C47.0579 314.026 46.6317 312.075 46.6317 309.869C46.6317 307.634 47.0626 305.673 47.9244 303.988C48.7956 302.293 50.0314 300.972 51.6317 300.025C53.2321 299.068 55.1355 298.59 57.342 298.59C59.2454 298.59 60.9121 298.936 62.342 299.627C63.7719 300.318 64.9035 301.289 65.7369 302.539C66.5702 303.789 67.0295 305.257 67.1147 306.942H61.4045C61.2435 305.853 60.8174 304.977 60.1261 304.315C59.4442 303.642 58.5494 303.306 57.4414 303.306C56.5039 303.306 55.6848 303.562 54.984 304.073C54.2927 304.575 53.753 305.309 53.3647 306.275C52.9764 307.241 52.7823 308.41 52.7823 309.783C52.7823 311.175 52.9717 312.359 53.3505 313.334C53.7388 314.31 54.2833 315.053 54.984 315.565C55.6848 316.076 56.5039 316.332 57.4414 316.332C58.1327 316.332 58.753 316.19 59.3022 315.905C59.8609 315.621 60.3202 315.209 60.68 314.67C61.0494 314.12 61.2908 313.462 61.4045 312.695H67.1147C67.02 314.362 66.5655 315.83 65.7511 317.099C64.9461 318.358 63.8335 319.343 62.413 320.053C60.9925 320.763 59.3117 321.119 57.3704 321.119ZM77.2106 321.104C75.8185 321.104 74.578 320.863 73.489 320.38C72.4 319.887 71.5382 319.163 70.9038 318.207C70.2788 317.241 69.9663 316.038 69.9663 314.599C69.9663 313.387 70.1888 312.369 70.6339 311.545C71.079 310.721 71.685 310.058 72.4521 309.556C73.2191 309.054 74.0903 308.675 75.0657 308.42C76.0505 308.164 77.0827 307.984 78.1623 307.88C79.4312 307.747 80.454 307.624 81.2305 307.511C82.007 307.387 82.5704 307.208 82.9208 306.971C83.2712 306.734 83.4464 306.384 83.4464 305.92V305.834C83.4464 304.935 83.1623 304.239 82.5941 303.746C82.0354 303.254 81.2399 303.008 80.2077 303.008C79.1187 303.008 78.2522 303.249 77.6083 303.732C76.9644 304.206 76.5382 304.802 76.3299 305.522L70.7333 305.067C71.0174 303.742 71.5761 302.596 72.4094 301.63C73.2428 300.655 74.3176 299.906 75.6339 299.386C76.9596 298.855 78.4937 298.59 80.2362 298.59C81.4483 298.59 82.6083 298.732 83.7163 299.016C84.8337 299.3 85.8233 299.741 86.685 300.337C87.5562 300.934 88.2428 301.701 88.7447 302.638C89.2466 303.566 89.4975 304.679 89.4975 305.976V320.692H83.7589V317.667H83.5884C83.238 318.349 82.7693 318.95 82.1822 319.471C81.5951 319.982 80.8896 320.385 80.0657 320.678C79.2418 320.962 78.2901 321.104 77.2106 321.104ZM78.9435 316.928C79.8337 316.928 80.6197 316.753 81.3015 316.403C81.9833 316.043 82.5183 315.56 82.9066 314.954C83.2949 314.348 83.489 313.661 83.489 312.894V310.579C83.2996 310.702 83.0392 310.815 82.7077 310.92C82.3858 311.014 82.0212 311.104 81.614 311.19C81.2068 311.265 80.7996 311.336 80.3924 311.403C79.9852 311.459 79.6159 311.512 79.2844 311.559C78.5742 311.663 77.954 311.829 77.4237 312.056C76.8933 312.283 76.4814 312.591 76.1879 312.979C75.8943 313.358 75.7475 313.832 75.7475 314.4C75.7475 315.224 76.0458 315.853 76.6424 316.289C77.2485 316.715 78.0155 316.928 78.9435 316.928ZM107.09 314.002L112.999 298.874H117.601L109.093 320.692H105.073L96.7631 298.874H101.351L107.09 314.002ZM99.9734 298.874V320.692H94.1921V298.874H99.9734ZM114.505 320.692V298.874H120.215V320.692H114.505ZM134.753 321.119C132.547 321.119 130.639 320.65 129.029 319.712C127.428 318.765 126.193 317.449 125.321 315.763C124.45 314.068 124.015 312.103 124.015 309.869C124.015 307.615 124.45 305.645 125.321 303.959C126.193 302.264 127.428 300.948 129.029 300.011C130.639 299.064 132.547 298.59 134.753 298.59C136.96 298.59 138.863 299.064 140.463 300.011C142.073 300.948 143.314 302.264 144.185 303.959C145.056 305.645 145.492 307.615 145.492 309.869C145.492 312.103 145.056 314.068 144.185 315.763C143.314 317.449 142.073 318.765 140.463 319.712C138.863 320.65 136.96 321.119 134.753 321.119ZM134.782 316.431C135.785 316.431 136.623 316.147 137.296 315.579C137.968 315.001 138.475 314.215 138.816 313.221C139.166 312.226 139.341 311.095 139.341 309.826C139.341 308.557 139.166 307.425 138.816 306.431C138.475 305.437 137.968 304.651 137.296 304.073C136.623 303.495 135.785 303.207 134.782 303.207C133.768 303.207 132.916 303.495 132.225 304.073C131.543 304.651 131.027 305.437 130.676 306.431C130.336 307.425 130.165 308.557 130.165 309.826C130.165 311.095 130.336 312.226 130.676 313.221C131.027 314.215 131.543 315.001 132.225 315.579C132.916 316.147 133.768 316.431 134.782 316.431ZM149.426 320.692V298.874H155.478V307.34H157.182L163.12 298.874H170.222L162.509 309.698L170.307 320.692H163.12L157.736 312.951H155.478V320.692H149.426ZM179.086 321.104C177.694 321.104 176.453 320.863 175.364 320.38C174.275 319.887 173.413 319.163 172.779 318.207C172.154 317.241 171.841 316.038 171.841 314.599C171.841 313.387 172.064 312.369 172.509 311.545C172.954 310.721 173.56 310.058 174.327 309.556C175.094 309.054 175.965 308.675 176.941 308.42C177.926 308.164 178.958 307.984 180.037 307.88C181.306 307.747 182.329 307.624 183.105 307.511C183.882 307.387 184.445 307.208 184.796 306.971C185.146 306.734 185.321 306.384 185.321 305.92V305.834C185.321 304.935 185.037 304.239 184.469 303.746C183.91 303.254 183.115 303.008 182.083 303.008C180.994 303.008 180.127 303.249 179.483 303.732C178.839 304.206 178.413 304.802 178.205 305.522L172.608 305.067C172.892 303.742 173.451 302.596 174.284 301.63C175.118 300.655 176.193 299.906 177.509 299.386C178.835 298.855 180.369 298.59 182.111 298.59C183.323 298.59 184.483 298.732 185.591 299.016C186.709 299.3 187.698 299.741 188.56 300.337C189.431 300.934 190.118 301.701 190.62 302.638C191.122 303.566 191.373 304.679 191.373 305.976V320.692H185.634V317.667H185.463C185.113 318.349 184.644 318.95 184.057 319.471C183.47 319.982 182.765 320.385 181.941 320.678C181.117 320.962 180.165 321.104 179.086 321.104ZM180.819 316.928C181.709 316.928 182.495 316.753 183.176 316.403C183.858 316.043 184.393 315.56 184.782 314.954C185.17 314.348 185.364 313.661 185.364 312.894V310.579C185.175 310.702 184.914 310.815 184.583 310.92C184.261 311.014 183.896 311.104 183.489 311.19C183.082 311.265 182.675 311.336 182.267 311.403C181.86 311.459 181.491 311.512 181.159 311.559C180.449 311.663 179.829 311.829 179.299 312.056C178.768 312.283 178.356 312.591 178.063 312.979C177.769 313.358 177.623 313.832 177.623 314.4C177.623 315.224 177.921 315.853 178.517 316.289C179.123 316.715 179.891 316.928 180.819 316.928ZM193.876 303.633V298.874H213.649V303.633H206.618V320.692H200.85V303.633H193.876Z" fill="black"/>
</svg>
