<svg width="260" height="345" fill="none" xmlns="http://www.w3.org/2000/svg"><path fill="#fff" d="M30 15.692h200v200H30z"/><path d="M82.292 182.517c7.67 0 13.889-6.218 13.889-13.889 0-7.67-6.219-13.888-13.89-13.888-7.67 0-13.888 6.218-13.888 13.888 0 7.671 6.218 13.889 13.889 13.889zM183.728 182.517c7.67 0 13.889-6.218 13.889-13.889 0-7.67-6.219-13.888-13.889-13.888-7.671 0-13.889 6.218-13.889 13.888 0 7.671 6.218 13.889 13.889 13.889z" fill="#4BAA00"/><path d="M107.05 160.295h62.789v1.62c0 4.602-3.397 8.333-7.583 8.333h-47.625c-4.189 0-7.584-3.731-7.584-8.333l.003-1.62z" fill="#000"/><path d="M108.328 63.959l-2.939-.644a2.778 2.778 0 01-2.12-3.306l1.237-5.656a2.775 2.775 0 013.305-2.119l2.942.645a2.78 2.78 0 012.119 3.305l-1.236 5.653a2.777 2.777 0 01-3.308 2.122z" fill="#4BAA00"/><path d="M144.022 59.759l-.694 3.678a2.65 2.65 0 01-3.089 2.105l-11.478-2.175a2.648 2.648 0 01-2.105-3.089l.694-3.675a2.65 2.65 0 013.089-2.105l11.478 2.172a2.65 2.65 0 012.105 3.089zM89.856 48.784l-.698 3.68a2.647 2.647 0 01-3.083 2.103L74.63 52.401a2.648 2.648 0 01-2.105-3.084l.697-3.683a2.648 2.648 0 013.086-2.103l11.445 2.167a2.647 2.647 0 012.103 3.083" fill="#000"/><path d="M113.097 55.309l13.511 2.65m-35.766-7.017l13.694 2.687" stroke="#4BAA00" stroke-width="2" stroke-miterlimit="10" stroke-linecap="round" stroke-linejoin="round"/><path d="M82.292 182.517c7.67 0 13.889-6.218 13.889-13.889 0-7.67-6.219-13.888-13.89-13.888-7.67 0-13.888 6.218-13.888 13.888 0 7.671 6.218 13.889 13.889 13.889zM183.728 182.517c7.67 0 13.889-6.218 13.889-13.889 0-7.67-6.219-13.888-13.889-13.888-7.671 0-13.889 6.218-13.889 13.888 0 7.671 6.218 13.889 13.889 13.889z" stroke="#4BAA00" stroke-width="2" stroke-miterlimit="10"/><path d="M106.469 63.798l-19.758 85.667-4.42 19.163" stroke="#4BAA00" stroke-width="2" stroke-miterlimit="10" stroke-linecap="round" stroke-linejoin="round"/><path d="M107.05 160.295h62.789v1.62c0 4.602-3.397 8.333-7.583 8.333h-47.625c-4.189 0-7.584-3.731-7.584-8.333l.003-1.62z" stroke="#4BAA00" stroke-width="1.908" stroke-miterlimit="10" stroke-linecap="round" stroke-linejoin="round"/><path d="M112.917 55.276c.035.303.02.61-.045.908l-1.236 5.653a2.775 2.775 0 01-3.305 2.12l-2.945-.642a2.777 2.777 0 01-2.117-3.306l1.237-5.656c.055-.242.138-.47.247-.683" stroke="#4BAA00" stroke-width="2" stroke-miterlimit="10" stroke-linecap="round" stroke-linejoin="round"/><path d="M104.75 53.67a2.777 2.777 0 013.064-1.436l2.939.644a2.782 2.782 0 012.166 2.395m-19.991 71.3l14.122 33.722" stroke="#4BAA00" stroke-width="2" stroke-miterlimit="10" stroke-linecap="round" stroke-linejoin="round"/><path d="M89.856 48.784l-.698 3.68a2.647 2.647 0 01-3.083 2.103l-11.444-2.166a2.648 2.648 0 01-2.106-3.084l.697-3.683a2.648 2.648 0 013.086-2.103l11.445 2.167a2.647 2.647 0 012.103 3.083m54.166 10.978l-.694 3.678a2.65 2.65 0 01-3.089 2.105l-11.478-2.175a2.648 2.648 0 01-2.105-3.089l.694-3.675a2.65 2.65 0 013.089-2.105l11.478 2.172a2.65 2.65 0 012.105 3.089z" stroke="#4BAA00" stroke-width="1.908" stroke-miterlimit="10" stroke-linecap="round" stroke-linejoin="round"/><path d="M104 59.344l6.326-6.652-1.673 5.33H112l-6.51 5.67 1.69-4.348M67.413 256.002v4.929H54.87v-4.929h12.543zm-21.207 7.159h6.122c.104 1.667.625 2.922 1.562 3.764.938.843 2.325 1.265 4.162 1.265 1.496 0 2.685-.351 3.566-1.052.88-.7 1.515-1.709 1.903-3.025.388-1.326.582-2.912.582-4.759v-2.358c0-1.903-.222-3.508-.667-4.815-.436-1.316-1.103-2.311-2.003-2.983-.89-.672-2.031-1.008-3.423-1.008-1.373 0-2.462.208-3.267.625-.805.416-1.393 1.013-1.762 1.789-.37.767-.596 1.695-.682 2.784h-6.122c.19-1.912.739-3.636 1.648-5.17.918-1.544 2.22-2.765 3.906-3.665 1.695-.899 3.788-1.349 6.279-1.349 2.471 0 4.616.563 6.434 1.69 1.818 1.127 3.225 2.723 4.219 4.787.994 2.064 1.492 4.508 1.492 7.33v2.358c0 2.821-.488 5.26-1.464 7.315-.966 2.045-2.353 3.627-4.162 4.744-1.808 1.108-3.967 1.662-6.477 1.662-2.396 0-4.45-.417-6.165-1.25-1.714-.843-3.053-2.007-4.02-3.494-.965-1.496-1.52-3.225-1.661-5.185zm27.098 9.531l-.028-4.801H74c.512 0 .952-.123 1.321-.369.38-.256.692-.668.938-1.236s.44-1.321.582-2.258c.142-.947.237-2.112.284-3.495l.356-9.659h16.59v21.818h-5.767v-17.059h-5.383l-.341 6.662c-.085 1.827-.308 3.399-.668 4.716-.35 1.316-.838 2.395-1.463 3.238-.625.834-1.378 1.449-2.258 1.847-.881.398-1.904.596-3.069.596h-1.818zm35.402.427c-2.245 0-4.177-.455-5.796-1.364-1.61-.919-2.85-2.216-3.721-3.892-.872-1.686-1.307-3.679-1.307-5.98 0-2.245.435-4.214 1.307-5.909.871-1.695 2.097-3.016 3.679-3.963 1.59-.947 3.456-1.421 5.596-1.421 1.44 0 2.779.232 4.02.696a8.918 8.918 0 013.267 2.06c.938.918 1.667 2.074 2.188 3.466.52 1.382.781 3.002.781 4.858v1.662h-18.423v-3.75h12.727c0-.872-.19-1.643-.568-2.316a4.07 4.07 0 00-1.577-1.576c-.663-.389-1.435-.583-2.315-.583-.919 0-1.733.213-2.444.639-.7.417-1.25.98-1.647 1.691-.398.7-.602 1.482-.611 2.343v3.566c0 1.079.199 2.012.596 2.798a4.375 4.375 0 001.719 1.818c.739.426 1.615.639 2.628.639.672 0 1.288-.094 1.847-.284a3.821 3.821 0 001.434-.852c.398-.379.701-.843.909-1.392l5.597.369a7.648 7.648 0 01-1.747 3.523c-.871.994-1.998 1.771-3.381 2.33-1.373.549-2.959.824-4.758.824zm13.963-.427v-21.818h6.051v8.466h1.704l5.938-8.466h7.102l-7.713 10.824 7.798 10.994h-7.187l-5.384-7.741h-2.258v7.741h-6.051zm22.301-17.059v-4.759h19.773v4.759h-7.032v17.059h-5.767v-17.059h-6.974zm23.441 25.241v-30h5.966v3.665h.27c.265-.587.648-1.184 1.15-1.79.512-.615 1.174-1.127 1.989-1.534.824-.417 1.846-.625 3.068-.625a8.2 8.2 0 014.403 1.25c1.345.824 2.42 2.069 3.225 3.736.805 1.657 1.207 3.736 1.207 6.236 0 2.433-.393 4.488-1.179 6.164-.776 1.667-1.837 2.931-3.182 3.793-1.335.852-2.831 1.278-4.488 1.278-1.174 0-2.173-.194-2.997-.582-.815-.388-1.482-.876-2.003-1.463-.521-.597-.919-1.198-1.193-1.804h-.185v11.676h-6.051zm5.923-19.091c0 1.298.18 2.429.54 3.395.36.966.881 1.719 1.562 2.259.682.53 1.511.795 2.486.795.985 0 1.818-.27 2.5-.81.682-.549 1.198-1.306 1.549-2.272.359-.976.539-2.098.539-3.367 0-1.259-.175-2.367-.525-3.324-.351-.956-.867-1.704-1.549-2.244-.681-.54-1.519-.81-2.514-.81-.985 0-1.818.261-2.5.782-.672.521-1.188 1.259-1.548 2.216-.36.956-.54 2.083-.54 3.38zm29.247 11.336c-2.206 0-4.114-.469-5.724-1.407-1.6-.947-2.836-2.263-3.707-3.949-.872-1.695-1.307-3.66-1.307-5.894 0-2.254.435-4.224 1.307-5.91.871-1.695 2.107-3.011 3.707-3.948 1.61-.947 3.518-1.421 5.724-1.421 2.207 0 4.11.474 5.711 1.421 1.609.937 2.85 2.253 3.721 3.948.871 1.686 1.307 3.656 1.307 5.91 0 2.234-.436 4.199-1.307 5.894-.871 1.686-2.112 3.002-3.721 3.949-1.601.938-3.504 1.407-5.711 1.407zm.029-4.688c1.004 0 1.842-.284 2.514-.852.672-.578 1.179-1.364 1.52-2.358.35-.995.525-2.126.525-3.395 0-1.269-.175-2.401-.525-3.395-.341-.994-.848-1.78-1.52-2.358-.672-.578-1.51-.866-2.514-.866-1.014 0-1.866.288-2.557.866-.682.578-1.198 1.364-1.548 2.358-.341.994-.512 2.126-.512 3.395 0 1.269.171 2.4.512 3.395.35.994.866 1.78 1.548 2.358.691.568 1.543.852 2.557.852zM57.37 321.119c-2.234 0-4.157-.474-5.767-1.421-1.6-.956-2.831-2.282-3.693-3.977-.852-1.695-1.278-3.646-1.278-5.852 0-2.235.43-4.196 1.292-5.881.872-1.695 2.107-3.016 3.708-3.963 1.6-.957 3.504-1.435 5.71-1.435 1.903 0 3.57.346 5 1.037 1.43.691 2.561 1.662 3.395 2.912.833 1.25 1.293 2.718 1.378 4.403h-5.71c-.162-1.089-.588-1.965-1.279-2.627-.682-.673-1.577-1.009-2.685-1.009-.937 0-1.756.256-2.457.767-.691.502-1.231 1.236-1.62 2.202-.388.966-.582 2.135-.582 3.508 0 1.392.19 2.576.569 3.551.388.976.932 1.719 1.633 2.231.7.511 1.52.767 2.457.767.692 0 1.312-.142 1.861-.427a3.597 3.597 0 001.378-1.235c.37-.55.61-1.208.724-1.975h5.71c-.094 1.667-.549 3.135-1.363 4.404-.805 1.259-1.918 2.244-3.338 2.954-1.42.71-3.101 1.066-5.043 1.066zm19.84-.015c-1.391 0-2.632-.241-3.721-.724-1.089-.493-1.95-1.217-2.585-2.173-.625-.966-.938-2.169-.938-3.608 0-1.212.223-2.23.668-3.054a5.406 5.406 0 011.818-1.989 8.797 8.797 0 012.614-1.136 19.863 19.863 0 013.096-.54 80.599 80.599 0 003.069-.369c.776-.124 1.34-.303 1.69-.54.35-.237.525-.587.525-1.051v-.086c0-.899-.284-1.595-.852-2.088-.559-.492-1.354-.738-2.386-.738-1.09 0-1.956.241-2.6.724-.644.474-1.07 1.07-1.278 1.79l-5.597-.455c.284-1.325.843-2.471 1.676-3.437.834-.975 1.909-1.724 3.225-2.244 1.326-.531 2.86-.796 4.602-.796 1.212 0 2.372.142 3.48.426 1.118.284 2.107.725 2.969 1.321a6.428 6.428 0 012.06 2.301c.502.928.752 2.041.752 3.338v14.716H83.76v-3.025h-.17a6.158 6.158 0 01-1.407 1.804c-.587.511-1.292.914-2.116 1.207-.824.284-1.776.426-2.855.426zm1.734-4.176c.89 0 1.676-.175 2.358-.525a4.18 4.18 0 001.605-1.449c.388-.606.582-1.293.582-2.06v-2.315c-.19.123-.45.236-.781.341-.322.094-.687.184-1.094.27-.407.075-.814.146-1.222.213-.407.056-.776.109-1.108.156-.71.104-1.33.27-1.86.497-.53.227-.943.535-1.236.923-.294.379-.44.853-.44 1.421 0 .824.298 1.453.894 1.889.607.426 1.374.639 2.302.639zm28.146-2.926l5.909-15.128h4.602l-8.508 21.818h-4.02l-8.31-21.818h4.588l5.739 15.128zm-7.117-15.128v21.818h-5.78v-21.818h5.78zm14.532 21.818v-21.818h5.71v21.818h-5.71zm20.248.427c-2.206 0-4.114-.469-5.724-1.407-1.601-.947-2.836-2.263-3.708-3.949-.871-1.695-1.306-3.66-1.306-5.894 0-2.254.435-4.224 1.306-5.91.872-1.695 2.107-3.011 3.708-3.948 1.61-.947 3.518-1.421 5.724-1.421 2.207 0 4.11.474 5.71 1.421 1.61.937 2.851 2.253 3.722 3.948.871 1.686 1.307 3.656 1.307 5.91 0 2.234-.436 4.199-1.307 5.894-.871 1.686-2.112 3.002-3.722 3.949-1.6.938-3.503 1.407-5.71 1.407zm.029-4.688c1.003 0 1.841-.284 2.514-.852.672-.578 1.179-1.364 1.52-2.358.35-.995.525-2.126.525-3.395 0-1.269-.175-2.401-.525-3.395-.341-.994-.848-1.78-1.52-2.358-.673-.578-1.511-.866-2.514-.866-1.014 0-1.866.288-2.557.866-.682.578-1.198 1.364-1.549 2.358-.34.994-.511 2.126-.511 3.395 0 1.269.171 2.4.511 3.395.351.994.867 1.78 1.549 2.358.691.568 1.543.852 2.557.852zm14.644 4.261v-21.818h6.052v8.466h1.704l5.938-8.466h7.102l-7.713 10.824 7.798 10.994h-7.187l-5.384-7.741h-2.258v7.741h-6.052zm29.66.412c-1.392 0-2.633-.241-3.722-.724-1.089-.493-1.951-1.217-2.585-2.173-.625-.966-.938-2.169-.938-3.608 0-1.212.223-2.23.668-3.054a5.406 5.406 0 011.818-1.989 8.793 8.793 0 012.614-1.136 19.872 19.872 0 013.096-.54 80.43 80.43 0 003.068-.369c.777-.124 1.34-.303 1.691-.54.35-.237.525-.587.525-1.051v-.086c0-.899-.284-1.595-.852-2.088-.559-.492-1.354-.738-2.386-.738-1.089 0-1.956.241-2.6.724-.644.474-1.07 1.07-1.278 1.79l-5.597-.455c.284-1.325.843-2.471 1.676-3.437.834-.975 1.909-1.724 3.225-2.244 1.326-.531 2.86-.796 4.602-.796 1.212 0 2.372.142 3.48.426 1.118.284 2.107.725 2.969 1.321a6.431 6.431 0 012.06 2.301c.502.928.753 2.041.753 3.338v14.716h-5.739v-3.025h-.171a6.152 6.152 0 01-1.406 1.804c-.587.511-1.292.914-2.116 1.207-.824.284-1.776.426-2.855.426zm1.733-4.176c.89 0 1.676-.175 2.357-.525a4.186 4.186 0 001.606-1.449c.388-.606.582-1.293.582-2.06v-2.315c-.189.123-.45.236-.781.341-.322.094-.687.184-1.094.27-.407.075-.814.146-1.222.213-.407.056-.776.109-1.108.156-.71.104-1.33.27-1.86.497-.531.227-.943.535-1.236.923-.294.379-.44.853-.44 1.421 0 .824.298 1.453.894 1.889.606.426 1.374.639 2.302.639zm13.057-13.295v-4.759h19.773v4.759h-7.031v17.059h-5.768v-17.059h-6.974z" fill="#000"/></svg>