<svg width="297" height="197" fill="none" xmlns="http://www.w3.org/2000/svg"><path d="M0 .62h297v196H0z"/><path d="M72.21 15.62c-13.095 0-23.71 22.385-23.71 50 0 27.614 10.615 49.999 23.71 49.999 7.216 0 13.581-6.94 17.93-17.666h116.695c4.349 10.732 10.737 17.666 17.955 17.666 13.095 0 23.71-22.385 23.71-50 0-27.614-10.615-50-23.71-50-13.094 0-23.709 22.386-23.709 50H95.919c0-27.614-10.615-50-23.71-50z" fill="#4BAA00"/><path d="M138.5 84.76l15.816-18.14-4.185 14.534h8.369l-16.276 15.465 4.226-11.86M51.832 143.528v5.071H38.68v24.02h-6.15v-29.091h19.303zm7.34 21.108l7.856-13.835h5.966v21.818h-5.767v-13.877L59.4 172.619H53.39v-21.818h5.782v13.835zm18.672 16.165v-30h5.966v3.665h.27c.265-.587.649-1.184 1.15-1.79.512-.615 1.175-1.127 1.99-1.534.823-.417 1.846-.625 3.068-.625 1.59 0 3.058.417 4.403 1.25 1.345.824 2.42 2.069 3.224 3.736.805 1.657 1.208 3.736 1.208 6.236 0 2.433-.393 4.488-1.18 6.164-.776 1.667-1.836 2.931-3.18 3.793-1.336.852-2.832 1.278-4.49 1.278-1.174 0-2.173-.194-2.997-.582-.814-.388-1.482-.876-2.003-1.463-.52-.597-.918-1.198-1.193-1.804h-.184v11.676h-6.052zm5.924-19.091c0 1.298.18 2.429.54 3.395.36.966.88 1.719 1.562 2.259.682.53 1.51.795 2.486.795.985 0 1.818-.27 2.5-.81.682-.549 1.198-1.306 1.548-2.272.36-.976.54-2.098.54-3.367 0-1.259-.175-2.367-.526-3.324-.35-.956-.866-1.704-1.548-2.244-.682-.54-1.52-.81-2.514-.81-.985 0-1.818.261-2.5.782-.672.521-1.189 1.259-1.548 2.216-.36.956-.54 2.083-.54 3.38zm29.247 11.336c-2.207 0-4.115-.469-5.725-1.407-1.6-.947-2.836-2.263-3.707-3.949-.871-1.695-1.307-3.66-1.307-5.894 0-2.254.436-4.224 1.307-5.91.871-1.695 2.107-3.011 3.707-3.948 1.61-.947 3.518-1.421 5.725-1.421 2.206 0 4.11.474 5.71 1.421 1.61.937 2.851 2.253 3.722 3.948.871 1.686 1.307 3.656 1.307 5.91 0 2.234-.436 4.199-1.307 5.894-.871 1.686-2.112 3.002-3.722 3.949-1.6.938-3.504 1.407-5.71 1.407zm.028-4.688c1.004 0 1.842-.284 2.515-.852.672-.578 1.179-1.364 1.519-2.358.351-.995.526-2.126.526-3.395 0-1.269-.175-2.401-.526-3.395-.34-.994-.847-1.78-1.519-2.358-.673-.578-1.511-.866-2.515-.866-1.013 0-1.865.288-2.556.866-.682.578-1.198 1.364-1.549 2.358-.341.994-.511 2.126-.511 3.395 0 1.269.17 2.4.511 3.395.351.994.867 1.78 1.549 2.358.691.568 1.543.852 2.556.852zm24.503 4.688c-2.235 0-4.157-.474-5.767-1.421-1.6-.956-2.831-2.282-3.693-3.977-.852-1.695-1.278-3.646-1.278-5.852 0-2.235.43-4.196 1.292-5.881.871-1.695 2.107-3.016 3.708-3.963 1.6-.957 3.503-1.435 5.71-1.435 1.903 0 3.57.346 5 1.037 1.43.691 2.561 1.662 3.395 2.912.833 1.25 1.292 2.718 1.377 4.403h-5.71c-.161-1.089-.587-1.965-1.278-2.627-.682-.673-1.577-1.009-2.685-1.009-.937 0-1.756.256-2.457.767-.691.502-1.231 1.236-1.62 2.202-.388.966-.582 2.135-.582 3.508 0 1.392.189 2.576.568 3.551.389.976.933 1.719 1.634 2.231.701.511 1.52.767 2.457.767.691 0 1.312-.142 1.861-.427a3.597 3.597 0 001.378-1.235c.369-.55.611-1.208.724-1.975h5.71c-.094 1.667-.549 3.135-1.363 4.404-.805 1.259-1.918 2.244-3.338 2.954-1.421.71-3.102 1.066-5.043 1.066zm13.619-.427v-21.818h6.051v8.466h1.704l5.938-8.466h7.102l-7.713 10.824 7.798 10.994h-7.187l-5.384-7.741h-2.258v7.741h-6.051zm27.525 8.182c-.767 0-1.487-.061-2.159-.184-.663-.114-1.213-.261-1.648-.441l1.363-4.517c.711.218 1.35.336 1.918.355.578.019 1.075-.113 1.492-.397.426-.285.771-.768 1.036-1.449l.356-.924-7.827-22.443h6.364l4.517 16.023h.227l4.559-16.023h6.407l-8.48 24.176c-.408 1.175-.962 2.197-1.662 3.069a6.833 6.833 0 01-2.628 2.031c-1.061.483-2.339.724-3.835.724zm18.565-25.241v-4.759h19.773v4.759h-7.032v17.059h-5.767V155.56h-6.974zm32.603 17.486c-2.244 0-4.176-.455-5.796-1.364-1.609-.919-2.85-2.216-3.721-3.892-.871-1.686-1.307-3.679-1.307-5.98 0-2.245.436-4.214 1.307-5.909.871-1.695 2.097-3.016 3.679-3.963 1.591-.947 3.456-1.421 5.596-1.421 1.44 0 2.78.232 4.02.696a8.918 8.918 0 013.267 2.06c.938.918 1.667 2.074 2.188 3.466.521 1.382.781 3.002.781 4.858v1.662h-18.423v-3.75h12.727c0-.872-.189-1.643-.568-2.316a4.063 4.063 0 00-1.577-1.576c-.663-.389-1.434-.583-2.315-.583-.919 0-1.733.213-2.443.639-.701.417-1.25.98-1.648 1.691-.398.7-.601 1.482-.611 2.343v3.566c0 1.079.199 2.012.597 2.798.407.786.98 1.392 1.719 1.818.738.426 1.614.639 2.627.639.673 0 1.288-.094 1.847-.284a3.825 3.825 0 001.435-.852c.397-.379.7-.843.909-1.392l5.596.369a7.638 7.638 0 01-1.747 3.523c-.871.994-1.998 1.771-3.381 2.33-1.373.549-2.959.824-4.758.824zm13.963 7.755v-30h5.966v3.665h.27c.265-.587.648-1.184 1.15-1.79.512-.615 1.175-1.127 1.989-1.534.824-.417 1.847-.625 3.068-.625 1.591 0 3.059.417 4.404 1.25 1.344.824 2.419 2.069 3.224 3.736.805 1.657 1.207 3.736 1.207 6.236 0 2.433-.393 4.488-1.179 6.164-.776 1.667-1.837 2.931-3.181 3.793-1.336.852-2.832 1.278-4.489 1.278-1.174 0-2.173-.194-2.997-.582-.815-.388-1.482-.876-2.003-1.463-.521-.597-.919-1.198-1.193-1.804h-.185v11.676h-6.051zm5.923-19.091c0 1.298.18 2.429.54 3.395.36.966.881 1.719 1.563 2.259.681.53 1.51.795 2.485.795.985 0 1.819-.27 2.5-.81.682-.549 1.198-1.306 1.549-2.272.36-.976.539-2.098.539-3.367 0-1.259-.175-2.367-.525-3.324-.35-.956-.867-1.704-1.548-2.244-.682-.54-1.52-.81-2.515-.81-.984 0-1.818.261-2.5.782-.672.521-1.188 1.259-1.548 2.216-.36.956-.54 2.083-.54 3.38z" fill="#000"/></svg>