<svg width="297" height="197" viewBox="0 0 297 197" fill="none" xmlns="http://www.w3.org/2000/svg">
<rect width="297" height="196" transform="translate(0 0.619385)"/>
<path d="M72.2096 15.6194C59.1148 15.6194 48.5 38.0047 48.5 65.6194C48.5 93.2341 59.1148 115.619 72.2096 115.619C79.426 115.619 85.7913 108.679 90.1396 97.9527H206.835C211.184 108.685 217.572 115.619 224.79 115.619C237.885 115.619 248.5 93.2341 248.5 65.6194C248.5 38.0047 237.885 15.6194 224.79 15.6194C211.696 15.6194 201.081 38.0047 201.081 65.6194H95.9192C95.9192 38.0047 85.3036 15.6194 72.2096 15.6194Z" fill="#4BAA00"/>
<path d="M138.5 84.7594L154.316 66.6194L150.131 81.1537H158.5L142.224 96.6194L146.45 84.7594" fill="black"/>
<path d="M51.8324 143.528V148.599H38.679V172.619H32.5284V143.528H51.8324ZM59.1726 164.636L67.0277 150.801H72.9936V172.619H67.2266V158.742L59.3999 172.619H53.3913V150.801H59.1726V164.636ZM77.8445 180.801V150.801H83.8104V154.466H84.0803C84.3454 153.879 84.7289 153.282 85.2308 152.676C85.7422 152.061 86.4051 151.549 87.2195 151.142C88.0433 150.725 89.0661 150.517 90.2876 150.517C91.8786 150.517 93.3464 150.934 94.6911 151.767C96.0357 152.591 97.1106 153.836 97.9155 155.503C98.7204 157.16 99.1229 159.239 99.1229 161.739C99.1229 164.172 98.7299 166.227 97.9439 167.903C97.1674 169.57 96.1068 170.834 94.7621 171.696C93.4268 172.548 91.9306 172.974 90.2734 172.974C89.0992 172.974 88.1001 172.78 87.2763 172.392C86.4619 172.004 85.7943 171.516 85.2734 170.929C84.7526 170.332 84.3549 169.731 84.0803 169.125H83.8956V180.801H77.8445ZM83.7678 161.71C83.7678 163.008 83.9477 164.139 84.3075 165.105C84.6674 166.071 85.1882 166.824 85.87 167.364C86.5518 167.894 87.3804 168.159 88.3558 168.159C89.3407 168.159 90.174 167.889 90.8558 167.349C91.5376 166.8 92.0537 166.043 92.4041 165.077C92.764 164.101 92.9439 162.979 92.9439 161.71C92.9439 160.451 92.7687 159.343 92.4183 158.386C92.0679 157.43 91.5518 156.682 90.87 156.142C90.1882 155.602 89.3501 155.332 88.3558 155.332C87.371 155.332 86.5376 155.593 85.8558 156.114C85.1835 156.635 84.6674 157.373 84.3075 158.33C83.9477 159.286 83.7678 160.413 83.7678 161.71ZM113.015 173.046C110.808 173.046 108.9 172.577 107.29 171.639C105.69 170.692 104.454 169.376 103.583 167.69C102.712 165.995 102.276 164.03 102.276 161.796C102.276 159.542 102.712 157.572 103.583 155.886C104.454 154.191 105.69 152.875 107.29 151.938C108.9 150.991 110.808 150.517 113.015 150.517C115.221 150.517 117.125 150.991 118.725 151.938C120.335 152.875 121.576 154.191 122.447 155.886C123.318 157.572 123.754 159.542 123.754 161.796C123.754 164.03 123.318 165.995 122.447 167.69C121.576 169.376 120.335 170.692 118.725 171.639C117.125 172.577 115.221 173.046 113.015 173.046ZM113.043 168.358C114.047 168.358 114.885 168.074 115.558 167.506C116.23 166.928 116.737 166.142 117.077 165.148C117.428 164.153 117.603 163.022 117.603 161.753C117.603 160.484 117.428 159.352 117.077 158.358C116.737 157.364 116.23 156.578 115.558 156C114.885 155.422 114.047 155.134 113.043 155.134C112.03 155.134 111.178 155.422 110.487 156C109.805 156.578 109.289 157.364 108.938 158.358C108.597 159.352 108.427 160.484 108.427 161.753C108.427 163.022 108.597 164.153 108.938 165.148C109.289 166.142 109.805 166.928 110.487 167.506C111.178 168.074 112.03 168.358 113.043 168.358ZM137.546 173.046C135.311 173.046 133.389 172.572 131.779 171.625C130.179 170.669 128.948 169.343 128.086 167.648C127.234 165.953 126.808 164.002 126.808 161.796C126.808 159.561 127.238 157.6 128.1 155.915C128.971 154.22 130.207 152.899 131.808 151.952C133.408 150.995 135.311 150.517 137.518 150.517C139.421 150.517 141.088 150.863 142.518 151.554C143.948 152.245 145.079 153.216 145.913 154.466C146.746 155.716 147.205 157.184 147.29 158.869H141.58C141.419 157.78 140.993 156.904 140.302 156.242C139.62 155.569 138.725 155.233 137.617 155.233C136.68 155.233 135.861 155.489 135.16 156C134.469 156.502 133.929 157.236 133.54 158.202C133.152 159.168 132.958 160.337 132.958 161.71C132.958 163.102 133.147 164.286 133.526 165.261C133.915 166.237 134.459 166.98 135.16 167.492C135.861 168.003 136.68 168.259 137.617 168.259C138.308 168.259 138.929 168.117 139.478 167.832C140.037 167.548 140.496 167.136 140.856 166.597C141.225 166.047 141.467 165.389 141.58 164.622H147.29C147.196 166.289 146.741 167.757 145.927 169.026C145.122 170.285 144.009 171.27 142.589 171.98C141.168 172.69 139.487 173.046 137.546 173.046ZM151.165 172.619V150.801H157.216V159.267H158.92L164.858 150.801H171.96L164.247 161.625L172.045 172.619H164.858L159.474 164.878H157.216V172.619H151.165ZM178.69 180.801C177.923 180.801 177.203 180.74 176.531 180.617C175.868 180.503 175.318 180.356 174.883 180.176L176.246 175.659C176.957 175.877 177.596 175.995 178.164 176.014C178.742 176.033 179.239 175.901 179.656 175.617C180.082 175.332 180.427 174.849 180.692 174.168L181.048 173.244L173.221 150.801H179.585L184.102 166.824H184.329L188.888 150.801H195.295L186.815 174.977C186.407 176.152 185.853 177.174 185.153 178.046C184.461 178.926 183.585 179.603 182.525 180.077C181.464 180.56 180.186 180.801 178.69 180.801ZM197.255 155.56V150.801H217.028V155.56H209.996V172.619H204.229V155.56H197.255ZM229.858 173.046C227.614 173.046 225.682 172.591 224.062 171.682C222.453 170.763 221.212 169.466 220.341 167.79C219.47 166.104 219.034 164.111 219.034 161.81C219.034 159.565 219.47 157.596 220.341 155.901C221.212 154.206 222.438 152.885 224.02 151.938C225.611 150.991 227.476 150.517 229.616 150.517C231.056 150.517 232.396 150.749 233.636 151.213C234.886 151.668 235.975 152.354 236.903 153.273C237.841 154.191 238.57 155.347 239.091 156.739C239.612 158.121 239.872 159.741 239.872 161.597V163.259H221.449V159.509H234.176C234.176 158.637 233.987 157.866 233.608 157.193C233.229 156.521 232.704 155.995 232.031 155.617C231.368 155.228 230.597 155.034 229.716 155.034C228.797 155.034 227.983 155.247 227.273 155.673C226.572 156.09 226.023 156.653 225.625 157.364C225.227 158.064 225.024 158.846 225.014 159.707V163.273C225.014 164.352 225.213 165.285 225.611 166.071C226.018 166.857 226.591 167.463 227.33 167.889C228.068 168.315 228.944 168.528 229.957 168.528C230.63 168.528 231.245 168.434 231.804 168.244C232.363 168.055 232.841 167.771 233.239 167.392C233.636 167.013 233.939 166.549 234.148 166L239.744 166.369C239.46 167.714 238.878 168.888 237.997 169.892C237.126 170.886 235.999 171.663 234.616 172.222C233.243 172.771 231.657 173.046 229.858 173.046ZM243.821 180.801V150.801H249.787V154.466H250.057C250.322 153.879 250.705 153.282 251.207 152.676C251.719 152.061 252.382 151.549 253.196 151.142C254.02 150.725 255.043 150.517 256.264 150.517C257.855 150.517 259.323 150.934 260.668 151.767C262.012 152.591 263.087 153.836 263.892 155.503C264.697 157.16 265.099 159.239 265.099 161.739C265.099 164.172 264.706 166.227 263.92 167.903C263.144 169.57 262.083 170.834 260.739 171.696C259.403 172.548 257.907 172.974 256.25 172.974C255.076 172.974 254.077 172.78 253.253 172.392C252.438 172.004 251.771 171.516 251.25 170.929C250.729 170.332 250.331 169.731 250.057 169.125H249.872V180.801H243.821ZM249.744 161.71C249.744 163.008 249.924 164.139 250.284 165.105C250.644 166.071 251.165 166.824 251.847 167.364C252.528 167.894 253.357 168.159 254.332 168.159C255.317 168.159 256.151 167.889 256.832 167.349C257.514 166.8 258.03 166.043 258.381 165.077C258.741 164.101 258.92 162.979 258.92 161.71C258.92 160.451 258.745 159.343 258.395 158.386C258.045 157.43 257.528 156.682 256.847 156.142C256.165 155.602 255.327 155.332 254.332 155.332C253.348 155.332 252.514 155.593 251.832 156.114C251.16 156.635 250.644 157.373 250.284 158.33C249.924 159.286 249.744 160.413 249.744 161.71Z" fill="black"/>
</svg>
