<svg width="71" height="70" viewBox="0 0 71 70" fill="none" xmlns="http://www.w3.org/2000/svg">
<g clip-path="url(#clip0_3_31)">
<path fill-rule="evenodd" clip-rule="evenodd" d="M20.4996 7.13125C24.1833 9.8175 26.9717 13.5917 29.3458 17.0596L31.2067 19.7954C31.7845 20.64 32.0489 21.66 31.9541 22.6789C31.8593 23.6978 31.4113 24.6516 30.6875 25.375L26.7325 29.33L27.1496 30.2167C28.1704 32.2846 29.9321 35.2625 32.5833 37.9167C34.4141 39.7198 36.4779 41.2697 38.72 42.525L39.7904 43.0996L40.7442 43.5721L41.17 43.7675L45.1221 39.8125C45.8484 39.0872 46.8063 38.6399 47.8287 38.5487C48.8511 38.4576 49.8731 38.7284 50.7162 39.3138L53.6737 41.3642C57.0337 43.7267 60.5425 46.4188 63.2696 49.9129C63.741 50.5193 64.0409 51.2412 64.1378 52.0031C64.2348 52.7651 64.1253 53.5391 63.8208 54.2442C61.3796 59.9405 55.2021 64.7909 48.7767 64.5517L47.9017 64.505L47.2221 64.4467L46.4696 64.3592L45.65 64.2484L44.7604 64.0996L43.8096 63.913L42.8004 63.6884L41.7329 63.4142L40.61 63.0934L39.4375 62.7142C34.0533 60.8884 27.2196 57.3009 20.2079 50.2892C13.1992 43.2804 9.61167 36.4467 7.78584 31.0625L7.40667 29.89L7.08584 28.7671L6.81167 27.6996L6.58417 26.6904C6.51846 26.3744 6.45721 26.0574 6.40042 25.7396L6.25459 24.85L6.13792 24.0304L6.05334 23.2779L5.99501 22.5983L5.94834 21.7233C5.71209 15.3183 10.615 9.09708 16.285 6.6675C16.9674 6.37282 17.7148 6.26062 18.4536 6.34192C19.1925 6.42323 19.8976 6.69523 20.4996 7.13125ZM17.7958 12.4046C14.6692 14.0379 11.6417 17.7713 11.7788 21.5075L11.8371 22.4642L11.9013 23.0621L11.9858 23.7329L12.1025 24.4708L12.2513 25.2788L12.4408 26.1479L12.6742 27.0813L12.9542 28.07L13.2867 29.1142C13.4092 29.47 13.5375 29.8346 13.6775 30.2079L14.1267 31.3513L14.64 32.5383C16.4717 36.5692 19.4583 41.2884 24.3379 46.165C29.2146 51.0417 33.9338 54.0313 37.9646 55.8629L39.1517 56.3763L40.295 56.8255C40.6683 56.9655 41.0329 57.0938 41.3887 57.2163L42.4329 57.5488L43.4246 57.8288L44.355 58.0621L45.2242 58.2517L46.0321 58.4005L46.7729 58.5171L47.4437 58.6046L48.0387 58.663L48.9954 58.7213C52.6821 58.8584 56.4446 55.8484 58.0721 52.7625C55.9954 50.3271 53.4171 48.3292 50.5733 46.3167L48.3917 44.7971L47.8375 45.3775L46.6533 46.6696L46.0262 47.3288C44.3171 49.07 42.3221 50.5488 39.9304 49.5834L39.2712 49.3063L38.4663 48.9446L38.0171 48.7317L37.0312 48.2388L35.9492 47.6554C33.2108 46.1315 30.6921 44.2427 28.4621 42.0409C26.2602 39.8108 24.3715 37.2921 22.8475 34.5538L22.2642 33.4746L21.7683 32.4858L21.1967 31.2317L20.9167 30.5667C20.0096 28.3238 21.2579 26.4308 22.8533 24.7917L23.5067 24.15L25.1313 22.6538L25.7146 22.0996L24.335 20.0783C22.2846 17.1033 20.2808 14.42 17.7929 12.4017L17.7958 12.4046ZM50.0833 8.75C50.7977 8.75009 51.4872 9.01237 52.0211 9.48708C52.5549 9.9618 52.896 10.6159 52.9796 11.3254L53 11.6667V17.5H58.8333C59.5767 17.5008 60.2918 17.7855 60.8323 18.2958C61.3729 18.8061 61.6982 19.5036 61.7417 20.2457C61.7853 20.9879 61.5439 21.7186 61.0667 22.2887C60.5896 22.8588 59.9128 23.2251 59.1746 23.3129L58.8333 23.3333H53V29.1667C52.9992 29.9101 52.7145 30.6251 52.2042 31.1657C51.6939 31.7062 50.9964 32.0315 50.2543 32.0751C49.5121 32.1187 48.7814 31.8772 48.2113 31.4001C47.6412 30.9229 47.2749 30.2461 47.1871 29.5079L47.1667 29.1667V23.3333H41.3333C40.5899 23.3325 39.8749 23.0479 39.3343 22.5375C38.7938 22.0272 38.4685 21.3297 38.4249 20.5876C38.3813 19.8455 38.6228 19.1147 39.0999 18.5447C39.5771 17.9746 40.2539 17.6082 40.9921 17.5204L41.3333 17.5H47.1667V11.6667C47.1667 10.8931 47.474 10.1513 48.0209 9.60427C48.5679 9.05729 49.3098 8.75 50.0833 8.75Z" fill="white"/>
</g>
<defs>
<clipPath id="clip0_3_31">
<rect width="70" height="70" fill="white" transform="translate(0.5)"/>
</clipPath>
</defs>
</svg>
