<svg width="71" height="70" fill="none" xmlns="http://www.w3.org/2000/svg"><g clip-path="url(#prefix__clip0_3_31)"><path fill-rule="evenodd" clip-rule="evenodd" d="M20.5 7.131c3.683 2.687 6.472 6.46 8.846 9.929l1.86 2.735a4.387 4.387 0 01-.518 5.58l-3.955 3.955.417.887c1.02 2.068 2.782 5.046 5.433 7.7a28.787 28.787 0 006.137 4.608l1.07.575.954.472.426.195 3.952-3.955a4.381 4.381 0 015.594-.498l2.958 2.05c3.36 2.363 6.868 5.055 9.596 8.549a4.287 4.287 0 01.55 4.331c-2.44 5.697-8.618 10.547-15.043 10.308l-.875-.047-.68-.058-.752-.088-.82-.11-.89-.15-.95-.186-1.01-.225-1.067-.274-1.123-.32-1.172-.38c-5.385-1.826-12.218-5.413-19.23-12.425C13.199 43.28 9.612 36.447 7.786 31.062l-.38-1.172-.32-1.123-.274-1.067-.228-1.01a34.355 34.355 0 01-.184-.95l-.145-.89-.117-.82-.085-.752-.058-.68-.047-.875c-.236-6.405 4.667-12.626 10.337-15.055a4.287 4.287 0 014.215.463zm-2.704 5.274c-3.127 1.633-6.154 5.366-6.017 9.103l.058.956.064.598.085.67.116.739.15.808.189.869.233.933.28.989.333 1.044c.122.356.25.72.39 1.094l.45 1.143.513 1.187c1.832 4.031 4.818 8.75 9.698 13.627 4.877 4.877 9.596 7.866 13.627 9.698l1.187.513 1.143.45c.373.14.738.268 1.094.39l1.044.333.992.28.93.233.87.19.807.148.74.117.672.088.595.058.956.058c3.687.137 7.45-2.873 9.077-5.958-2.077-2.436-4.655-4.434-7.499-6.446l-2.181-1.52-.555.58-1.184 1.293-.627.659c-1.709 1.741-3.704 3.22-6.096 2.254l-.659-.277-.805-.361-.449-.213-.986-.493-1.082-.584a34.61 34.61 0 01-7.487-5.614 34.616 34.616 0 01-5.614-7.487l-.584-1.08-.496-.988-.571-1.254-.28-.665c-.907-2.243.34-4.136 1.936-5.775l.654-.642 1.624-1.496.584-.554-1.38-2.022c-2.05-2.975-4.054-5.658-6.542-7.676l.003.003zM50.083 8.75a2.917 2.917 0 012.897 2.575l.02.342V17.5h5.833a2.917 2.917 0 01.342 5.813l-.342.02H53v5.834a2.917 2.917 0 01-5.813.34l-.02-.34v-5.834h-5.834a2.916 2.916 0 01-.34-5.813l.34-.02h5.834v-5.833a2.917 2.917 0 012.916-2.917z" fill="#fff"/></g><defs><clipPath id="prefix__clip0_3_31"><path fill="#fff" transform="translate(.5)" d="M0 0h70v70H0z"/></clipPath></defs></svg>