<svg width="945" height="456" viewBox="0 0 945 456" fill="none" xmlns="http://www.w3.org/2000/svg">
<rect width="945" height="456" rx="60" fill="#4BAA00"/>
<path d="M84.0341 245V210.091H107.199V216.176H91.4148V222.994H97.0909C99.8523 222.994 102.233 223.443 104.233 224.341C106.244 225.227 107.795 226.483 108.886 228.108C109.977 229.733 110.523 231.648 110.523 233.852C110.523 236.045 109.977 237.983 108.886 239.665C107.795 241.335 106.244 242.642 104.233 243.585C102.233 244.528 99.8523 245 97.0909 245H84.0341ZM91.4148 239.068H97.0909C98.4091 239.068 99.5227 238.83 100.432 238.352C101.341 237.864 102.028 237.222 102.494 236.426C102.972 235.619 103.21 234.739 103.21 233.784C103.21 232.398 102.682 231.227 101.625 230.273C100.58 229.307 99.0682 228.824 97.0909 228.824H91.4148V239.068ZM127.095 245.511C124.402 245.511 122.084 244.966 120.141 243.875C118.209 242.773 116.72 241.216 115.675 239.205C114.629 237.182 114.107 234.79 114.107 232.028C114.107 229.335 114.629 226.972 115.675 224.938C116.72 222.903 118.192 221.318 120.089 220.182C121.999 219.045 124.237 218.477 126.805 218.477C128.533 218.477 130.141 218.756 131.629 219.312C133.129 219.858 134.436 220.682 135.55 221.784C136.675 222.886 137.55 224.273 138.175 225.943C138.8 227.602 139.112 229.545 139.112 231.773V233.767H117.004V229.267H132.277C132.277 228.222 132.05 227.295 131.595 226.489C131.141 225.682 130.51 225.051 129.703 224.597C128.908 224.131 127.982 223.898 126.925 223.898C125.822 223.898 124.845 224.153 123.993 224.665C123.152 225.165 122.493 225.841 122.016 226.693C121.538 227.534 121.294 228.472 121.283 229.506V233.784C121.283 235.08 121.521 236.199 121.999 237.142C122.487 238.085 123.175 238.812 124.061 239.324C124.947 239.835 125.999 240.091 127.214 240.091C128.021 240.091 128.76 239.977 129.43 239.75C130.101 239.523 130.675 239.182 131.152 238.727C131.629 238.273 131.993 237.716 132.243 237.057L138.959 237.5C138.618 239.114 137.919 240.523 136.862 241.727C135.817 242.92 134.464 243.852 132.805 244.523C131.158 245.182 129.254 245.511 127.095 245.511ZM155.68 245.511C152.999 245.511 150.692 244.943 148.76 243.807C146.839 242.659 145.362 241.068 144.328 239.034C143.305 237 142.794 234.659 142.794 232.011C142.794 229.33 143.311 226.977 144.345 224.955C145.391 222.92 146.874 221.335 148.794 220.199C150.714 219.051 152.999 218.477 155.646 218.477C157.93 218.477 159.93 218.892 161.646 219.722C163.362 220.551 164.72 221.716 165.72 223.216C166.72 224.716 167.271 226.477 167.374 228.5H160.521C160.328 227.193 159.817 226.142 158.987 225.347C158.169 224.54 157.095 224.136 155.766 224.136C154.641 224.136 153.658 224.443 152.817 225.057C151.987 225.659 151.339 226.54 150.874 227.699C150.408 228.858 150.175 230.261 150.175 231.909C150.175 233.58 150.402 235 150.857 236.17C151.322 237.341 151.976 238.233 152.817 238.847C153.658 239.46 154.641 239.767 155.766 239.767C156.595 239.767 157.339 239.597 157.999 239.256C158.669 238.915 159.22 238.42 159.652 237.773C160.095 237.114 160.385 236.324 160.521 235.403H167.374C167.26 237.403 166.714 239.165 165.737 240.688C164.771 242.199 163.436 243.381 161.732 244.233C160.027 245.085 158.01 245.511 155.68 245.511ZM172.023 245V218.818H194.915V245H187.977V224.528H178.875V245H172.023ZM199.176 245L199.142 239.239H200.011C200.625 239.239 201.153 239.091 201.597 238.795C202.051 238.489 202.426 237.994 202.722 237.312C203.017 236.631 203.25 235.727 203.42 234.602C203.591 233.466 203.705 232.068 203.761 230.409L204.188 218.818H224.097V245H217.176V224.528H210.716L210.307 232.523C210.205 234.716 209.938 236.602 209.506 238.182C209.085 239.761 208.5 241.057 207.75 242.068C207 243.068 206.097 243.807 205.04 244.284C203.983 244.761 202.756 245 201.358 245H199.176ZM237.192 245.494C235.521 245.494 234.033 245.205 232.726 244.625C231.419 244.034 230.385 243.165 229.624 242.017C228.874 240.858 228.499 239.415 228.499 237.688C228.499 236.233 228.766 235.011 229.3 234.023C229.834 233.034 230.561 232.239 231.482 231.636C232.402 231.034 233.447 230.58 234.618 230.273C235.8 229.966 237.038 229.75 238.334 229.625C239.857 229.466 241.084 229.318 242.016 229.182C242.947 229.034 243.624 228.818 244.044 228.534C244.464 228.25 244.675 227.83 244.675 227.273V227.17C244.675 226.091 244.334 225.256 243.652 224.665C242.982 224.074 242.027 223.778 240.788 223.778C239.482 223.778 238.442 224.068 237.669 224.648C236.896 225.216 236.385 225.932 236.135 226.795L229.419 226.25C229.76 224.659 230.43 223.284 231.43 222.125C232.43 220.955 233.72 220.057 235.3 219.432C236.891 218.795 238.732 218.477 240.822 218.477C242.277 218.477 243.669 218.648 244.999 218.989C246.339 219.33 247.527 219.858 248.561 220.574C249.607 221.29 250.43 222.21 251.033 223.335C251.635 224.449 251.936 225.784 251.936 227.341V245H245.05V241.369H244.845C244.425 242.188 243.862 242.909 243.158 243.534C242.453 244.148 241.607 244.631 240.618 244.983C239.629 245.324 238.487 245.494 237.192 245.494ZM239.271 240.483C240.339 240.483 241.283 240.273 242.101 239.852C242.919 239.42 243.561 238.841 244.027 238.114C244.493 237.386 244.726 236.562 244.726 235.642V232.864C244.499 233.011 244.186 233.148 243.788 233.273C243.402 233.386 242.964 233.494 242.476 233.597C241.987 233.687 241.499 233.773 241.01 233.852C240.521 233.92 240.078 233.983 239.68 234.04C238.828 234.165 238.084 234.364 237.447 234.636C236.811 234.909 236.317 235.278 235.964 235.744C235.612 236.199 235.436 236.767 235.436 237.449C235.436 238.438 235.794 239.193 236.51 239.716C237.237 240.227 238.158 240.483 239.271 240.483ZM254.94 224.528V218.818H278.668V224.528H270.23V245H263.31V224.528H254.94ZM301.291 229.011V234.722H287.621V229.011H301.291ZM290.007 218.818V245H283.07V218.818H290.007ZM305.842 218.818V245H298.956V218.818H305.842ZM318.942 245.494C317.271 245.494 315.783 245.205 314.476 244.625C313.169 244.034 312.135 243.165 311.374 242.017C310.624 240.858 310.249 239.415 310.249 237.688C310.249 236.233 310.516 235.011 311.05 234.023C311.584 233.034 312.311 232.239 313.232 231.636C314.152 231.034 315.197 230.58 316.368 230.273C317.55 229.966 318.788 229.75 320.084 229.625C321.607 229.466 322.834 229.318 323.766 229.182C324.697 229.034 325.374 228.818 325.794 228.534C326.214 228.25 326.425 227.83 326.425 227.273V227.17C326.425 226.091 326.084 225.256 325.402 224.665C324.732 224.074 323.777 223.778 322.538 223.778C321.232 223.778 320.192 224.068 319.419 224.648C318.646 225.216 318.135 225.932 317.885 226.795L311.169 226.25C311.51 224.659 312.18 223.284 313.18 222.125C314.18 220.955 315.47 220.057 317.05 219.432C318.641 218.795 320.482 218.477 322.572 218.477C324.027 218.477 325.419 218.648 326.749 218.989C328.089 219.33 329.277 219.858 330.311 220.574C331.357 221.29 332.18 222.21 332.783 223.335C333.385 224.449 333.686 225.784 333.686 227.341V245H326.8V241.369H326.595C326.175 242.188 325.612 242.909 324.908 243.534C324.203 244.148 323.357 244.631 322.368 244.983C321.379 245.324 320.237 245.494 318.942 245.494ZM321.021 240.483C322.089 240.483 323.033 240.273 323.851 239.852C324.669 239.42 325.311 238.841 325.777 238.114C326.243 237.386 326.476 236.562 326.476 235.642V232.864C326.249 233.011 325.936 233.148 325.538 233.273C325.152 233.386 324.714 233.494 324.226 233.597C323.737 233.687 323.249 233.773 322.76 233.852C322.271 233.92 321.828 233.983 321.43 234.04C320.578 234.165 319.834 234.364 319.197 234.636C318.561 234.909 318.067 235.278 317.714 235.744C317.362 236.199 317.186 236.767 317.186 237.449C317.186 238.438 317.544 239.193 318.26 239.716C318.987 240.227 319.908 240.483 321.021 240.483ZM354.661 245V224.511H349.751C348.422 224.511 347.411 224.818 346.717 225.432C346.024 226.045 345.683 226.773 345.695 227.614C345.683 228.466 346.013 229.187 346.683 229.778C347.365 230.358 348.365 230.648 349.683 230.648H357.081V235.557H349.683C347.445 235.557 345.507 235.216 343.871 234.534C342.234 233.852 340.973 232.903 340.087 231.688C339.2 230.46 338.763 229.034 338.774 227.409C338.763 225.705 339.2 224.21 340.087 222.926C340.973 221.631 342.24 220.625 343.888 219.909C345.547 219.182 347.501 218.818 349.751 218.818H361.428V245H354.661ZM338.024 245L345.303 231.364H352.24L344.979 245H338.024ZM385.116 235.42L394.543 218.818H401.702V245H394.781V228.347L385.389 245H378.179V218.818H385.116V235.42ZM440.399 209.205L442.615 213.943C441.876 214.557 441.058 215.011 440.161 215.307C439.263 215.591 438.189 215.778 436.939 215.869C435.7 215.96 434.189 216.023 432.405 216.057C430.382 216.08 428.734 216.403 427.462 217.028C426.189 217.653 425.223 218.636 424.564 219.977C423.905 221.307 423.473 223.045 423.268 225.193H423.524C424.308 223.591 425.411 222.352 426.831 221.477C428.263 220.602 430.03 220.165 432.132 220.165C434.359 220.165 436.308 220.653 437.979 221.631C439.661 222.608 440.967 224.011 441.899 225.841C442.831 227.67 443.297 229.864 443.297 232.42C443.297 235.08 442.774 237.392 441.729 239.358C440.695 241.312 439.223 242.83 437.314 243.909C435.405 244.977 433.132 245.511 430.496 245.511C427.848 245.511 425.564 244.955 423.643 243.841C421.734 242.727 420.257 241.085 419.212 238.915C418.178 236.744 417.661 234.074 417.661 230.903V228.756C417.661 222.449 418.888 217.773 421.342 214.727C423.797 211.682 427.405 210.136 432.166 210.091C433.462 210.068 434.632 210.062 435.678 210.074C436.723 210.085 437.638 210.034 438.422 209.92C439.217 209.807 439.876 209.568 440.399 209.205ZM430.53 239.886C431.643 239.886 432.598 239.597 433.393 239.017C434.2 238.437 434.82 237.608 435.251 236.528C435.695 235.449 435.916 234.159 435.916 232.659C435.916 231.17 435.695 229.909 435.251 228.875C434.82 227.83 434.2 227.034 433.393 226.489C432.587 225.943 431.621 225.67 430.496 225.67C429.655 225.67 428.899 225.824 428.229 226.131C427.558 226.437 426.984 226.892 426.507 227.494C426.041 228.085 425.678 228.818 425.416 229.693C425.166 230.557 425.041 231.545 425.041 232.659C425.041 234.898 425.524 236.665 426.49 237.96C427.467 239.244 428.814 239.886 430.53 239.886ZM452.668 226.864H460.491C463.957 226.864 466.662 227.693 468.605 229.352C470.548 231 471.52 233.205 471.52 235.966C471.52 237.761 471.082 239.341 470.207 240.705C469.332 242.057 468.071 243.114 466.423 243.875C464.776 244.625 462.798 245 460.491 245H448.116V218.818H455.054V239.29H460.491C461.707 239.29 462.707 238.983 463.491 238.369C464.276 237.756 464.673 236.972 464.685 236.017C464.673 235.006 464.276 234.182 463.491 233.545C462.707 232.898 461.707 232.574 460.491 232.574H452.668V226.864ZM474.332 245V218.818H481.594V245H474.332ZM499.227 245.511C496.545 245.511 494.239 244.943 492.307 243.807C490.386 242.659 488.909 241.068 487.875 239.034C486.852 237 486.341 234.659 486.341 232.011C486.341 229.33 486.858 226.977 487.892 224.955C488.938 222.92 490.42 221.335 492.341 220.199C494.261 219.051 496.545 218.477 499.193 218.477C501.477 218.477 503.477 218.892 505.193 219.722C506.909 220.551 508.267 221.716 509.267 223.216C510.267 224.716 510.818 226.477 510.92 228.5H504.068C503.875 227.193 503.364 226.142 502.534 225.347C501.716 224.54 500.642 224.136 499.312 224.136C498.188 224.136 497.205 224.443 496.364 225.057C495.534 225.659 494.886 226.54 494.42 227.699C493.955 228.858 493.722 230.261 493.722 231.909C493.722 233.58 493.949 235 494.403 236.17C494.869 237.341 495.523 238.233 496.364 238.847C497.205 239.46 498.188 239.767 499.312 239.767C500.142 239.767 500.886 239.597 501.545 239.256C502.216 238.915 502.767 238.42 503.199 237.773C503.642 237.114 503.932 236.324 504.068 235.403H510.92C510.807 237.403 510.261 239.165 509.284 240.688C508.318 242.199 506.983 243.381 505.278 244.233C503.574 245.085 501.557 245.511 499.227 245.511ZM513.784 224.528V218.818H537.511V224.528H529.074V245H522.153V224.528H513.784ZM541.913 254.818V218.818H549.072V223.216H549.396C549.714 222.511 550.175 221.795 550.777 221.068C551.391 220.33 552.186 219.716 553.163 219.227C554.152 218.727 555.379 218.477 556.845 218.477C558.754 218.477 560.516 218.977 562.129 219.977C563.743 220.966 565.033 222.46 565.999 224.46C566.964 226.449 567.447 228.943 567.447 231.943C567.447 234.864 566.976 237.33 566.033 239.341C565.101 241.341 563.828 242.858 562.214 243.892C560.612 244.915 558.817 245.426 556.828 245.426C555.419 245.426 554.22 245.193 553.232 244.727C552.254 244.261 551.453 243.676 550.828 242.972C550.203 242.256 549.726 241.534 549.396 240.807H549.175V254.818H541.913ZM549.021 231.909C549.021 233.466 549.237 234.824 549.669 235.983C550.101 237.142 550.726 238.045 551.544 238.693C552.362 239.33 553.357 239.648 554.527 239.648C555.709 239.648 556.709 239.324 557.527 238.676C558.345 238.017 558.964 237.108 559.385 235.949C559.817 234.778 560.033 233.432 560.033 231.909C560.033 230.398 559.822 229.068 559.402 227.92C558.982 226.773 558.362 225.875 557.544 225.227C556.726 224.58 555.72 224.256 554.527 224.256C553.345 224.256 552.345 224.568 551.527 225.193C550.72 225.818 550.101 226.705 549.669 227.852C549.237 229 549.021 230.352 549.021 231.909ZM579.754 245.494C578.084 245.494 576.595 245.205 575.288 244.625C573.982 244.034 572.947 243.165 572.186 242.017C571.436 240.858 571.061 239.415 571.061 237.688C571.061 236.233 571.328 235.011 571.862 234.023C572.396 233.034 573.124 232.239 574.044 231.636C574.964 231.034 576.01 230.58 577.18 230.273C578.362 229.966 579.601 229.75 580.896 229.625C582.419 229.466 583.646 229.318 584.578 229.182C585.51 229.034 586.186 228.818 586.607 228.534C587.027 228.25 587.237 227.83 587.237 227.273V227.17C587.237 226.091 586.896 225.256 586.214 224.665C585.544 224.074 584.589 223.778 583.351 223.778C582.044 223.778 581.004 224.068 580.232 224.648C579.459 225.216 578.947 225.932 578.697 226.795L571.982 226.25C572.322 224.659 572.993 223.284 573.993 222.125C574.993 220.955 576.283 220.057 577.862 219.432C579.453 218.795 581.294 218.477 583.385 218.477C584.839 218.477 586.232 218.648 587.561 218.989C588.902 219.33 590.089 219.858 591.124 220.574C592.169 221.29 592.993 222.21 593.595 223.335C594.197 224.449 594.499 225.784 594.499 227.341V245H587.612V241.369H587.408C586.987 242.188 586.425 242.909 585.72 243.534C585.016 244.148 584.169 244.631 583.18 244.983C582.192 245.324 581.05 245.494 579.754 245.494ZM581.834 240.483C582.902 240.483 583.845 240.273 584.663 239.852C585.482 239.42 586.124 238.841 586.589 238.114C587.055 237.386 587.288 236.562 587.288 235.642V232.864C587.061 233.011 586.749 233.148 586.351 233.273C585.964 233.386 585.527 233.494 585.038 233.597C584.55 233.687 584.061 233.773 583.572 233.852C583.084 233.92 582.641 233.983 582.243 234.04C581.391 234.165 580.646 234.364 580.01 234.636C579.374 234.909 578.879 235.278 578.527 235.744C578.175 236.199 577.999 236.767 577.999 237.449C577.999 238.438 578.357 239.193 579.072 239.716C579.8 240.227 580.72 240.483 581.834 240.483ZM615.473 245V224.511H610.564C609.234 224.511 608.223 224.818 607.53 225.432C606.837 226.045 606.496 226.773 606.507 227.614C606.496 228.466 606.825 229.187 607.496 229.778C608.178 230.358 609.178 230.648 610.496 230.648H617.893V235.557H610.496C608.257 235.557 606.32 235.216 604.683 234.534C603.047 233.852 601.786 232.903 600.899 231.688C600.013 230.46 599.575 229.034 599.587 227.409C599.575 225.705 600.013 224.21 600.899 222.926C601.786 221.631 603.053 220.625 604.7 219.909C606.359 219.182 608.314 218.818 610.564 218.818H622.24V245H615.473ZM598.837 245L606.115 231.364H613.053L605.791 245H598.837ZM636.946 252.67V239.239H638.957C639.537 238.875 640.003 238.295 640.355 237.5C640.719 236.705 641.014 235.767 641.241 234.688C641.48 233.608 641.662 232.443 641.787 231.193C641.923 229.932 642.043 228.659 642.145 227.375L642.827 218.818H662.906V239.239H666.963V252.67H660.043V245H644.037V252.67H636.946ZM646.185 239.239H656.054V224.409H648.997L648.724 227.375C648.531 230.17 648.253 232.545 647.889 234.5C647.526 236.443 646.957 238.023 646.185 239.239ZM683.024 245.511C680.376 245.511 678.087 244.949 676.155 243.824C674.234 242.687 672.751 241.108 671.706 239.085C670.661 237.051 670.138 234.693 670.138 232.011C670.138 229.307 670.661 226.943 671.706 224.92C672.751 222.886 674.234 221.307 676.155 220.182C678.087 219.045 680.376 218.477 683.024 218.477C685.672 218.477 687.956 219.045 689.876 220.182C691.808 221.307 693.297 222.886 694.342 224.92C695.388 226.943 695.911 229.307 695.911 232.011C695.911 234.693 695.388 237.051 694.342 239.085C693.297 241.108 691.808 242.687 689.876 243.824C687.956 244.949 685.672 245.511 683.024 245.511ZM683.058 239.886C684.263 239.886 685.268 239.545 686.075 238.864C686.882 238.17 687.49 237.227 687.899 236.034C688.32 234.841 688.53 233.483 688.53 231.96C688.53 230.438 688.32 229.08 687.899 227.886C687.49 226.693 686.882 225.75 686.075 225.057C685.268 224.364 684.263 224.017 683.058 224.017C681.842 224.017 680.82 224.364 679.99 225.057C679.172 225.75 678.553 226.693 678.132 227.886C677.723 229.08 677.518 230.438 677.518 231.96C677.518 233.483 677.723 234.841 678.132 236.034C678.553 237.227 679.172 238.17 679.99 238.864C680.82 239.545 681.842 239.886 683.058 239.886ZM712.462 245.511C709.78 245.511 707.473 244.943 705.541 243.807C703.621 242.659 702.143 241.068 701.109 239.034C700.087 237 699.575 234.659 699.575 232.011C699.575 229.33 700.092 226.977 701.126 224.955C702.172 222.92 703.655 221.335 705.575 220.199C707.496 219.051 709.78 218.477 712.428 218.477C714.712 218.477 716.712 218.892 718.428 219.722C720.143 220.551 721.501 221.716 722.501 223.216C723.501 224.716 724.053 226.477 724.155 228.5H717.303C717.109 227.193 716.598 226.142 715.768 225.347C714.95 224.54 713.876 224.136 712.547 224.136C711.422 224.136 710.439 224.443 709.598 225.057C708.768 225.659 708.121 226.54 707.655 227.699C707.189 228.858 706.956 230.261 706.956 231.909C706.956 233.58 707.183 235 707.638 236.17C708.104 237.341 708.757 238.233 709.598 238.847C710.439 239.46 711.422 239.767 712.547 239.767C713.376 239.767 714.121 239.597 714.78 239.256C715.45 238.915 716.001 238.42 716.433 237.773C716.876 237.114 717.166 236.324 717.303 235.403H724.155C724.041 237.403 723.496 239.165 722.518 240.688C721.553 242.199 720.217 243.381 718.513 244.233C716.808 245.085 714.791 245.511 712.462 245.511ZM727.018 224.528V218.818H750.746V224.528H742.308V245H735.388V224.528H727.018ZM761.676 245.494C760.006 245.494 758.517 245.205 757.21 244.625C755.903 244.034 754.869 243.165 754.108 242.017C753.358 240.858 752.983 239.415 752.983 237.688C752.983 236.233 753.25 235.011 753.784 234.023C754.318 233.034 755.045 232.239 755.966 231.636C756.886 231.034 757.932 230.58 759.102 230.273C760.284 229.966 761.523 229.75 762.818 229.625C764.341 229.466 765.568 229.318 766.5 229.182C767.432 229.034 768.108 228.818 768.528 228.534C768.949 228.25 769.159 227.83 769.159 227.273V227.17C769.159 226.091 768.818 225.256 768.136 224.665C767.466 224.074 766.511 223.778 765.273 223.778C763.966 223.778 762.926 224.068 762.153 224.648C761.381 225.216 760.869 225.932 760.619 226.795L753.903 226.25C754.244 224.659 754.915 223.284 755.915 222.125C756.915 220.955 758.205 220.057 759.784 219.432C761.375 218.795 763.216 218.477 765.307 218.477C766.761 218.477 768.153 218.648 769.483 218.989C770.824 219.33 772.011 219.858 773.045 220.574C774.091 221.29 774.915 222.21 775.517 223.335C776.119 224.449 776.42 225.784 776.42 227.341V245H769.534V241.369H769.33C768.909 242.188 768.347 242.909 767.642 243.534C766.938 244.148 766.091 244.631 765.102 244.983C764.114 245.324 762.972 245.494 761.676 245.494ZM763.756 240.483C764.824 240.483 765.767 240.273 766.585 239.852C767.403 239.42 768.045 238.841 768.511 238.114C768.977 237.386 769.21 236.562 769.21 235.642V232.864C768.983 233.011 768.67 233.148 768.273 233.273C767.886 233.386 767.449 233.494 766.96 233.597C766.472 233.687 765.983 233.773 765.494 233.852C765.006 233.92 764.562 233.983 764.165 234.04C763.313 234.165 762.568 234.364 761.932 234.636C761.295 234.909 760.801 235.278 760.449 235.744C760.097 236.199 759.92 236.767 759.92 237.449C759.92 238.438 760.278 239.193 760.994 239.716C761.722 240.227 762.642 240.483 763.756 240.483ZM782.054 245V218.818H793.219C796.446 218.818 798.997 219.432 800.872 220.659C802.747 221.886 803.685 223.631 803.685 225.892C803.685 227.312 803.156 228.494 802.099 229.438C801.043 230.381 799.577 231.017 797.702 231.347C799.27 231.46 800.605 231.818 801.707 232.42C802.821 233.011 803.668 233.778 804.247 234.722C804.838 235.665 805.134 236.71 805.134 237.858C805.134 239.347 804.736 240.625 803.94 241.693C803.156 242.761 802.003 243.58 800.48 244.148C798.969 244.716 797.122 245 794.94 245H782.054ZM788.821 239.562H794.94C795.952 239.562 796.741 239.324 797.31 238.847C797.889 238.358 798.179 237.693 798.179 236.852C798.179 235.92 797.889 235.187 797.31 234.653C796.741 234.119 795.952 233.852 794.94 233.852H788.821V239.562ZM788.821 229.591H793.372C794.099 229.591 794.719 229.489 795.23 229.284C795.753 229.068 796.151 228.761 796.423 228.364C796.707 227.966 796.849 227.494 796.849 226.949C796.849 226.142 796.526 225.511 795.878 225.057C795.23 224.602 794.344 224.375 793.219 224.375H788.821V229.591ZM809.71 245V218.818H816.972V228.977H819.017L826.142 218.818H834.665L825.409 231.807L834.767 245H826.142L819.682 235.71H816.972V245H809.71ZM845.301 245.494C843.631 245.494 842.142 245.205 840.835 244.625C839.528 244.034 838.494 243.165 837.733 242.017C836.983 240.858 836.608 239.415 836.608 237.688C836.608 236.233 836.875 235.011 837.409 234.023C837.943 233.034 838.67 232.239 839.591 231.636C840.511 231.034 841.557 230.58 842.727 230.273C843.909 229.966 845.148 229.75 846.443 229.625C847.966 229.466 849.193 229.318 850.125 229.182C851.057 229.034 851.733 228.818 852.153 228.534C852.574 228.25 852.784 227.83 852.784 227.273V227.17C852.784 226.091 852.443 225.256 851.761 224.665C851.091 224.074 850.136 223.778 848.898 223.778C847.591 223.778 846.551 224.068 845.778 224.648C845.006 225.216 844.494 225.932 844.244 226.795L837.528 226.25C837.869 224.659 838.54 223.284 839.54 222.125C840.54 220.955 841.83 220.057 843.409 219.432C845 218.795 846.841 218.477 848.932 218.477C850.386 218.477 851.778 218.648 853.108 218.989C854.449 219.33 855.636 219.858 856.67 220.574C857.716 221.29 858.54 222.21 859.142 223.335C859.744 224.449 860.045 225.784 860.045 227.341V245H853.159V241.369H852.955C852.534 242.188 851.972 242.909 851.267 243.534C850.562 244.148 849.716 244.631 848.727 244.983C847.739 245.324 846.597 245.494 845.301 245.494ZM847.381 240.483C848.449 240.483 849.392 240.273 850.21 239.852C851.028 239.42 851.67 238.841 852.136 238.114C852.602 237.386 852.835 236.562 852.835 235.642V232.864C852.608 233.011 852.295 233.148 851.898 233.273C851.511 233.386 851.074 233.494 850.585 233.597C850.097 233.687 849.608 233.773 849.119 233.852C848.631 233.92 848.188 233.983 847.79 234.04C846.938 234.165 846.193 234.364 845.557 234.636C844.92 234.909 844.426 235.278 844.074 235.744C843.722 236.199 843.545 236.767 843.545 237.449C843.545 238.438 843.903 239.193 844.619 239.716C845.347 240.227 846.267 240.483 847.381 240.483Z" fill="white"/>
</svg>
