<svg width="945" height="456" viewBox="0 0 945 456" fill="none" xmlns="http://www.w3.org/2000/svg">
<rect width="945" height="456" rx="60" fill="#4BAA00"/>
<path d="M88.0341 245V210.091H102.011C104.58 210.091 106.722 210.472 108.438 211.233C110.153 211.994 111.443 213.051 112.307 214.403C113.17 215.744 113.602 217.29 113.602 219.04C113.602 220.403 113.33 221.602 112.784 222.636C112.239 223.659 111.489 224.5 110.534 225.159C109.591 225.807 108.511 226.267 107.295 226.54V226.881C108.625 226.937 109.869 227.312 111.028 228.006C112.199 228.699 113.148 229.67 113.875 230.92C114.602 232.159 114.966 233.636 114.966 235.352C114.966 237.205 114.506 238.858 113.585 240.312C112.676 241.756 111.33 242.898 109.545 243.739C107.761 244.58 105.563 245 102.949 245H88.0341ZM95.4148 238.966H101.432C103.489 238.966 104.989 238.574 105.932 237.79C106.875 236.994 107.347 235.937 107.347 234.619C107.347 233.653 107.114 232.801 106.648 232.062C106.182 231.324 105.517 230.744 104.653 230.324C103.801 229.903 102.784 229.693 101.602 229.693H95.4148V238.966ZM95.4148 224.699H100.886C101.898 224.699 102.795 224.523 103.58 224.17C104.375 223.807 105 223.295 105.455 222.636C105.92 221.977 106.153 221.188 106.153 220.267C106.153 219.006 105.705 217.989 104.807 217.216C103.92 216.443 102.659 216.057 101.023 216.057H95.4148V224.699ZM124.183 226.864H132.007C135.473 226.864 138.178 227.693 140.121 229.352C142.064 231 143.036 233.205 143.036 235.966C143.036 237.761 142.598 239.341 141.723 240.705C140.848 242.057 139.587 243.114 137.939 243.875C136.291 244.625 134.314 245 132.007 245H119.632V218.818H126.57V239.29H132.007C133.223 239.29 134.223 238.983 135.007 238.369C135.791 237.756 136.189 236.972 136.2 236.017C136.189 235.006 135.791 234.182 135.007 233.545C134.223 232.898 133.223 232.574 132.007 232.574H124.183V226.864ZM145.848 245V218.818H153.109V245H145.848ZM176.845 218.818V224.528H165.97V245H158.913V218.818H176.845ZM192.165 245.511C189.517 245.511 187.227 244.949 185.295 243.824C183.375 242.687 181.892 241.108 180.847 239.085C179.801 237.051 179.278 234.693 179.278 232.011C179.278 229.307 179.801 226.943 180.847 224.92C181.892 222.886 183.375 221.307 185.295 220.182C187.227 219.045 189.517 218.477 192.165 218.477C194.812 218.477 197.097 219.045 199.017 220.182C200.949 221.307 202.438 222.886 203.483 224.92C204.528 226.943 205.051 229.307 205.051 232.011C205.051 234.693 204.528 237.051 203.483 239.085C202.438 241.108 200.949 242.687 199.017 243.824C197.097 244.949 194.812 245.511 192.165 245.511ZM192.199 239.886C193.403 239.886 194.409 239.545 195.216 238.864C196.023 238.17 196.631 237.227 197.04 236.034C197.46 234.841 197.67 233.483 197.67 231.96C197.67 230.438 197.46 229.08 197.04 227.886C196.631 226.693 196.023 225.75 195.216 225.057C194.409 224.364 193.403 224.017 192.199 224.017C190.983 224.017 189.96 224.364 189.131 225.057C188.313 225.75 187.693 226.693 187.273 227.886C186.864 229.08 186.659 230.438 186.659 231.96C186.659 233.483 186.864 234.841 187.273 236.034C187.693 237.227 188.313 238.17 189.131 238.864C189.96 239.545 190.983 239.886 192.199 239.886ZM207.727 252.67V239.239H209.739C210.318 238.875 210.784 238.295 211.136 237.5C211.5 236.705 211.795 235.767 212.023 234.688C212.261 233.608 212.443 232.443 212.568 231.193C212.705 229.932 212.824 228.659 212.926 227.375L213.608 218.818H233.688V239.239H237.744V252.67H230.824V245H214.818V252.67H207.727ZM216.966 239.239H226.835V224.409H219.778L219.506 227.375C219.313 230.17 219.034 232.545 218.67 234.5C218.307 236.443 217.739 238.023 216.966 239.239ZM260.197 229.011V234.722H246.527V229.011H260.197ZM248.913 218.818V245H241.976V218.818H248.913ZM264.749 218.818V245H257.862V218.818H264.749ZM274.933 226.864H282.757C286.223 226.864 288.928 227.693 290.871 229.352C292.814 231 293.786 233.205 293.786 235.966C293.786 237.761 293.348 239.341 292.473 240.705C291.598 242.057 290.337 243.114 288.689 243.875C287.041 244.625 285.064 245 282.757 245H270.382V218.818H277.32V239.29H282.757C283.973 239.29 284.973 238.983 285.757 238.369C286.541 237.756 286.939 236.972 286.95 236.017C286.939 235.006 286.541 234.182 285.757 233.545C284.973 232.898 283.973 232.574 282.757 232.574H274.933V226.864ZM296.598 245V218.818H303.859V245H296.598ZM321.595 245.511C318.902 245.511 316.584 244.966 314.641 243.875C312.709 242.773 311.22 241.216 310.175 239.205C309.129 237.182 308.607 234.79 308.607 232.028C308.607 229.335 309.129 226.972 310.175 224.938C311.22 222.903 312.692 221.318 314.589 220.182C316.499 219.045 318.737 218.477 321.305 218.477C323.033 218.477 324.641 218.756 326.129 219.312C327.629 219.858 328.936 220.682 330.05 221.784C331.175 222.886 332.05 224.273 332.675 225.943C333.3 227.602 333.612 229.545 333.612 231.773V233.767H311.504V229.267H326.777C326.777 228.222 326.55 227.295 326.095 226.489C325.641 225.682 325.01 225.051 324.203 224.597C323.408 224.131 322.482 223.898 321.425 223.898C320.322 223.898 319.345 224.153 318.493 224.665C317.652 225.165 316.993 225.841 316.516 226.693C316.038 227.534 315.794 228.472 315.783 229.506V233.784C315.783 235.08 316.021 236.199 316.499 237.142C316.987 238.085 317.675 238.812 318.561 239.324C319.447 239.835 320.499 240.091 321.714 240.091C322.521 240.091 323.26 239.977 323.93 239.75C324.601 239.523 325.175 239.182 325.652 238.727C326.129 238.273 326.493 237.716 326.743 237.057L333.459 237.5C333.118 239.114 332.419 240.523 331.362 241.727C330.317 242.92 328.964 243.852 327.305 244.523C325.658 245.182 323.754 245.511 321.595 245.511ZM349.46 245V218.818H372.352V245H365.415V224.528H356.312V245H349.46ZM378.148 254.818V218.818H385.307V223.216H385.631C385.949 222.511 386.409 221.795 387.011 221.068C387.625 220.33 388.42 219.716 389.398 219.227C390.386 218.727 391.614 218.477 393.08 218.477C394.989 218.477 396.75 218.977 398.364 219.977C399.977 220.966 401.267 222.46 402.233 224.46C403.199 226.449 403.682 228.943 403.682 231.943C403.682 234.864 403.21 237.33 402.267 239.341C401.335 241.341 400.063 242.858 398.449 243.892C396.847 244.915 395.051 245.426 393.062 245.426C391.653 245.426 390.455 245.193 389.466 244.727C388.489 244.261 387.688 243.676 387.062 242.972C386.438 242.256 385.96 241.534 385.631 240.807H385.409V254.818H378.148ZM385.256 231.909C385.256 233.466 385.472 234.824 385.903 235.983C386.335 237.142 386.96 238.045 387.778 238.693C388.597 239.33 389.591 239.648 390.761 239.648C391.943 239.648 392.943 239.324 393.761 238.676C394.58 238.017 395.199 237.108 395.619 235.949C396.051 234.778 396.267 233.432 396.267 231.909C396.267 230.398 396.057 229.068 395.636 227.92C395.216 226.773 394.597 225.875 393.778 225.227C392.96 224.58 391.955 224.256 390.761 224.256C389.58 224.256 388.58 224.568 387.761 225.193C386.955 225.818 386.335 226.705 385.903 227.852C385.472 229 385.256 230.352 385.256 231.909ZM420.455 245.511C417.761 245.511 415.443 244.966 413.5 243.875C411.568 242.773 410.08 241.216 409.034 239.205C407.989 237.182 407.466 234.79 407.466 232.028C407.466 229.335 407.989 226.972 409.034 224.938C410.08 222.903 411.551 221.318 413.449 220.182C415.358 219.045 417.597 218.477 420.165 218.477C421.892 218.477 423.5 218.756 424.989 219.312C426.489 219.858 427.795 220.682 428.909 221.784C430.034 222.886 430.909 224.273 431.534 225.943C432.159 227.602 432.472 229.545 432.472 231.773V233.767H410.364V229.267H425.636C425.636 228.222 425.409 227.295 424.955 226.489C424.5 225.682 423.869 225.051 423.062 224.597C422.267 224.131 421.341 223.898 420.284 223.898C419.182 223.898 418.205 224.153 417.352 224.665C416.511 225.165 415.852 225.841 415.375 226.693C414.898 227.534 414.653 228.472 414.642 229.506V233.784C414.642 235.08 414.881 236.199 415.358 237.142C415.847 238.085 416.534 238.812 417.42 239.324C418.307 239.835 419.358 240.091 420.574 240.091C421.381 240.091 422.119 239.977 422.79 239.75C423.46 239.523 424.034 239.182 424.511 238.727C424.989 238.273 425.352 237.716 425.602 237.057L432.318 237.5C431.977 239.114 431.278 240.523 430.222 241.727C429.176 242.92 427.824 243.852 426.165 244.523C424.517 245.182 422.614 245.511 420.455 245.511ZM435.165 252.67V239.239H437.176C437.756 238.875 438.222 238.295 438.574 237.5C438.938 236.705 439.233 235.767 439.46 234.688C439.699 233.608 439.881 232.443 440.006 231.193C440.142 229.932 440.261 228.659 440.364 227.375L441.045 218.818H461.125V239.239H465.182V252.67H458.261V245H442.256V252.67H435.165ZM444.403 239.239H454.273V224.409H447.216L446.943 227.375C446.75 230.17 446.472 232.545 446.108 234.5C445.744 236.443 445.176 238.023 444.403 239.239ZM467.879 245L467.845 239.239H468.714C469.328 239.239 469.857 239.091 470.3 238.795C470.754 238.489 471.129 237.994 471.425 237.312C471.72 236.631 471.953 235.727 472.124 234.602C472.294 233.466 472.408 232.068 472.464 230.409L472.891 218.818H492.8V245H485.879V224.528H479.419L479.01 232.523C478.908 234.716 478.641 236.602 478.209 238.182C477.788 239.761 477.203 241.057 476.453 242.068C475.703 243.068 474.8 243.807 473.743 244.284C472.686 244.761 471.459 245 470.061 245H467.879ZM510.259 245.511C507.611 245.511 505.321 244.949 503.389 243.824C501.469 242.687 499.986 241.108 498.94 239.085C497.895 237.051 497.372 234.693 497.372 232.011C497.372 229.307 497.895 226.943 498.94 224.92C499.986 222.886 501.469 221.307 503.389 220.182C505.321 219.045 507.611 218.477 510.259 218.477C512.906 218.477 515.19 219.045 517.111 220.182C519.043 221.307 520.531 222.886 521.577 224.92C522.622 226.943 523.145 229.307 523.145 232.011C523.145 234.693 522.622 237.051 521.577 239.085C520.531 241.108 519.043 242.687 517.111 243.824C515.19 244.949 512.906 245.511 510.259 245.511ZM510.293 239.886C511.497 239.886 512.503 239.545 513.31 238.864C514.116 238.17 514.724 237.227 515.134 236.034C515.554 234.841 515.764 233.483 515.764 231.96C515.764 230.438 515.554 229.08 515.134 227.886C514.724 226.693 514.116 225.75 513.31 225.057C512.503 224.364 511.497 224.017 510.293 224.017C509.077 224.017 508.054 224.364 507.224 225.057C506.406 225.75 505.787 226.693 505.366 227.886C504.957 229.08 504.753 230.438 504.753 231.96C504.753 233.483 504.957 234.841 505.366 236.034C505.787 237.227 506.406 238.17 507.224 238.864C508.054 239.545 509.077 239.886 510.293 239.886ZM525.224 245L534.378 231.381L525.276 218.818H533.56L540.361 229.062H541.486V218.818H548.747V229.062H549.838L556.639 218.818H564.923L555.838 231.381L564.974 245H556.503L549.77 234.773H548.747V245H541.486V234.773H540.463L533.696 245H525.224ZM580.064 245.511C577.371 245.511 575.053 244.966 573.109 243.875C571.178 242.773 569.689 241.216 568.643 239.205C567.598 237.182 567.075 234.79 567.075 232.028C567.075 229.335 567.598 226.972 568.643 224.938C569.689 222.903 571.161 221.318 573.058 220.182C574.967 219.045 577.206 218.477 579.774 218.477C581.501 218.477 583.109 218.756 584.598 219.312C586.098 219.858 587.405 220.682 588.518 221.784C589.643 222.886 590.518 224.273 591.143 225.943C591.768 227.602 592.081 229.545 592.081 231.773V233.767H569.973V229.267H585.246C585.246 228.222 585.018 227.295 584.564 226.489C584.109 225.682 583.479 225.051 582.672 224.597C581.876 224.131 580.95 223.898 579.893 223.898C578.791 223.898 577.814 224.153 576.962 224.665C576.121 225.165 575.462 225.841 574.984 226.693C574.507 227.534 574.263 228.472 574.251 229.506V233.784C574.251 235.08 574.49 236.199 574.967 237.142C575.456 238.085 576.143 238.812 577.03 239.324C577.916 239.835 578.967 240.091 580.183 240.091C580.99 240.091 581.729 239.977 582.399 239.75C583.07 239.523 583.643 239.182 584.121 238.727C584.598 238.273 584.962 237.716 585.212 237.057L591.928 237.5C591.587 239.114 590.888 240.523 589.831 241.727C588.786 242.92 587.433 243.852 585.774 244.523C584.126 245.182 582.223 245.511 580.064 245.511ZM615.041 229.011V234.722H601.371V229.011H615.041ZM603.757 218.818V245H596.82V218.818H603.757ZM619.592 218.818V245H612.706V218.818H619.592ZM632.163 235.42L641.589 218.818H648.749V245H641.828V228.347L632.436 245H625.226V218.818H632.163V235.42ZM669.911 245V224.511H665.001C663.672 224.511 662.661 224.818 661.967 225.432C661.274 226.045 660.933 226.773 660.945 227.614C660.933 228.466 661.263 229.187 661.933 229.778C662.615 230.358 663.615 230.648 664.933 230.648H672.331V235.557H664.933C662.695 235.557 660.757 235.216 659.121 234.534C657.484 233.852 656.223 232.903 655.337 231.688C654.45 230.46 654.013 229.034 654.024 227.409C654.013 225.705 654.45 224.21 655.337 222.926C656.223 221.631 657.49 220.625 659.138 219.909C660.797 219.182 662.751 218.818 665.001 218.818H676.678V245H669.911ZM653.274 245L660.553 231.364H667.49L660.229 245H653.274ZM700.366 235.42L709.793 218.818H716.952V245H710.031V228.347L700.639 245H693.429V218.818H700.366V235.42ZM756.774 218.818V239.989H760.95V253.42H753.893V245H733.882V218.818H740.82V239.29H749.922V218.818H756.774ZM777.08 245.511C774.386 245.511 772.068 244.966 770.125 243.875C768.193 242.773 766.705 241.216 765.659 239.205C764.614 237.182 764.091 234.79 764.091 232.028C764.091 229.335 764.614 226.972 765.659 224.938C766.705 222.903 768.176 221.318 770.074 220.182C771.983 219.045 774.222 218.477 776.79 218.477C778.517 218.477 780.125 218.756 781.614 219.312C783.114 219.858 784.42 220.682 785.534 221.784C786.659 222.886 787.534 224.273 788.159 225.943C788.784 227.602 789.097 229.545 789.097 231.773V233.767H766.989V229.267H782.261C782.261 228.222 782.034 227.295 781.58 226.489C781.125 225.682 780.494 225.051 779.688 224.597C778.892 224.131 777.966 223.898 776.909 223.898C775.807 223.898 774.83 224.153 773.977 224.665C773.136 225.165 772.477 225.841 772 226.693C771.523 227.534 771.278 228.472 771.267 229.506V233.784C771.267 235.08 771.506 236.199 771.983 237.142C772.472 238.085 773.159 238.812 774.045 239.324C774.932 239.835 775.983 240.091 777.199 240.091C778.006 240.091 778.744 239.977 779.415 239.75C780.085 239.523 780.659 239.182 781.136 238.727C781.614 238.273 781.977 237.716 782.227 237.057L788.943 237.5C788.602 239.114 787.903 240.523 786.847 241.727C785.801 242.92 784.449 243.852 782.79 244.523C781.142 245.182 779.239 245.511 777.08 245.511ZM812.057 229.011V234.722H798.386V229.011H812.057ZM800.773 218.818V245H793.835V218.818H800.773ZM816.608 218.818V245H809.722V218.818H816.608ZM826.793 226.864H834.616C838.082 226.864 840.787 227.693 842.73 229.352C844.673 231 845.645 233.205 845.645 235.966C845.645 237.761 845.207 239.341 844.332 240.705C843.457 242.057 842.196 243.114 840.548 243.875C838.901 244.625 836.923 245 834.616 245H822.241V218.818H829.179V239.29H834.616C835.832 239.29 836.832 238.983 837.616 238.369C838.401 237.756 838.798 236.972 838.81 236.017C838.798 235.006 838.401 234.182 837.616 233.545C836.832 232.898 835.832 232.574 834.616 232.574H826.793V226.864ZM848.457 245V218.818H855.719V245H848.457Z" fill="#FCFEFB"/>
</svg>
