<svg width="945" height="456" fill="none" xmlns="http://www.w3.org/2000/svg"><rect width="945" height="456" rx="60" fill="#4BAA00"/><path d="M84.034 245v-34.909H107.2v6.085H91.415v6.818h5.676c2.761 0 5.142.449 7.142 1.347 2.011.886 3.562 2.142 4.653 3.767 1.091 1.625 1.637 3.54 1.637 5.744 0 2.193-.546 4.131-1.637 5.813-1.091 1.67-2.642 2.977-4.653 3.92-2 .943-4.38 1.415-7.142 1.415H84.034zm7.38-5.932h5.677c1.318 0 2.432-.238 3.341-.716.909-.488 1.596-1.13 2.062-1.926a5.088 5.088 0 00.716-2.642c0-1.386-.528-2.557-1.585-3.511-1.045-.966-2.557-1.449-4.534-1.449h-5.676v10.244zm35.681 6.443c-2.693 0-5.011-.545-6.954-1.636-1.932-1.102-3.421-2.659-4.466-4.67-1.046-2.023-1.568-4.415-1.568-7.177 0-2.693.522-5.056 1.568-7.09 1.045-2.035 2.517-3.62 4.414-4.756 1.91-1.137 4.148-1.705 6.716-1.705 1.728 0 3.336.279 4.824.835 1.5.546 2.807 1.37 3.921 2.472 1.125 1.102 2 2.489 2.625 4.159.625 1.659.937 3.602.937 5.83v1.994h-22.108v-4.5h15.273c0-1.045-.227-1.972-.682-2.778a4.874 4.874 0 00-1.892-1.892c-.795-.466-1.721-.699-2.778-.699-1.103 0-2.08.255-2.932.767-.841.5-1.5 1.176-1.977 2.028-.478.841-.722 1.779-.733 2.813v4.278c0 1.296.238 2.415.716 3.358a5.242 5.242 0 002.062 2.182c.886.511 1.938.767 3.153.767.807 0 1.546-.114 2.216-.341a4.585 4.585 0 001.722-1.023 4.445 4.445 0 001.091-1.67l6.716.443c-.341 1.614-1.04 3.023-2.097 4.227-1.045 1.193-2.398 2.125-4.057 2.796-1.647.659-3.551.988-5.71.988zm28.585 0c-2.681 0-4.988-.568-6.92-1.704-1.921-1.148-3.398-2.739-4.432-4.773-1.023-2.034-1.534-4.375-1.534-7.023 0-2.681.517-5.034 1.551-7.056 1.046-2.035 2.529-3.62 4.449-4.756 1.92-1.148 4.205-1.722 6.852-1.722 2.284 0 4.284.415 6 1.245 1.716.829 3.074 1.994 4.074 3.494 1 1.5 1.551 3.261 1.654 5.284h-6.853c-.193-1.307-.704-2.358-1.534-3.153-.818-.807-1.892-1.211-3.221-1.211-1.125 0-2.108.307-2.949.921-.83.602-1.478 1.483-1.943 2.642-.466 1.159-.699 2.562-.699 4.21 0 1.671.227 3.091.682 4.261.465 1.171 1.119 2.063 1.96 2.677.841.613 1.824.92 2.949.92.829 0 1.573-.17 2.233-.511a4.323 4.323 0 001.653-1.483c.443-.659.733-1.449.869-2.37h6.853c-.114 2-.66 3.762-1.637 5.285-.966 1.511-2.301 2.693-4.005 3.545-1.705.852-3.722 1.278-6.052 1.278zm16.343-.511v-26.182h22.892V245h-6.938v-20.472h-9.102V245h-6.852zm27.153 0l-.034-5.761h.869c.614 0 1.142-.148 1.586-.444.454-.306.829-.801 1.125-1.483.295-.681.528-1.585.698-2.71.171-1.136.285-2.534.341-4.193l.427-11.591h19.909V245h-6.921v-20.472h-6.46l-.409 7.995c-.102 2.193-.369 4.079-.801 5.659-.421 1.579-1.006 2.875-1.756 3.886-.75 1-1.653 1.739-2.71 2.216-1.057.477-2.284.716-3.682.716h-2.182zm38.016.494c-1.671 0-3.159-.289-4.466-.869-1.307-.591-2.341-1.46-3.102-2.608-.75-1.159-1.125-2.602-1.125-4.329 0-1.455.267-2.677.801-3.665a6.486 6.486 0 012.182-2.387c.92-.602 1.965-1.056 3.136-1.363a23.88 23.88 0 013.716-.648 94.63 94.63 0 003.682-.443c.931-.148 1.608-.364 2.028-.648.42-.284.631-.704.631-1.261v-.103c0-1.079-.341-1.914-1.023-2.505-.67-.591-1.625-.887-2.864-.887-1.306 0-2.346.29-3.119.87-.773.568-1.284 1.284-1.534 2.147l-6.716-.545c.341-1.591 1.011-2.966 2.011-4.125 1-1.17 2.29-2.068 3.87-2.693 1.591-.637 3.432-.955 5.522-.955 1.455 0 2.847.171 4.177.512 1.34.341 2.528.869 3.562 1.585a7.707 7.707 0 012.472 2.761c.602 1.114.903 2.449.903 4.006V245h-6.886v-3.631h-.205a7.38 7.38 0 01-1.687 2.165c-.705.614-1.551 1.097-2.54 1.449-.989.341-2.131.511-3.426.511zm2.079-5.011c1.068 0 2.012-.21 2.83-.631.818-.432 1.46-1.011 1.926-1.738.466-.728.699-1.552.699-2.472v-2.778c-.227.147-.54.284-.938.409-.386.113-.824.221-1.312.324-.489.09-.977.176-1.466.255-.489.068-.932.131-1.33.188-.852.125-1.596.324-2.233.596-.636.273-1.13.642-1.483 1.108-.352.455-.528 1.023-.528 1.705 0 .989.358 1.744 1.074 2.267.727.511 1.648.767 2.761.767zm15.669-15.955v-5.71h23.728v5.71h-8.438V245h-6.92v-20.472h-8.37zm46.351 4.483v5.711h-13.67v-5.711h13.67zm-11.284-10.193V245h-6.937v-26.182h6.937zm15.835 0V245h-6.886v-26.182h6.886zm13.1 26.676c-1.671 0-3.159-.289-4.466-.869-1.307-.591-2.341-1.46-3.102-2.608-.75-1.159-1.125-2.602-1.125-4.329 0-1.455.267-2.677.801-3.665a6.486 6.486 0 012.182-2.387c.92-.602 1.965-1.056 3.136-1.363a23.88 23.88 0 013.716-.648 94.63 94.63 0 003.682-.443c.931-.148 1.608-.364 2.028-.648.42-.284.631-.704.631-1.261v-.103c0-1.079-.341-1.914-1.023-2.505-.67-.591-1.625-.887-2.864-.887-1.306 0-2.346.29-3.119.87-.773.568-1.284 1.284-1.534 2.147l-6.716-.545c.341-1.591 1.011-2.966 2.011-4.125 1-1.17 2.29-2.068 3.87-2.693 1.591-.637 3.432-.955 5.522-.955 1.455 0 2.847.171 4.177.512 1.34.341 2.528.869 3.562 1.585a7.707 7.707 0 012.472 2.761c.602 1.114.903 2.449.903 4.006V245H326.8v-3.631h-.205a7.38 7.38 0 01-1.687 2.165c-.705.614-1.551 1.097-2.54 1.449-.989.341-2.131.511-3.426.511zm2.079-5.011c1.068 0 2.012-.21 2.83-.631.818-.432 1.46-1.011 1.926-1.738.466-.728.699-1.552.699-2.472v-2.778c-.227.147-.54.284-.938.409-.386.113-.824.221-1.312.324-.489.09-.977.176-1.466.255-.489.068-.932.131-1.33.188-.852.125-1.596.324-2.233.596-.636.273-1.13.642-1.483 1.108-.352.455-.528 1.023-.528 1.705 0 .989.358 1.744 1.074 2.267.727.511 1.648.767 2.761.767zm33.64 4.517v-20.489h-4.91c-1.329 0-2.34.307-3.034.921-.693.613-1.034 1.341-1.022 2.182-.012.852.318 1.573.988 2.164.682.58 1.682.87 3 .87h7.398v4.909h-7.398c-2.238 0-4.176-.341-5.812-1.023-1.637-.682-2.898-1.631-3.784-2.846-.887-1.228-1.324-2.654-1.313-4.279-.011-1.704.426-3.199 1.313-4.483.886-1.295 2.153-2.301 3.801-3.017 1.659-.727 3.613-1.091 5.863-1.091h11.677V245h-6.767zm-16.637 0l7.279-13.636h6.937L344.979 245h-6.955zm47.092-9.58l9.427-16.602h7.159V245h-6.921v-16.653L385.389 245h-7.21v-26.182h6.937v16.602zm55.283-26.215l2.216 4.738a7.474 7.474 0 01-2.454 1.364c-.898.284-1.972.471-3.222.562-1.239.091-2.75.154-4.534.188-2.023.023-3.671.346-4.943.971-1.273.625-2.239 1.608-2.898 2.949-.659 1.33-1.091 3.068-1.296 5.216h.256c.784-1.602 1.887-2.841 3.307-3.716 1.432-.875 3.199-1.312 5.301-1.312 2.227 0 4.176.488 5.847 1.466 1.682.977 2.988 2.38 3.92 4.21.932 1.829 1.398 4.023 1.398 6.579 0 2.66-.523 4.972-1.568 6.938-1.034 1.954-2.506 3.472-4.415 4.551-1.909 1.068-4.182 1.602-6.818 1.602-2.648 0-4.932-.556-6.853-1.67-1.909-1.114-3.386-2.756-4.431-4.926-1.034-2.171-1.551-4.841-1.551-8.012v-2.147c0-6.307 1.227-10.983 3.681-14.029 2.455-3.045 6.063-4.591 10.824-4.636 1.296-.023 2.466-.029 3.512-.017 1.045.011 1.96-.04 2.744-.154.795-.113 1.454-.352 1.977-.715zm-9.869 30.681c1.113 0 2.068-.289 2.863-.869.807-.58 1.427-1.409 1.858-2.489.444-1.079.665-2.369.665-3.869 0-1.489-.221-2.75-.665-3.784-.431-1.045-1.051-1.841-1.858-2.386-.806-.546-1.772-.819-2.897-.819-.841 0-1.597.154-2.267.461a4.626 4.626 0 00-1.722 1.363c-.466.591-.829 1.324-1.091 2.199-.25.864-.375 1.852-.375 2.966 0 2.239.483 4.006 1.449 5.301.977 1.284 2.324 1.926 4.04 1.926zm22.138-13.022h7.823c3.466 0 6.171.829 8.114 2.488 1.943 1.648 2.915 3.853 2.915 6.614 0 1.795-.438 3.375-1.313 4.739-.875 1.352-2.136 2.409-3.784 3.17-1.647.75-3.625 1.125-5.932 1.125h-12.375v-26.182h6.938v20.472h5.437c1.216 0 2.216-.307 3-.921.785-.613 1.182-1.397 1.194-2.352-.012-1.011-.409-1.835-1.194-2.472-.784-.647-1.784-.971-3-.971h-7.823v-5.71zM474.332 245v-26.182h7.262V245h-7.262zm24.895.511c-2.682 0-4.988-.568-6.92-1.704-1.921-1.148-3.398-2.739-4.432-4.773-1.023-2.034-1.534-4.375-1.534-7.023 0-2.681.517-5.034 1.551-7.056 1.046-2.035 2.528-3.62 4.449-4.756 1.92-1.148 4.204-1.722 6.852-1.722 2.284 0 4.284.415 6 1.245 1.716.829 3.074 1.994 4.074 3.494 1 1.5 1.551 3.261 1.653 5.284h-6.852c-.193-1.307-.704-2.358-1.534-3.153-.818-.807-1.892-1.211-3.222-1.211-1.124 0-2.107.307-2.948.921-.83.602-1.478 1.483-1.944 2.642-.465 1.159-.698 2.562-.698 4.21 0 1.671.227 3.091.681 4.261.466 1.171 1.12 2.063 1.961 2.677.841.613 1.824.92 2.948.92.83 0 1.574-.17 2.233-.511a4.319 4.319 0 001.654-1.483c.443-.659.733-1.449.869-2.37h6.852c-.113 2-.659 3.762-1.636 5.285-.966 1.511-2.301 2.693-4.006 3.545-1.704.852-3.721 1.278-6.051 1.278zm14.557-20.983v-5.71h23.727v5.71h-8.437V245h-6.921v-20.472h-8.369zm28.129 30.29v-36h7.159v4.398h.324c.318-.705.779-1.421 1.381-2.148.614-.738 1.409-1.352 2.386-1.841.989-.5 2.216-.75 3.682-.75 1.909 0 3.671.5 5.284 1.5 1.614.989 2.904 2.483 3.87 4.483.965 1.989 1.448 4.483 1.448 7.483 0 2.921-.471 5.387-1.414 7.398-.932 2-2.205 3.517-3.819 4.551-1.602 1.023-3.397 1.534-5.386 1.534-1.409 0-2.608-.233-3.596-.699-.978-.466-1.779-1.051-2.404-1.755-.625-.716-1.102-1.438-1.432-2.165h-.221v14.011h-7.262zm7.108-22.909c0 1.557.216 2.915.648 4.074.432 1.159 1.057 2.062 1.875 2.71.818.637 1.813.955 2.983.955 1.182 0 2.182-.324 3-.972.818-.659 1.437-1.568 1.858-2.727.432-1.171.648-2.517.648-4.04 0-1.511-.211-2.841-.631-3.989-.42-1.147-1.04-2.045-1.858-2.693-.818-.647-1.824-.971-3.017-.971-1.182 0-2.182.312-3 .937-.807.625-1.426 1.512-1.858 2.659-.432 1.148-.648 2.5-.648 4.057zm30.733 13.585c-1.67 0-3.159-.289-4.466-.869-1.306-.591-2.341-1.46-3.102-2.608-.75-1.159-1.125-2.602-1.125-4.329 0-1.455.267-2.677.801-3.665a6.495 6.495 0 012.182-2.387c.92-.602 1.966-1.056 3.136-1.363a23.9 23.9 0 013.716-.648 94.63 94.63 0 003.682-.443c.932-.148 1.608-.364 2.029-.648.42-.284.63-.704.63-1.261v-.103c0-1.079-.341-1.914-1.023-2.505-.67-.591-1.625-.887-2.863-.887-1.307 0-2.347.29-3.119.87-.773.568-1.285 1.284-1.535 2.147l-6.715-.545c.34-1.591 1.011-2.966 2.011-4.125 1-1.17 2.29-2.068 3.869-2.693 1.591-.637 3.432-.955 5.523-.955 1.454 0 2.847.171 4.176.512 1.341.341 2.528.869 3.563 1.585a7.704 7.704 0 012.471 2.761c.602 1.114.904 2.449.904 4.006V245h-6.887v-3.631h-.204a7.383 7.383 0 01-1.688 2.165c-.704.614-1.551 1.097-2.54 1.449-.988.341-2.13.511-3.426.511zm2.08-5.011c1.068 0 2.011-.21 2.829-.631.819-.432 1.461-1.011 1.926-1.738.466-.728.699-1.552.699-2.472v-2.778c-.227.147-.539.284-.937.409a17.81 17.81 0 01-1.313.324c-.488.09-.977.176-1.466.255-.488.068-.931.131-1.329.188-.852.125-1.597.324-2.233.596-.636.273-1.131.642-1.483 1.108-.352.455-.528 1.023-.528 1.705 0 .989.358 1.744 1.073 2.267.728.511 1.648.767 2.762.767zM615.473 245v-20.489h-4.909c-1.33 0-2.341.307-3.034.921-.693.613-1.034 1.341-1.023 2.182-.011.852.318 1.573.989 2.164.682.58 1.682.87 3 .87h7.397v4.909h-7.397c-2.239 0-4.176-.341-5.813-1.023-1.636-.682-2.897-1.631-3.784-2.846-.886-1.228-1.324-2.654-1.312-4.279-.012-1.704.426-3.199 1.312-4.483.887-1.295 2.154-2.301 3.801-3.017 1.659-.727 3.614-1.091 5.864-1.091h11.676V245h-6.767zm-16.636 0l7.278-13.636h6.938L605.791 245h-6.954zm38.109 7.67v-13.431h2.011c.58-.364 1.046-.944 1.398-1.739.364-.795.659-1.733.886-2.812a30.03 30.03 0 00.546-3.495c.136-1.261.256-2.534.358-3.818l.682-8.557h20.079v20.421h4.057v13.431h-6.92V245h-16.006v7.67h-7.091zm9.239-13.431h9.869v-14.83h-7.057l-.273 2.966c-.193 2.795-.471 5.17-.835 7.125-.363 1.943-.932 3.523-1.704 4.739zm36.839 6.272c-2.648 0-4.937-.562-6.869-1.687-1.921-1.137-3.404-2.716-4.449-4.739-1.045-2.034-1.568-4.392-1.568-7.074 0-2.704.523-5.068 1.568-7.091 1.045-2.034 2.528-3.613 4.449-4.738 1.932-1.137 4.221-1.705 6.869-1.705 2.648 0 4.932.568 6.852 1.705 1.932 1.125 3.421 2.704 4.466 4.738 1.046 2.023 1.569 4.387 1.569 7.091 0 2.682-.523 5.04-1.569 7.074-1.045 2.023-2.534 3.602-4.466 4.739-1.92 1.125-4.204 1.687-6.852 1.687zm.034-5.625c1.205 0 2.21-.341 3.017-1.022.807-.694 1.415-1.637 1.824-2.83.421-1.193.631-2.551.631-4.074 0-1.522-.21-2.88-.631-4.074-.409-1.193-1.017-2.136-1.824-2.829-.807-.693-1.812-1.04-3.017-1.04-1.216 0-2.238.347-3.068 1.04-.818.693-1.437 1.636-1.858 2.829-.409 1.194-.614 2.552-.614 4.074 0 1.523.205 2.881.614 4.074.421 1.193 1.04 2.136 1.858 2.83.83.681 1.852 1.022 3.068 1.022zm29.404 5.625c-2.682 0-4.989-.568-6.921-1.704-1.92-1.148-3.398-2.739-4.432-4.773-1.022-2.034-1.534-4.375-1.534-7.023 0-2.681.517-5.034 1.551-7.056 1.046-2.035 2.529-3.62 4.449-4.756 1.921-1.148 4.205-1.722 6.853-1.722 2.284 0 4.284.415 6 1.245 1.715.829 3.073 1.994 4.073 3.494 1 1.5 1.552 3.261 1.654 5.284h-6.852c-.194-1.307-.705-2.358-1.535-3.153-.818-.807-1.892-1.211-3.221-1.211-1.125 0-2.108.307-2.949.921-.83.602-1.477 1.483-1.943 2.642-.466 1.159-.699 2.562-.699 4.21 0 1.671.227 3.091.682 4.261.466 1.171 1.119 2.063 1.96 2.677.841.613 1.824.92 2.949.92.829 0 1.574-.17 2.233-.511a4.323 4.323 0 001.653-1.483c.443-.659.733-1.449.87-2.37h6.852c-.114 2-.659 3.762-1.637 5.285-.965 1.511-2.301 2.693-4.005 3.545-1.705.852-3.722 1.278-6.051 1.278zm14.556-20.983v-5.71h23.728v5.71h-8.438V245h-6.92v-20.472h-8.37zm34.658 20.966c-1.67 0-3.159-.289-4.466-.869-1.307-.591-2.341-1.46-3.102-2.608-.75-1.159-1.125-2.602-1.125-4.329 0-1.455.267-2.677.801-3.665a6.486 6.486 0 012.182-2.387c.92-.602 1.966-1.056 3.136-1.363a23.9 23.9 0 013.716-.648 94.63 94.63 0 003.682-.443c.932-.148 1.608-.364 2.028-.648.421-.284.631-.704.631-1.261v-.103c0-1.079-.341-1.914-1.023-2.505-.67-.591-1.625-.887-2.863-.887-1.307 0-2.347.29-3.12.87-.772.568-1.284 1.284-1.534 2.147l-6.716-.545c.341-1.591 1.012-2.966 2.012-4.125 1-1.17 2.29-2.068 3.869-2.693 1.591-.637 3.432-.955 5.523-.955 1.454 0 2.846.171 4.176.512 1.341.341 2.528.869 3.562 1.585a7.697 7.697 0 012.472 2.761c.602 1.114.903 2.449.903 4.006V245h-6.886v-3.631h-.204a7.383 7.383 0 01-1.688 2.165c-.704.614-1.551 1.097-2.54 1.449-.988.341-2.13.511-3.426.511zm2.08-5.011c1.068 0 2.011-.21 2.829-.631.818-.432 1.46-1.011 1.926-1.738.466-.728.699-1.552.699-2.472v-2.778c-.227.147-.54.284-.937.409a17.81 17.81 0 01-1.313.324c-.488.09-.977.176-1.466.255-.488.068-.932.131-1.329.188-.852.125-1.597.324-2.233.596-.637.273-1.131.642-1.483 1.108-.352.455-.529 1.023-.529 1.705 0 .989.358 1.744 1.074 2.267.728.511 1.648.767 2.762.767zM782.054 245v-26.182h11.165c3.227 0 5.778.614 7.653 1.841 1.875 1.227 2.813 2.972 2.813 5.233 0 1.42-.529 2.602-1.586 3.546-1.056.943-2.522 1.579-4.397 1.909 1.568.113 2.903.471 4.005 1.073 1.114.591 1.961 1.358 2.54 2.302.591.943.887 1.988.887 3.136 0 1.489-.398 2.767-1.194 3.835-.784 1.068-1.937 1.887-3.46 2.455-1.511.568-3.358.852-5.54.852h-12.886zm6.767-5.438h6.119c1.012 0 1.801-.238 2.37-.715.579-.489.869-1.154.869-1.995 0-.932-.29-1.665-.869-2.199-.569-.534-1.358-.801-2.37-.801h-6.119v5.71zm0-9.971h4.551c.727 0 1.347-.102 1.858-.307.523-.216.921-.523 1.193-.92.284-.398.426-.87.426-1.415 0-.807-.323-1.438-.971-1.892-.648-.455-1.534-.682-2.659-.682h-4.398v5.216zM809.71 245v-26.182h7.262v10.159h2.045l7.125-10.159h8.523l-9.256 12.989L834.767 245h-8.625l-6.46-9.29h-2.71V245h-7.262zm35.591.494c-1.67 0-3.159-.289-4.466-.869-1.307-.591-2.341-1.46-3.102-2.608-.75-1.159-1.125-2.602-1.125-4.329 0-1.455.267-2.677.801-3.665a6.486 6.486 0 012.182-2.387c.92-.602 1.966-1.056 3.136-1.363a23.9 23.9 0 013.716-.648 94.63 94.63 0 003.682-.443c.932-.148 1.608-.364 2.028-.648.421-.284.631-.704.631-1.261v-.103c0-1.079-.341-1.914-1.023-2.505-.67-.591-1.625-.887-2.863-.887-1.307 0-2.347.29-3.12.87-.772.568-1.284 1.284-1.534 2.147l-6.716-.545c.341-1.591 1.012-2.966 2.012-4.125 1-1.17 2.29-2.068 3.869-2.693 1.591-.637 3.432-.955 5.523-.955 1.454 0 2.846.171 4.176.512 1.341.341 2.528.869 3.562 1.585a7.697 7.697 0 012.472 2.761c.602 1.114.903 2.449.903 4.006V245h-6.886v-3.631h-.204a7.383 7.383 0 01-1.688 2.165c-.705.614-1.551 1.097-2.54 1.449-.988.341-2.13.511-3.426.511zm2.08-5.011c1.068 0 2.011-.21 2.829-.631.818-.432 1.46-1.011 1.926-1.738.466-.728.699-1.552.699-2.472v-2.778c-.227.147-.54.284-.937.409a17.81 17.81 0 01-1.313.324c-.488.09-.977.176-1.466.255-.488.068-.931.131-1.329.188-.852.125-1.597.324-2.233.596-.637.273-1.131.642-1.483 1.108-.352.455-.529 1.023-.529 1.705 0 .989.358 1.744 1.074 2.267.728.511 1.648.767 2.762.767z" fill="#fff"/></svg>