<svg width="945" height="456" fill="none" xmlns="http://www.w3.org/2000/svg"><rect width="945" height="456" rx="60" fill="#4BAA00"/><path d="M88.034 245v-34.909h13.977c2.569 0 4.711.381 6.427 1.142 1.715.761 3.005 1.818 3.869 3.17.863 1.341 1.295 2.887 1.295 4.637 0 1.363-.272 2.562-.818 3.596a7.05 7.05 0 01-2.25 2.523c-.943.648-2.023 1.108-3.239 1.381v.341a7.799 7.799 0 013.733 1.125c1.171.693 2.12 1.664 2.847 2.914.727 1.239 1.091 2.716 1.091 4.432 0 1.853-.46 3.506-1.381 4.96-.909 1.444-2.255 2.586-4.04 3.427-1.784.841-3.982 1.261-6.596 1.261H88.034zm7.38-6.034h6.018c2.057 0 3.557-.392 4.5-1.176.943-.796 1.415-1.853 1.415-3.171 0-.966-.233-1.818-.699-2.557-.466-.738-1.131-1.318-1.995-1.738-.852-.421-1.869-.631-3.051-.631h-6.187v9.273zm0-14.267h5.472c1.012 0 1.909-.176 2.694-.529.795-.363 1.42-.875 1.875-1.534.465-.659.698-1.448.698-2.369 0-1.261-.448-2.278-1.346-3.051-.887-.773-2.148-1.159-3.784-1.159h-5.608v8.642zm28.769 2.165h7.824c3.466 0 6.171.829 8.114 2.488 1.943 1.648 2.915 3.853 2.915 6.614 0 1.795-.438 3.375-1.313 4.739-.875 1.352-2.136 2.409-3.784 3.17-1.648.75-3.625 1.125-5.932 1.125h-12.375v-26.182h6.938v20.472h5.437c1.216 0 2.216-.307 3-.921.784-.613 1.182-1.397 1.193-2.352-.011-1.011-.409-1.835-1.193-2.472-.784-.647-1.784-.971-3-.971h-7.824v-5.71zM145.848 245v-26.182h7.261V245h-7.261zm30.997-26.182v5.71H165.97V245h-7.057v-26.182h17.932zm15.32 26.693c-2.648 0-4.938-.562-6.87-1.687-1.92-1.137-3.403-2.716-4.448-4.739-1.046-2.034-1.569-4.392-1.569-7.074 0-2.704.523-5.068 1.569-7.091 1.045-2.034 2.528-3.613 4.448-4.738 1.932-1.137 4.222-1.705 6.87-1.705 2.647 0 4.932.568 6.852 1.705 1.932 1.125 3.421 2.704 4.466 4.738 1.045 2.023 1.568 4.387 1.568 7.091 0 2.682-.523 5.04-1.568 7.074-1.045 2.023-2.534 3.602-4.466 4.739-1.92 1.125-4.205 1.687-6.852 1.687zm.034-5.625c1.204 0 2.21-.341 3.017-1.022.807-.694 1.415-1.637 1.824-2.83.42-1.193.63-2.551.63-4.074 0-1.522-.21-2.88-.63-4.074-.409-1.193-1.017-2.136-1.824-2.829-.807-.693-1.813-1.04-3.017-1.04-1.216 0-2.239.347-3.068 1.04-.818.693-1.438 1.636-1.858 2.829-.409 1.194-.614 2.552-.614 4.074 0 1.523.205 2.881.614 4.074.42 1.193 1.04 2.136 1.858 2.83.829.681 1.852 1.022 3.068 1.022zm15.528 12.784v-13.431h2.012c.579-.364 1.045-.944 1.397-1.739.364-.795.659-1.733.887-2.812.238-1.08.42-2.245.545-3.495.137-1.261.256-2.534.358-3.818l.682-8.557h20.08v20.421h4.056v13.431h-6.92V245h-16.006v7.67h-7.091zm9.239-13.431h9.869v-14.83h-7.057l-.272 2.966c-.193 2.795-.472 5.17-.836 7.125-.363 1.943-.931 3.523-1.704 4.739zm43.231-10.228v5.711h-13.67v-5.711h13.67zm-11.284-10.193V245h-6.937v-26.182h6.937zm15.836 0V245h-6.887v-26.182h6.887zm10.184 8.046h7.824c3.466 0 6.171.829 8.114 2.488 1.943 1.648 2.915 3.853 2.915 6.614 0 1.795-.438 3.375-1.313 4.739-.875 1.352-2.136 2.409-3.784 3.17-1.648.75-3.625 1.125-5.932 1.125h-12.375v-26.182h6.938v20.472h5.437c1.216 0 2.216-.307 3-.921.784-.613 1.182-1.397 1.193-2.352-.011-1.011-.409-1.835-1.193-2.472-.784-.647-1.784-.971-3-.971h-7.824v-5.71zM296.598 245v-26.182h7.261V245h-7.261zm24.997.511c-2.693 0-5.011-.545-6.954-1.636-1.932-1.102-3.421-2.659-4.466-4.67-1.046-2.023-1.568-4.415-1.568-7.177 0-2.693.522-5.056 1.568-7.09 1.045-2.035 2.517-3.62 4.414-4.756 1.91-1.137 4.148-1.705 6.716-1.705 1.728 0 3.336.279 4.824.835 1.5.546 2.807 1.37 3.921 2.472 1.125 1.102 2 2.489 2.625 4.159.625 1.659.937 3.602.937 5.83v1.994h-22.108v-4.5h15.273c0-1.045-.227-1.972-.682-2.778a4.874 4.874 0 00-1.892-1.892c-.795-.466-1.721-.699-2.778-.699-1.103 0-2.08.255-2.932.767-.841.5-1.5 1.176-1.977 2.028-.478.841-.722 1.779-.733 2.813v4.278c0 1.296.238 2.415.716 3.358a5.242 5.242 0 002.062 2.182c.886.511 1.938.767 3.153.767.807 0 1.546-.114 2.216-.341a4.585 4.585 0 001.722-1.023 4.445 4.445 0 001.091-1.67l6.716.443c-.341 1.614-1.04 3.023-2.097 4.227-1.045 1.193-2.398 2.125-4.057 2.796-1.647.659-3.551.988-5.71.988zM349.46 245v-26.182h22.892V245h-6.937v-20.472h-9.103V245h-6.852zm28.688 9.818v-36h7.159v4.398h.324c.318-.705.778-1.421 1.38-2.148.614-.738 1.409-1.352 2.387-1.841.988-.5 2.216-.75 3.682-.75 1.909 0 3.67.5 5.284 1.5 1.613.989 2.903 2.483 3.869 4.483.966 1.989 1.449 4.483 1.449 7.483 0 2.921-.472 5.387-1.415 7.398-.932 2-2.204 3.517-3.818 4.551-1.602 1.023-3.398 1.534-5.387 1.534-1.409 0-2.607-.233-3.596-.699-.977-.466-1.778-1.051-2.404-1.755-.624-.716-1.102-1.438-1.431-2.165h-.222v14.011h-7.261zm7.108-22.909c0 1.557.216 2.915.647 4.074.432 1.159 1.057 2.062 1.875 2.71.819.637 1.813.955 2.983.955 1.182 0 2.182-.324 3-.972.819-.659 1.438-1.568 1.858-2.727.432-1.171.648-2.517.648-4.04 0-1.511-.21-2.841-.631-3.989-.42-1.147-1.039-2.045-1.858-2.693-.818-.647-1.823-.971-3.017-.971-1.181 0-2.181.312-3 .937-.806.625-1.426 1.512-1.858 2.659-.431 1.148-.647 2.5-.647 4.057zm35.199 13.602c-2.694 0-5.012-.545-6.955-1.636-1.932-1.102-3.42-2.659-4.466-4.67-1.045-2.023-1.568-4.415-1.568-7.177 0-2.693.523-5.056 1.568-7.09 1.046-2.035 2.517-3.62 4.415-4.756 1.909-1.137 4.148-1.705 6.716-1.705 1.727 0 3.335.279 4.824.835 1.5.546 2.806 1.37 3.92 2.472 1.125 1.102 2 2.489 2.625 4.159.625 1.659.938 3.602.938 5.83v1.994h-22.108v-4.5h15.272c0-1.045-.227-1.972-.681-2.778a4.883 4.883 0 00-1.893-1.892c-.795-.466-1.721-.699-2.778-.699-1.102 0-2.079.255-2.932.767-.841.5-1.5 1.176-1.977 2.028-.477.841-.722 1.779-.733 2.813v4.278c0 1.296.239 2.415.716 3.358.489.943 1.176 1.67 2.062 2.182.887.511 1.938.767 3.154.767.807 0 1.545-.114 2.216-.341a4.589 4.589 0 001.721-1.023 4.433 4.433 0 001.091-1.67l6.716.443c-.341 1.614-1.04 3.023-2.096 4.227-1.046 1.193-2.398 2.125-4.057 2.796-1.648.659-3.551.988-5.71.988zm14.71 7.159v-13.431h2.011c.58-.364 1.046-.944 1.398-1.739.364-.795.659-1.733.886-2.812a30.03 30.03 0 00.546-3.495c.136-1.261.255-2.534.358-3.818l.681-8.557h20.08v20.421h4.057v13.431h-6.921V245h-16.005v7.67h-7.091zm9.238-13.431h9.87v-14.83h-7.057l-.273 2.966c-.193 2.795-.471 5.17-.835 7.125-.364 1.943-.932 3.523-1.705 4.739zM467.879 245l-.034-5.761h.869c.614 0 1.143-.148 1.586-.444.454-.306.829-.801 1.125-1.483.295-.681.528-1.585.699-2.71.17-1.136.284-2.534.34-4.193l.427-11.591H492.8V245h-6.921v-20.472h-6.46l-.409 7.995c-.102 2.193-.369 4.079-.801 5.659-.421 1.579-1.006 2.875-1.756 3.886-.75 1-1.653 1.739-2.71 2.216-1.057.477-2.284.716-3.682.716h-2.182zm42.38.511c-2.648 0-4.938-.562-6.87-1.687-1.92-1.137-3.403-2.716-4.449-4.739-1.045-2.034-1.568-4.392-1.568-7.074 0-2.704.523-5.068 1.568-7.091 1.046-2.034 2.529-3.613 4.449-4.738 1.932-1.137 4.222-1.705 6.87-1.705 2.647 0 4.931.568 6.852 1.705 1.932 1.125 3.42 2.704 4.466 4.738 1.045 2.023 1.568 4.387 1.568 7.091 0 2.682-.523 5.04-1.568 7.074-1.046 2.023-2.534 3.602-4.466 4.739-1.921 1.125-4.205 1.687-6.852 1.687zm.034-5.625c1.204 0 2.21-.341 3.017-1.022.806-.694 1.414-1.637 1.824-2.83.42-1.193.63-2.551.63-4.074 0-1.522-.21-2.88-.63-4.074-.41-1.193-1.018-2.136-1.824-2.829-.807-.693-1.813-1.04-3.017-1.04-1.216 0-2.239.347-3.069 1.04-.818.693-1.437 1.636-1.858 2.829-.409 1.194-.613 2.552-.613 4.074 0 1.523.204 2.881.613 4.074.421 1.193 1.04 2.136 1.858 2.83.83.681 1.853 1.022 3.069 1.022zM525.224 245l9.154-13.619-9.102-12.563h8.284l6.801 10.244h1.125v-10.244h7.261v10.244h1.091l6.801-10.244h8.284l-9.085 12.563L564.974 245h-8.471l-6.733-10.227h-1.023V245h-7.261v-10.227h-1.023L533.696 245h-8.472zm54.84.511c-2.693 0-5.011-.545-6.955-1.636-1.931-1.102-3.42-2.659-4.466-4.67-1.045-2.023-1.568-4.415-1.568-7.177 0-2.693.523-5.056 1.568-7.09 1.046-2.035 2.518-3.62 4.415-4.756 1.909-1.137 4.148-1.705 6.716-1.705 1.727 0 3.335.279 4.824.835 1.5.546 2.807 1.37 3.92 2.472 1.125 1.102 2 2.489 2.625 4.159.625 1.659.938 3.602.938 5.83v1.994h-22.108v-4.5h15.273c0-1.045-.228-1.972-.682-2.778a4.88 4.88 0 00-1.892-1.892c-.796-.466-1.722-.699-2.779-.699-1.102 0-2.079.255-2.931.767-.841.5-1.5 1.176-1.978 2.028-.477.841-.721 1.779-.733 2.813v4.278c0 1.296.239 2.415.716 3.358.489.943 1.176 1.67 2.063 2.182.886.511 1.937.767 3.153.767.807 0 1.546-.114 2.216-.341a4.593 4.593 0 001.722-1.023 4.445 4.445 0 001.091-1.67l6.716.443c-.341 1.614-1.04 3.023-2.097 4.227-1.045 1.193-2.398 2.125-4.057 2.796-1.648.659-3.551.988-5.71.988zm34.977-16.5v5.711h-13.67v-5.711h13.67zm-11.284-10.193V245h-6.937v-26.182h6.937zm15.835 0V245h-6.886v-26.182h6.886zm12.571 16.602l9.426-16.602h7.16V245h-6.921v-16.653L632.436 245h-7.21v-26.182h6.937v16.602zm37.748 9.58v-20.489h-4.91c-1.329 0-2.34.307-3.034.921-.693.613-1.034 1.341-1.022 2.182-.012.852.318 1.573.988 2.164.682.58 1.682.87 3 .87h7.398v4.909h-7.398c-2.238 0-4.176-.341-5.812-1.023-1.637-.682-2.898-1.631-3.784-2.846-.887-1.228-1.324-2.654-1.313-4.279-.011-1.704.426-3.199 1.313-4.483.886-1.295 2.153-2.301 3.801-3.017 1.659-.727 3.613-1.091 5.863-1.091h11.677V245h-6.767zm-16.637 0l7.279-13.636h6.937L660.229 245h-6.955zm47.092-9.58l9.427-16.602h7.159V245h-6.921v-16.653L700.639 245h-7.21v-26.182h6.937v16.602zm56.408-16.602v21.171h4.176v13.431h-7.057V245h-20.011v-26.182h6.938v20.472h9.102v-20.472h6.852zm20.306 26.693c-2.694 0-5.012-.545-6.955-1.636-1.932-1.102-3.42-2.659-4.466-4.67-1.045-2.023-1.568-4.415-1.568-7.177 0-2.693.523-5.056 1.568-7.09 1.046-2.035 2.517-3.62 4.415-4.756 1.909-1.137 4.148-1.705 6.716-1.705 1.727 0 3.335.279 4.824.835 1.5.546 2.806 1.37 3.92 2.472 1.125 1.102 2 2.489 2.625 4.159.625 1.659.938 3.602.938 5.83v1.994h-22.108v-4.5h15.272c0-1.045-.227-1.972-.681-2.778a4.887 4.887 0 00-1.892-1.892c-.796-.466-1.722-.699-2.779-.699-1.102 0-2.079.255-2.932.767-.841.5-1.5 1.176-1.977 2.028-.477.841-.722 1.779-.733 2.813v4.278c0 1.296.239 2.415.716 3.358.489.943 1.176 1.67 2.062 2.182.887.511 1.938.767 3.154.767.807 0 1.545-.114 2.216-.341a4.589 4.589 0 001.721-1.023 4.433 4.433 0 001.091-1.67l6.716.443c-.341 1.614-1.04 3.023-2.096 4.227-1.046 1.193-2.398 2.125-4.057 2.796-1.648.659-3.551.988-5.71.988zm34.977-16.5v5.711h-13.671v-5.711h13.671zm-11.284-10.193V245h-6.938v-26.182h6.938zm15.835 0V245h-6.886v-26.182h6.886zm10.185 8.046h7.823c3.466 0 6.171.829 8.114 2.488 1.943 1.648 2.915 3.853 2.915 6.614 0 1.795-.438 3.375-1.313 4.739-.875 1.352-2.136 2.409-3.784 3.17-1.647.75-3.625 1.125-5.932 1.125h-12.375v-26.182h6.938v20.472h5.437c1.216 0 2.216-.307 3-.921.785-.613 1.182-1.397 1.194-2.352-.012-1.011-.409-1.835-1.194-2.472-.784-.647-1.784-.971-3-.971h-7.823v-5.71zM848.457 245v-26.182h7.262V245h-7.262z" fill="#FCFEFB"/></svg>