<svg width="945" height="456" viewBox="0 0 945 456" fill="none" xmlns="http://www.w3.org/2000/svg">
<rect width="945" height="456" rx="60" fill="#4BAA00"/>
<path d="M184.142 253.42V239.119H186.511C187.318 238.54 188.057 237.722 188.727 236.665C189.398 235.597 189.972 234.125 190.449 232.25C190.926 230.364 191.267 227.898 191.472 224.852L192.46 210.091H215.557V239.119H219.375V253.386H212.284V245H191.233V253.42H184.142ZM195.034 239.119H208.466V216.176H199.108L198.562 224.852C198.415 227.159 198.17 229.205 197.83 230.989C197.5 232.773 197.097 234.335 196.619 235.676C196.153 237.006 195.625 238.153 195.034 239.119ZM235.555 245.511C232.908 245.511 230.618 244.949 228.686 243.824C226.766 242.687 225.283 241.108 224.237 239.085C223.192 237.051 222.669 234.693 222.669 232.011C222.669 229.307 223.192 226.943 224.237 224.92C225.283 222.886 226.766 221.307 228.686 220.182C230.618 219.045 232.908 218.477 235.555 218.477C238.203 218.477 240.487 219.045 242.408 220.182C244.339 221.307 245.828 222.886 246.874 224.92C247.919 226.943 248.442 229.307 248.442 232.011C248.442 234.693 247.919 237.051 246.874 239.085C245.828 241.108 244.339 242.687 242.408 243.824C240.487 244.949 238.203 245.511 235.555 245.511ZM235.589 239.886C236.794 239.886 237.8 239.545 238.607 238.864C239.413 238.17 240.021 237.227 240.43 236.034C240.851 234.841 241.061 233.483 241.061 231.96C241.061 230.438 240.851 229.08 240.43 227.886C240.021 226.693 239.413 225.75 238.607 225.057C237.8 224.364 236.794 224.017 235.589 224.017C234.374 224.017 233.351 224.364 232.521 225.057C231.703 225.75 231.084 226.693 230.663 227.886C230.254 229.08 230.05 230.438 230.05 231.96C230.05 233.483 230.254 234.841 230.663 236.034C231.084 237.227 231.703 238.17 232.521 238.864C233.351 239.545 234.374 239.886 235.589 239.886ZM251.629 245L251.595 239.239H252.464C253.078 239.239 253.607 239.091 254.05 238.795C254.504 238.489 254.879 237.994 255.175 237.312C255.47 236.631 255.703 235.727 255.874 234.602C256.044 233.466 256.158 232.068 256.214 230.409L256.641 218.818H276.55V245H269.629V224.528H263.169L262.76 232.523C262.658 234.716 262.391 236.602 261.959 238.182C261.538 239.761 260.953 241.057 260.203 242.068C259.453 243.068 258.55 243.807 257.493 244.284C256.436 244.761 255.209 245 253.811 245H251.629ZM300.111 218.818V224.528H289.236V245H282.179V218.818H300.111ZM315.43 245.511C312.783 245.511 310.493 244.949 308.561 243.824C306.641 242.687 305.158 241.108 304.112 239.085C303.067 237.051 302.544 234.693 302.544 232.011C302.544 229.307 303.067 226.943 304.112 224.92C305.158 222.886 306.641 221.307 308.561 220.182C310.493 219.045 312.783 218.477 315.43 218.477C318.078 218.477 320.362 219.045 322.283 220.182C324.214 221.307 325.703 222.886 326.749 224.92C327.794 226.943 328.317 229.307 328.317 232.011C328.317 234.693 327.794 237.051 326.749 239.085C325.703 241.108 324.214 242.687 322.283 243.824C320.362 244.949 318.078 245.511 315.43 245.511ZM315.464 239.886C316.669 239.886 317.675 239.545 318.482 238.864C319.288 238.17 319.896 237.227 320.305 236.034C320.726 234.841 320.936 233.483 320.936 231.96C320.936 230.438 320.726 229.08 320.305 227.886C319.896 226.693 319.288 225.75 318.482 225.057C317.675 224.364 316.669 224.017 315.464 224.017C314.249 224.017 313.226 224.364 312.396 225.057C311.578 225.75 310.959 226.693 310.538 227.886C310.129 229.08 309.925 230.438 309.925 231.96C309.925 233.483 310.129 234.841 310.538 236.034C310.959 237.227 311.578 238.17 312.396 238.864C313.226 239.545 314.249 239.886 315.464 239.886ZM344.868 245.511C342.186 245.511 339.879 244.943 337.947 243.807C336.027 242.659 334.55 241.068 333.516 239.034C332.493 237 331.982 234.659 331.982 232.011C331.982 229.33 332.499 226.977 333.533 224.955C334.578 222.92 336.061 221.335 337.982 220.199C339.902 219.051 342.186 218.477 344.834 218.477C347.118 218.477 349.118 218.892 350.834 219.722C352.55 220.551 353.908 221.716 354.908 223.216C355.908 224.716 356.459 226.477 356.561 228.5H349.709C349.516 227.193 349.004 226.142 348.175 225.347C347.357 224.54 346.283 224.136 344.953 224.136C343.828 224.136 342.845 224.443 342.004 225.057C341.175 225.659 340.527 226.54 340.061 227.699C339.595 228.858 339.362 230.261 339.362 231.909C339.362 233.58 339.589 235 340.044 236.17C340.51 237.341 341.163 238.233 342.004 238.847C342.845 239.46 343.828 239.767 344.953 239.767C345.783 239.767 346.527 239.597 347.186 239.256C347.857 238.915 348.408 238.42 348.839 237.773C349.283 237.114 349.572 236.324 349.709 235.403H356.561C356.447 237.403 355.902 239.165 354.925 240.688C353.959 242.199 352.624 243.381 350.919 244.233C349.214 245.085 347.197 245.511 344.868 245.511ZM361.21 254.818V218.818H368.369V223.216H368.693C369.011 222.511 369.472 221.795 370.074 221.068C370.688 220.33 371.483 219.716 372.46 219.227C373.449 218.727 374.676 218.477 376.142 218.477C378.051 218.477 379.813 218.977 381.426 219.977C383.04 220.966 384.33 222.46 385.295 224.46C386.261 226.449 386.744 228.943 386.744 231.943C386.744 234.864 386.273 237.33 385.33 239.341C384.398 241.341 383.125 242.858 381.511 243.892C379.909 244.915 378.114 245.426 376.125 245.426C374.716 245.426 373.517 245.193 372.528 244.727C371.551 244.261 370.75 243.676 370.125 242.972C369.5 242.256 369.023 241.534 368.693 240.807H368.472V254.818H361.21ZM368.318 231.909C368.318 233.466 368.534 234.824 368.966 235.983C369.398 237.142 370.023 238.045 370.841 238.693C371.659 239.33 372.653 239.648 373.824 239.648C375.006 239.648 376.006 239.324 376.824 238.676C377.642 238.017 378.261 237.108 378.682 235.949C379.114 234.778 379.33 233.432 379.33 231.909C379.33 230.398 379.119 229.068 378.699 227.92C378.278 226.773 377.659 225.875 376.841 225.227C376.023 224.58 375.017 224.256 373.824 224.256C372.642 224.256 371.642 224.568 370.824 225.193C370.017 225.818 369.398 226.705 368.966 227.852C368.534 229 368.318 230.352 368.318 231.909ZM403.415 245.511C400.767 245.511 398.477 244.949 396.545 243.824C394.625 242.687 393.142 241.108 392.097 239.085C391.051 237.051 390.528 234.693 390.528 232.011C390.528 229.307 391.051 226.943 392.097 224.92C393.142 222.886 394.625 221.307 396.545 220.182C398.477 219.045 400.767 218.477 403.415 218.477C406.062 218.477 408.347 219.045 410.267 220.182C412.199 221.307 413.688 222.886 414.733 224.92C415.778 226.943 416.301 229.307 416.301 232.011C416.301 234.693 415.778 237.051 414.733 239.085C413.688 241.108 412.199 242.687 410.267 243.824C408.347 244.949 406.062 245.511 403.415 245.511ZM403.449 239.886C404.653 239.886 405.659 239.545 406.466 238.864C407.273 238.17 407.881 237.227 408.29 236.034C408.71 234.841 408.92 233.483 408.92 231.96C408.92 230.438 408.71 229.08 408.29 227.886C407.881 226.693 407.273 225.75 406.466 225.057C405.659 224.364 404.653 224.017 403.449 224.017C402.233 224.017 401.21 224.364 400.381 225.057C399.563 225.75 398.943 226.693 398.523 227.886C398.114 229.08 397.909 230.438 397.909 231.96C397.909 233.483 398.114 234.841 398.523 236.034C398.943 237.227 399.563 238.17 400.381 238.864C401.21 239.545 402.233 239.886 403.449 239.886ZM443.744 218.818V245H436.858V218.818H443.744ZM440.386 230.307V236.034C439.83 236.284 439.136 236.523 438.307 236.75C437.477 236.966 436.608 237.142 435.699 237.278C434.79 237.415 433.938 237.483 433.142 237.483C429.381 237.483 426.42 236.71 424.261 235.165C422.102 233.608 421.023 231.125 421.023 227.716V218.784H427.875V227.716C427.875 228.727 428.045 229.528 428.386 230.119C428.739 230.71 429.295 231.136 430.057 231.398C430.83 231.648 431.858 231.773 433.142 231.773C434.335 231.773 435.506 231.648 436.653 231.398C437.801 231.148 439.045 230.784 440.386 230.307ZM467.604 229.011V234.722H453.933V229.011H467.604ZM456.32 218.818V245H449.382V218.818H456.32ZM472.155 218.818V245H465.268V218.818H472.155ZM485.254 245.494C483.584 245.494 482.095 245.205 480.788 244.625C479.482 244.034 478.447 243.165 477.686 242.017C476.936 240.858 476.561 239.415 476.561 237.688C476.561 236.233 476.828 235.011 477.362 234.023C477.896 233.034 478.624 232.239 479.544 231.636C480.464 231.034 481.51 230.58 482.68 230.273C483.862 229.966 485.101 229.75 486.396 229.625C487.919 229.466 489.146 229.318 490.078 229.182C491.01 229.034 491.686 228.818 492.107 228.534C492.527 228.25 492.737 227.83 492.737 227.273V227.17C492.737 226.091 492.396 225.256 491.714 224.665C491.044 224.074 490.089 223.778 488.851 223.778C487.544 223.778 486.504 224.068 485.732 224.648C484.959 225.216 484.447 225.932 484.197 226.795L477.482 226.25C477.822 224.659 478.493 223.284 479.493 222.125C480.493 220.955 481.783 220.057 483.362 219.432C484.953 218.795 486.794 218.477 488.885 218.477C490.339 218.477 491.732 218.648 493.061 218.989C494.402 219.33 495.589 219.858 496.624 220.574C497.669 221.29 498.493 222.21 499.095 223.335C499.697 224.449 499.999 225.784 499.999 227.341V245H493.112V241.369H492.908C492.487 242.188 491.925 242.909 491.22 243.534C490.516 244.148 489.669 244.631 488.68 244.983C487.692 245.324 486.55 245.494 485.254 245.494ZM487.334 240.483C488.402 240.483 489.345 240.273 490.163 239.852C490.982 239.42 491.624 238.841 492.089 238.114C492.555 237.386 492.788 236.562 492.788 235.642V232.864C492.561 233.011 492.249 233.148 491.851 233.273C491.464 233.386 491.027 233.494 490.538 233.597C490.05 233.687 489.561 233.773 489.072 233.852C488.584 233.92 488.141 233.983 487.743 234.04C486.891 234.165 486.146 234.364 485.51 234.636C484.874 234.909 484.379 235.278 484.027 235.744C483.675 236.199 483.499 236.767 483.499 237.449C483.499 238.438 483.857 239.193 484.572 239.716C485.3 240.227 486.22 240.483 487.334 240.483ZM520.973 245V224.511H516.064C514.734 224.511 513.723 224.818 513.03 225.432C512.337 226.045 511.996 226.773 512.007 227.614C511.996 228.466 512.325 229.187 512.996 229.778C513.678 230.358 514.678 230.648 515.996 230.648H523.393V235.557H515.996C513.757 235.557 511.82 235.216 510.183 234.534C508.547 233.852 507.286 232.903 506.399 231.688C505.513 230.46 505.075 229.034 505.087 227.409C505.075 225.705 505.513 224.21 506.399 222.926C507.286 221.631 508.553 220.625 510.2 219.909C511.859 219.182 513.814 218.818 516.064 218.818H527.74V245H520.973ZM504.337 245L511.615 231.364H518.553L511.291 245H504.337ZM562.423 218.818V224.528H551.548V245H544.491V218.818H562.423ZM573.379 245.494C571.709 245.494 570.22 245.205 568.913 244.625C567.607 244.034 566.572 243.165 565.811 242.017C565.061 240.858 564.686 239.415 564.686 237.688C564.686 236.233 564.953 235.011 565.487 234.023C566.021 233.034 566.749 232.239 567.669 231.636C568.589 231.034 569.635 230.58 570.805 230.273C571.987 229.966 573.226 229.75 574.521 229.625C576.044 229.466 577.271 229.318 578.203 229.182C579.135 229.034 579.811 228.818 580.232 228.534C580.652 228.25 580.862 227.83 580.862 227.273V227.17C580.862 226.091 580.521 225.256 579.839 224.665C579.169 224.074 578.214 223.778 576.976 223.778C575.669 223.778 574.629 224.068 573.857 224.648C573.084 225.216 572.572 225.932 572.322 226.795L565.607 226.25C565.947 224.659 566.618 223.284 567.618 222.125C568.618 220.955 569.908 220.057 571.487 219.432C573.078 218.795 574.919 218.477 577.01 218.477C578.464 218.477 579.857 218.648 581.186 218.989C582.527 219.33 583.714 219.858 584.749 220.574C585.794 221.29 586.618 222.21 587.22 223.335C587.822 224.449 588.124 225.784 588.124 227.341V245H581.237V241.369H581.033C580.612 242.188 580.05 242.909 579.345 243.534C578.641 244.148 577.794 244.631 576.805 244.983C575.817 245.324 574.675 245.494 573.379 245.494ZM575.459 240.483C576.527 240.483 577.47 240.273 578.288 239.852C579.107 239.42 579.749 238.841 580.214 238.114C580.68 237.386 580.913 236.562 580.913 235.642V232.864C580.686 233.011 580.374 233.148 579.976 233.273C579.589 233.386 579.152 233.494 578.663 233.597C578.175 233.687 577.686 233.773 577.197 233.852C576.709 233.92 576.266 233.983 575.868 234.04C575.016 234.165 574.271 234.364 573.635 234.636C572.999 234.909 572.504 235.278 572.152 235.744C571.8 236.199 571.624 236.767 571.624 237.449C571.624 238.438 571.982 239.193 572.697 239.716C573.425 240.227 574.345 240.483 575.459 240.483ZM593.757 254.818V218.818H600.916V223.216H601.24C601.558 222.511 602.018 221.795 602.621 221.068C603.234 220.33 604.03 219.716 605.007 219.227C605.996 218.727 607.223 218.477 608.689 218.477C610.598 218.477 612.359 218.977 613.973 219.977C615.587 220.966 616.876 222.46 617.842 224.46C618.808 226.449 619.291 228.943 619.291 231.943C619.291 234.864 618.82 237.33 617.876 239.341C616.945 241.341 615.672 242.858 614.058 243.892C612.456 244.915 610.661 245.426 608.672 245.426C607.263 245.426 606.064 245.193 605.075 244.727C604.098 244.261 603.297 243.676 602.672 242.972C602.047 242.256 601.57 241.534 601.24 240.807H601.018V254.818H593.757ZM600.865 231.909C600.865 233.466 601.081 234.824 601.513 235.983C601.945 237.142 602.57 238.045 603.388 238.693C604.206 239.33 605.2 239.648 606.371 239.648C607.553 239.648 608.553 239.324 609.371 238.676C610.189 238.017 610.808 237.108 611.229 235.949C611.661 234.778 611.876 233.432 611.876 231.909C611.876 230.398 611.666 229.068 611.246 227.92C610.825 226.773 610.206 225.875 609.388 225.227C608.57 224.58 607.564 224.256 606.371 224.256C605.189 224.256 604.189 224.568 603.371 225.193C602.564 225.818 601.945 226.705 601.513 227.852C601.081 229 600.865 230.352 600.865 231.909ZM631.598 245.494C629.928 245.494 628.439 245.205 627.132 244.625C625.825 244.034 624.791 243.165 624.03 242.017C623.28 240.858 622.905 239.415 622.905 237.688C622.905 236.233 623.172 235.011 623.706 234.023C624.24 233.034 624.967 232.239 625.888 231.636C626.808 231.034 627.854 230.58 629.024 230.273C630.206 229.966 631.445 229.75 632.74 229.625C634.263 229.466 635.49 229.318 636.422 229.182C637.354 229.034 638.03 228.818 638.45 228.534C638.871 228.25 639.081 227.83 639.081 227.273V227.17C639.081 226.091 638.74 225.256 638.058 224.665C637.388 224.074 636.433 223.778 635.195 223.778C633.888 223.778 632.848 224.068 632.075 224.648C631.303 225.216 630.791 225.932 630.541 226.795L623.825 226.25C624.166 224.659 624.837 223.284 625.837 222.125C626.837 220.955 628.126 220.057 629.706 219.432C631.297 218.795 633.138 218.477 635.229 218.477C636.683 218.477 638.075 218.648 639.405 218.989C640.746 219.33 641.933 219.858 642.967 220.574C644.013 221.29 644.837 222.21 645.439 223.335C646.041 224.449 646.342 225.784 646.342 227.341V245H639.456V241.369H639.251C638.831 242.188 638.268 242.909 637.564 243.534C636.859 244.148 636.013 244.631 635.024 244.983C634.036 245.324 632.893 245.494 631.598 245.494ZM633.678 240.483C634.746 240.483 635.689 240.273 636.507 239.852C637.325 239.42 637.967 238.841 638.433 238.114C638.899 237.386 639.132 236.562 639.132 235.642V232.864C638.905 233.011 638.592 233.148 638.195 233.273C637.808 233.386 637.371 233.494 636.882 233.597C636.393 233.687 635.905 233.773 635.416 233.852C634.928 233.92 634.484 233.983 634.087 234.04C633.234 234.165 632.49 234.364 631.854 234.636C631.217 234.909 630.723 235.278 630.371 235.744C630.018 236.199 629.842 236.767 629.842 237.449C629.842 238.438 630.2 239.193 630.916 239.716C631.643 240.227 632.564 240.483 633.678 240.483ZM670.197 229.011V234.722H656.527V229.011H670.197ZM658.913 218.818V245H651.976V218.818H658.913ZM674.749 218.818V245H667.862V218.818H674.749ZM677.753 224.528V218.818H701.48V224.528H693.043V245H686.122V224.528H677.753ZM712.82 235.42L722.246 218.818H729.405V245H722.484V228.347L713.092 245H705.882V218.818H712.82V235.42ZM750.567 245V224.511H745.658C744.328 224.511 743.317 224.818 742.624 225.432C741.93 226.045 741.589 226.773 741.601 227.614C741.589 228.466 741.919 229.187 742.589 229.778C743.271 230.358 744.271 230.648 745.589 230.648H752.987V235.557H745.589C743.351 235.557 741.413 235.216 739.777 234.534C738.141 233.852 736.879 232.903 735.993 231.688C735.107 230.46 734.669 229.034 734.68 227.409C734.669 225.705 735.107 224.21 735.993 222.926C736.879 221.631 738.146 220.625 739.794 219.909C741.453 219.182 743.408 218.818 745.658 218.818H757.334V245H750.567ZM733.93 245L741.209 231.364H748.146L740.885 245H733.93Z" fill="white"/>
</svg>
