<svg width="945" height="456" fill="none" xmlns="http://www.w3.org/2000/svg"><rect width="945" height="456" rx="60" fill="#4BAA00"/><path d="M184.142 253.42v-14.301h2.369c.807-.579 1.546-1.397 2.216-2.454.671-1.068 1.245-2.54 1.722-4.415.477-1.886.818-4.352 1.023-7.398l.988-14.761h23.097v29.028h3.818v14.267h-7.091V245h-21.051v8.42h-7.091zm10.892-14.301h13.432v-22.943h-9.358l-.546 8.676c-.147 2.307-.392 4.353-.732 6.137-.33 1.784-.733 3.346-1.211 4.687-.466 1.33-.994 2.477-1.585 3.443zm40.521 6.392c-2.647 0-4.937-.562-6.869-1.687-1.92-1.137-3.403-2.716-4.449-4.739-1.045-2.034-1.568-4.392-1.568-7.074 0-2.704.523-5.068 1.568-7.091 1.046-2.034 2.529-3.613 4.449-4.738 1.932-1.137 4.222-1.705 6.869-1.705 2.648 0 4.932.568 6.853 1.705 1.931 1.125 3.42 2.704 4.466 4.738 1.045 2.023 1.568 4.387 1.568 7.091 0 2.682-.523 5.04-1.568 7.074-1.046 2.023-2.535 3.602-4.466 4.739-1.921 1.125-4.205 1.687-6.853 1.687zm.034-5.625c1.205 0 2.211-.341 3.018-1.022.806-.694 1.414-1.637 1.823-2.83.421-1.193.631-2.551.631-4.074 0-1.522-.21-2.88-.631-4.074-.409-1.193-1.017-2.136-1.823-2.829-.807-.693-1.813-1.04-3.018-1.04-1.215 0-2.238.347-3.068 1.04-.818.693-1.437 1.636-1.858 2.829-.409 1.194-.613 2.552-.613 4.074 0 1.523.204 2.881.613 4.074.421 1.193 1.04 2.136 1.858 2.83.83.681 1.853 1.022 3.068 1.022zm16.04 5.114l-.034-5.761h.869c.614 0 1.143-.148 1.586-.444.454-.306.829-.801 1.125-1.483.295-.681.528-1.585.699-2.71.17-1.136.284-2.534.34-4.193l.427-11.591h19.909V245h-6.921v-20.472h-6.46l-.409 7.995c-.102 2.193-.369 4.079-.801 5.659-.421 1.579-1.006 2.875-1.756 3.886-.75 1-1.653 1.739-2.71 2.216-1.057.477-2.284.716-3.682.716h-2.182zm48.482-26.182v5.71h-10.875V245h-7.057v-26.182h17.932zm15.319 26.693c-2.647 0-4.937-.562-6.869-1.687-1.92-1.137-3.403-2.716-4.449-4.739-1.045-2.034-1.568-4.392-1.568-7.074 0-2.704.523-5.068 1.568-7.091 1.046-2.034 2.529-3.613 4.449-4.738 1.932-1.137 4.222-1.705 6.869-1.705 2.648 0 4.932.568 6.853 1.705 1.931 1.125 3.42 2.704 4.466 4.738 1.045 2.023 1.568 4.387 1.568 7.091 0 2.682-.523 5.04-1.568 7.074-1.046 2.023-2.535 3.602-4.466 4.739-1.921 1.125-4.205 1.687-6.853 1.687zm.034-5.625c1.205 0 2.211-.341 3.018-1.022.806-.694 1.414-1.637 1.823-2.83.421-1.193.631-2.551.631-4.074 0-1.522-.21-2.88-.631-4.074-.409-1.193-1.017-2.136-1.823-2.829-.807-.693-1.813-1.04-3.018-1.04-1.215 0-2.238.347-3.068 1.04-.818.693-1.437 1.636-1.858 2.829-.409 1.194-.613 2.552-.613 4.074 0 1.523.204 2.881.613 4.074.421 1.193 1.04 2.136 1.858 2.83.83.681 1.853 1.022 3.068 1.022zm29.404 5.625c-2.682 0-4.989-.568-6.921-1.704-1.92-1.148-3.397-2.739-4.431-4.773-1.023-2.034-1.534-4.375-1.534-7.023 0-2.681.517-5.034 1.551-7.056 1.045-2.035 2.528-3.62 4.449-4.756 1.92-1.148 4.204-1.722 6.852-1.722 2.284 0 4.284.415 6 1.245 1.716.829 3.074 1.994 4.074 3.494 1 1.5 1.551 3.261 1.653 5.284h-6.852c-.193-1.307-.705-2.358-1.534-3.153-.818-.807-1.892-1.211-3.222-1.211-1.125 0-2.108.307-2.949.921-.829.602-1.477 1.483-1.943 2.642-.466 1.159-.699 2.562-.699 4.21 0 1.671.227 3.091.682 4.261.466 1.171 1.119 2.063 1.96 2.677.841.613 1.824.92 2.949.92.83 0 1.574-.17 2.233-.511a4.309 4.309 0 001.653-1.483c.444-.659.733-1.449.87-2.37h6.852c-.114 2-.659 3.762-1.636 5.285-.966 1.511-2.301 2.693-4.006 3.545-1.705.852-3.722 1.278-6.051 1.278zm16.342 9.307v-36h7.159v4.398h.324c.318-.705.779-1.421 1.381-2.148.614-.738 1.409-1.352 2.386-1.841.989-.5 2.216-.75 3.682-.75 1.909 0 3.671.5 5.284 1.5 1.614.989 2.904 2.483 3.869 4.483.966 1.989 1.449 4.483 1.449 7.483 0 2.921-.471 5.387-1.414 7.398-.932 2-2.205 3.517-3.819 4.551-1.602 1.023-3.397 1.534-5.386 1.534-1.409 0-2.608-.233-3.597-.699-.977-.466-1.778-1.051-2.403-1.755-.625-.716-1.102-1.438-1.432-2.165h-.221v14.011h-7.262zm7.108-22.909c0 1.557.216 2.915.648 4.074.432 1.159 1.057 2.062 1.875 2.71.818.637 1.812.955 2.983.955 1.182 0 2.182-.324 3-.972.818-.659 1.437-1.568 1.858-2.727.432-1.171.648-2.517.648-4.04 0-1.511-.211-2.841-.631-3.989-.421-1.147-1.04-2.045-1.858-2.693-.818-.647-1.824-.971-3.017-.971-1.182 0-2.182.312-3 .937-.807.625-1.426 1.512-1.858 2.659-.432 1.148-.648 2.5-.648 4.057zm35.097 13.602c-2.648 0-4.938-.562-6.87-1.687-1.92-1.137-3.403-2.716-4.448-4.739-1.046-2.034-1.569-4.392-1.569-7.074 0-2.704.523-5.068 1.569-7.091 1.045-2.034 2.528-3.613 4.448-4.738 1.932-1.137 4.222-1.705 6.87-1.705 2.647 0 4.932.568 6.852 1.705 1.932 1.125 3.421 2.704 4.466 4.738 1.045 2.023 1.568 4.387 1.568 7.091 0 2.682-.523 5.04-1.568 7.074-1.045 2.023-2.534 3.602-4.466 4.739-1.92 1.125-4.205 1.687-6.852 1.687zm.034-5.625c1.204 0 2.21-.341 3.017-1.022.807-.694 1.415-1.637 1.824-2.83.42-1.193.63-2.551.63-4.074 0-1.522-.21-2.88-.63-4.074-.409-1.193-1.017-2.136-1.824-2.829-.807-.693-1.813-1.04-3.017-1.04-1.216 0-2.239.347-3.068 1.04-.818.693-1.438 1.636-1.858 2.829-.409 1.194-.614 2.552-.614 4.074 0 1.523.205 2.881.614 4.074.42 1.193 1.04 2.136 1.858 2.83.829.681 1.852 1.022 3.068 1.022zm40.295-21.068V245h-6.886v-26.182h6.886zm-3.358 11.489v5.727c-.556.25-1.25.489-2.079.716-.83.216-1.699.392-2.608.528a17.2 17.2 0 01-2.557.205c-3.761 0-6.722-.773-8.881-2.318-2.159-1.557-3.238-4.04-3.238-7.449v-8.932h6.852v8.932c0 1.011.17 1.812.511 2.403.353.591.909 1.017 1.671 1.279.773.25 1.801.375 3.085.375 1.193 0 2.364-.125 3.511-.375a30.75 30.75 0 003.733-1.091zm27.218-1.296v5.711h-13.671v-5.711h13.671zm-11.284-10.193V245h-6.938v-26.182h6.938zm15.835 0V245h-6.887v-26.182h6.887zm13.099 26.676c-1.67 0-3.159-.289-4.466-.869-1.306-.591-2.341-1.46-3.102-2.608-.75-1.159-1.125-2.602-1.125-4.329 0-1.455.267-2.677.801-3.665a6.495 6.495 0 012.182-2.387c.92-.602 1.966-1.056 3.136-1.363a23.9 23.9 0 013.716-.648 94.63 94.63 0 003.682-.443c.932-.148 1.608-.364 2.029-.648.42-.284.63-.704.63-1.261v-.103c0-1.079-.341-1.914-1.023-2.505-.67-.591-1.625-.887-2.863-.887-1.307 0-2.347.29-3.119.87-.773.568-1.285 1.284-1.535 2.147l-6.715-.545c.34-1.591 1.011-2.966 2.011-4.125 1-1.17 2.29-2.068 3.869-2.693 1.591-.637 3.432-.955 5.523-.955 1.454 0 2.847.171 4.176.512 1.341.341 2.528.869 3.563 1.585a7.704 7.704 0 012.471 2.761c.602 1.114.904 2.449.904 4.006V245h-6.887v-3.631h-.204a7.383 7.383 0 01-1.688 2.165c-.704.614-1.551 1.097-2.54 1.449-.988.341-2.13.511-3.426.511zm2.08-5.011c1.068 0 2.011-.21 2.829-.631.819-.432 1.461-1.011 1.926-1.738.466-.728.699-1.552.699-2.472v-2.778c-.227.147-.539.284-.937.409a17.81 17.81 0 01-1.313.324c-.488.09-.977.176-1.466.255-.488.068-.931.131-1.329.188-.852.125-1.597.324-2.233.596-.636.273-1.131.642-1.483 1.108-.352.455-.528 1.023-.528 1.705 0 .989.358 1.744 1.073 2.267.728.511 1.648.767 2.762.767zM520.973 245v-20.489h-4.909c-1.33 0-2.341.307-3.034.921-.693.613-1.034 1.341-1.023 2.182-.011.852.318 1.573.989 2.164.682.58 1.682.87 3 .87h7.397v4.909h-7.397c-2.239 0-4.176-.341-5.813-1.023-1.636-.682-2.897-1.631-3.784-2.846-.886-1.228-1.324-2.654-1.312-4.279-.012-1.704.426-3.199 1.312-4.483.887-1.295 2.154-2.301 3.801-3.017 1.659-.727 3.614-1.091 5.864-1.091h11.676V245h-6.767zm-16.636 0l7.278-13.636h6.938L511.291 245h-6.954zm58.086-26.182v5.71h-10.875V245h-7.057v-26.182h17.932zm10.956 26.676c-1.67 0-3.159-.289-4.466-.869-1.306-.591-2.341-1.46-3.102-2.608-.75-1.159-1.125-2.602-1.125-4.329 0-1.455.267-2.677.801-3.665a6.495 6.495 0 012.182-2.387c.92-.602 1.966-1.056 3.136-1.363a23.9 23.9 0 013.716-.648 94.63 94.63 0 003.682-.443c.932-.148 1.608-.364 2.029-.648.42-.284.63-.704.63-1.261v-.103c0-1.079-.341-1.914-1.023-2.505-.67-.591-1.625-.887-2.863-.887-1.307 0-2.347.29-3.119.87-.773.568-1.285 1.284-1.535 2.147l-6.715-.545c.34-1.591 1.011-2.966 2.011-4.125 1-1.17 2.29-2.068 3.869-2.693 1.591-.637 3.432-.955 5.523-.955 1.454 0 2.847.171 4.176.512 1.341.341 2.528.869 3.563 1.585a7.704 7.704 0 012.471 2.761c.602 1.114.904 2.449.904 4.006V245h-6.887v-3.631h-.204a7.383 7.383 0 01-1.688 2.165c-.704.614-1.551 1.097-2.54 1.449-.988.341-2.13.511-3.426.511zm2.08-5.011c1.068 0 2.011-.21 2.829-.631.819-.432 1.461-1.011 1.926-1.738.466-.728.699-1.552.699-2.472v-2.778c-.227.147-.539.284-.937.409a17.81 17.81 0 01-1.313.324c-.488.09-.977.176-1.466.255-.488.068-.931.131-1.329.188-.852.125-1.597.324-2.233.596-.636.273-1.131.642-1.483 1.108-.352.455-.528 1.023-.528 1.705 0 .989.358 1.744 1.073 2.267.728.511 1.648.767 2.762.767zm18.298 14.335v-36h7.159v4.398h.324c.318-.705.778-1.421 1.381-2.148.613-.738 1.409-1.352 2.386-1.841.989-.5 2.216-.75 3.682-.75 1.909 0 3.67.5 5.284 1.5 1.614.989 2.903 2.483 3.869 4.483.966 1.989 1.449 4.483 1.449 7.483 0 2.921-.471 5.387-1.415 7.398-.931 2-2.204 3.517-3.818 4.551-1.602 1.023-3.397 1.534-5.386 1.534-1.409 0-2.608-.233-3.597-.699-.977-.466-1.778-1.051-2.403-1.755-.625-.716-1.102-1.438-1.432-2.165h-.222v14.011h-7.261zm7.108-22.909c0 1.557.216 2.915.648 4.074.432 1.159 1.057 2.062 1.875 2.71.818.637 1.812.955 2.983.955 1.182 0 2.182-.324 3-.972.818-.659 1.437-1.568 1.858-2.727.432-1.171.647-2.517.647-4.04 0-1.511-.21-2.841-.63-3.989-.421-1.147-1.04-2.045-1.858-2.693-.818-.647-1.824-.971-3.017-.971-1.182 0-2.182.312-3 .937-.807.625-1.426 1.512-1.858 2.659-.432 1.148-.648 2.5-.648 4.057zm30.733 13.585c-1.67 0-3.159-.289-4.466-.869-1.307-.591-2.341-1.46-3.102-2.608-.75-1.159-1.125-2.602-1.125-4.329 0-1.455.267-2.677.801-3.665a6.486 6.486 0 012.182-2.387c.92-.602 1.966-1.056 3.136-1.363a23.9 23.9 0 013.716-.648 94.63 94.63 0 003.682-.443c.932-.148 1.608-.364 2.028-.648.421-.284.631-.704.631-1.261v-.103c0-1.079-.341-1.914-1.023-2.505-.67-.591-1.625-.887-2.863-.887-1.307 0-2.347.29-3.12.87-.772.568-1.284 1.284-1.534 2.147l-6.716-.545c.341-1.591 1.012-2.966 2.012-4.125 1-1.17 2.289-2.068 3.869-2.693 1.591-.637 3.432-.955 5.523-.955 1.454 0 2.846.171 4.176.512 1.341.341 2.528.869 3.562 1.585a7.697 7.697 0 012.472 2.761c.602 1.114.903 2.449.903 4.006V245h-6.886v-3.631h-.205a7.38 7.38 0 01-1.687 2.165c-.705.614-1.551 1.097-2.54 1.449-.988.341-2.131.511-3.426.511zm2.08-5.011c1.068 0 2.011-.21 2.829-.631.818-.432 1.46-1.011 1.926-1.738.466-.728.699-1.552.699-2.472v-2.778c-.227.147-.54.284-.937.409a17.81 17.81 0 01-1.313.324c-.489.09-.977.176-1.466.255-.488.068-.932.131-1.329.188-.853.125-1.597.324-2.233.596-.637.273-1.131.642-1.483 1.108-.353.455-.529 1.023-.529 1.705 0 .989.358 1.744 1.074 2.267.727.511 1.648.767 2.762.767zm36.519-11.472v5.711h-13.67v-5.711h13.67zm-11.284-10.193V245h-6.937v-26.182h6.937zm15.836 0V245h-6.887v-26.182h6.887zm3.004 5.71v-5.71h23.727v5.71h-8.437V245h-6.921v-20.472h-8.369zm35.067 10.892l9.426-16.602h7.159V245h-6.921v-16.653L713.092 245h-7.21v-26.182h6.938v16.602zm37.747 9.58v-20.489h-4.909c-1.33 0-2.341.307-3.034.921-.694.613-1.035 1.341-1.023 2.182-.012.852.318 1.573.988 2.164.682.58 1.682.87 3 .87h7.398v4.909h-7.398c-2.238 0-4.176-.341-5.812-1.023-1.636-.682-2.898-1.631-3.784-2.846-.886-1.228-1.324-2.654-1.313-4.279-.011-1.704.427-3.199 1.313-4.483.886-1.295 2.153-2.301 3.801-3.017 1.659-.727 3.614-1.091 5.864-1.091h11.676V245h-6.767zm-16.637 0l7.279-13.636h6.937L740.885 245h-6.955z" fill="#fff"/></svg>