<svg width="261" height="297" viewBox="0 0 261 297" fill="none" xmlns="http://www.w3.org/2000/svg">
<rect x="0.5" y="0.368408" width="260" height="296" rx="60" fill="black"/>
<path d="M156.971 215.368C139.324 215.368 123.824 210.426 110.471 200.542C97.1176 190.657 88.598 177.822 84.9118 162.035H50.3529L43.7353 135.368H84.9118C86.1372 130.257 87.7941 125.48 89.8823 121.035C91.9706 116.591 94.7255 112.48 98.1471 108.702H37.1177L30.5 82.0351H113.588L97.4118 42.0351H59.1765V15.3684H97.4118C103.784 15.3684 109.485 16.924 114.515 20.0351C119.544 23.1462 123.157 27.3684 125.353 32.7017L145.206 81.3684H156.971C177.314 81.3684 194.657 87.8706 209 100.875C223.343 113.88 230.51 129.6 230.5 148.035C230.5 166.924 223.328 182.871 208.985 195.875C194.642 208.88 177.304 215.377 156.971 215.368ZM156.971 188.702C169.471 188.702 179.951 184.813 188.412 177.035C196.873 169.257 201.098 159.813 201.088 148.702C201.088 137.368 196.863 127.871 188.412 120.208C179.961 112.546 169.48 108.711 156.971 108.702H155.5L170.206 144.035L142.265 153.368L128.294 118.035C123.392 121.813 119.593 126.257 116.897 131.368C114.201 136.48 112.853 142.257 112.853 148.702C112.853 159.813 117.083 169.257 125.544 177.035C134.005 184.813 144.48 188.702 156.971 188.702Z" fill="white"/>
<path d="M86.196 253.462H79.9744C79.8608 252.657 79.6288 251.942 79.2784 251.317C78.928 250.683 78.4782 250.143 77.929 249.698C77.3797 249.253 76.7453 248.912 76.0256 248.675C75.3153 248.438 74.5436 248.32 73.7102 248.32C72.2045 248.32 70.893 248.694 69.7756 249.442C68.6581 250.181 67.7917 251.26 67.1761 252.681C66.5606 254.092 66.2528 255.806 66.2528 257.823C66.2528 259.897 66.5606 261.639 67.1761 263.05C67.8011 264.461 68.6723 265.527 69.7898 266.246C70.9072 266.966 72.1998 267.326 73.6676 267.326C74.4915 267.326 75.2538 267.217 75.9545 266.999C76.6648 266.781 77.2945 266.464 77.8438 266.047C78.393 265.621 78.8475 265.105 79.2074 264.499C79.5767 263.893 79.8324 263.202 79.9744 262.425L86.196 262.454C86.035 263.789 85.6326 265.077 84.9886 266.317C84.3542 267.548 83.4972 268.652 82.4176 269.627C81.3475 270.593 80.0691 271.36 78.5824 271.928C77.1051 272.487 75.4337 272.766 73.5682 272.766C70.9735 272.766 68.6534 272.179 66.608 271.005C64.572 269.831 62.9621 268.131 61.7784 265.905C60.6042 263.68 60.017 260.986 60.017 257.823C60.017 254.651 60.6136 251.952 61.8068 249.726C63 247.501 64.6193 245.806 66.6648 244.641C68.7102 243.467 71.0114 242.88 73.5682 242.88C75.2538 242.88 76.8163 243.117 78.2557 243.59C79.7045 244.063 80.9877 244.755 82.1051 245.664C83.2225 246.563 84.1316 247.667 84.8324 248.974C85.5426 250.28 85.9972 251.777 86.196 253.462ZM96.2741 264.385L104.129 250.55H110.095V272.368H104.328V258.491L96.5014 272.368H90.4929V250.55H96.2741V264.385ZM129.889 250.55V255.309H120.827V272.368H114.946V250.55H129.889ZM133.579 272.368V250.55H142.883C145.572 250.55 147.698 251.062 149.261 252.084C150.823 253.107 151.604 254.561 151.604 256.445C151.604 257.629 151.164 258.614 150.283 259.4C149.403 260.186 148.181 260.716 146.619 260.991C147.925 261.085 149.038 261.384 149.957 261.885C150.885 262.378 151.59 263.017 152.073 263.803C152.566 264.589 152.812 265.46 152.812 266.417C152.812 267.657 152.48 268.723 151.817 269.613C151.164 270.503 150.203 271.185 148.934 271.658C147.674 272.132 146.136 272.368 144.317 272.368H133.579ZM139.218 267.837H144.317C145.16 267.837 145.818 267.638 146.292 267.241C146.775 266.833 147.016 266.279 147.016 265.579C147.016 264.802 146.775 264.191 146.292 263.746C145.818 263.301 145.16 263.079 144.317 263.079H139.218V267.837ZM139.218 259.527H143.011C143.617 259.527 144.133 259.442 144.559 259.272C144.995 259.092 145.326 258.836 145.553 258.505C145.79 258.173 145.908 257.78 145.908 257.326C145.908 256.653 145.638 256.128 145.099 255.749C144.559 255.37 143.82 255.181 142.883 255.181H139.218V259.527ZM166.569 272.795C164.325 272.795 162.393 272.34 160.773 271.431C159.164 270.512 157.923 269.215 157.052 267.539C156.181 265.853 155.745 263.86 155.745 261.559C155.745 259.314 156.181 257.345 157.052 255.65C157.923 253.955 159.149 252.634 160.731 251.687C162.322 250.74 164.187 250.266 166.327 250.266C167.767 250.266 169.107 250.498 170.347 250.962C171.597 251.417 172.686 252.103 173.614 253.022C174.552 253.94 175.281 255.096 175.802 256.488C176.323 257.87 176.583 259.49 176.583 261.346V263.008H158.16V259.258H170.887C170.887 258.386 170.698 257.615 170.319 256.942C169.94 256.27 169.415 255.744 168.742 255.366C168.079 254.977 167.308 254.783 166.427 254.783C165.508 254.783 164.694 254.996 163.984 255.422C163.283 255.839 162.734 256.402 162.336 257.113C161.938 257.813 161.735 258.595 161.725 259.456V263.022C161.725 264.101 161.924 265.034 162.322 265.82C162.729 266.606 163.302 267.212 164.04 267.638C164.779 268.064 165.655 268.277 166.668 268.277C167.341 268.277 167.956 268.183 168.515 267.993C169.074 267.804 169.552 267.52 169.95 267.141C170.347 266.762 170.65 266.298 170.859 265.749L176.455 266.118C176.171 267.463 175.589 268.637 174.708 269.641C173.837 270.635 172.71 271.412 171.327 271.971C169.954 272.52 168.368 272.795 166.569 272.795ZM186.313 264.385L194.168 250.55H200.134V272.368H194.367V258.491L186.54 272.368H180.532V250.55H186.313V264.385ZM193.131 242.937H197.35C197.341 244.66 196.701 246.047 195.433 247.099C194.173 248.15 192.469 248.675 190.319 248.675C188.16 248.675 186.451 248.15 185.191 247.099C183.932 246.047 183.302 244.66 183.302 242.937H187.492C187.483 243.59 187.691 244.177 188.117 244.698C188.553 245.219 189.287 245.479 190.319 245.479C191.323 245.479 192.042 245.224 192.478 244.712C192.914 244.201 193.131 243.609 193.131 242.937Z" fill="white"/>
<path d="M138 132.187L153.025 108L149.05 127.379H157L141.538 148L145.552 132.187" fill="#4BAA00"/>
</svg>
