<svg width="261" height="297" fill="none" xmlns="http://www.w3.org/2000/svg"><rect x=".5" y=".368" width="260" height="296" rx="60" fill="#000"/><path d="M156.971 215.368c-17.647 0-33.147-4.942-46.5-14.826-13.353-9.885-21.873-22.72-25.56-38.507H50.354l-6.618-26.667h41.177c1.225-5.111 2.882-9.888 4.97-14.333 2.089-4.444 4.843-8.555 8.265-12.333h-61.03L30.5 82.035h83.088l-16.176-40H59.176V15.368h38.236c6.372 0 12.073 1.556 17.103 4.667 5.029 3.111 8.642 7.333 10.838 12.667l19.853 48.666h11.765c20.343 0 37.686 6.503 52.029 19.507 14.343 13.005 21.51 28.725 21.5 47.16 0 18.889-7.172 34.836-21.515 47.84-14.343 13.005-31.681 19.502-52.014 19.493zm0-26.666c12.5 0 22.98-3.889 31.441-11.667 8.461-7.778 12.686-17.222 12.676-28.333 0-11.334-4.225-20.831-12.676-28.494-8.451-7.662-18.932-11.497-31.441-11.506H155.5l14.706 35.333-27.941 9.333-13.971-35.333c-4.902 3.778-8.701 8.222-11.397 13.333-2.696 5.112-4.044 10.889-4.044 17.334 0 11.111 4.23 20.555 12.691 28.333 8.461 7.778 18.936 11.667 31.427 11.667zM86.196 253.462h-6.222c-.113-.805-.345-1.52-.696-2.145a5.46 5.46 0 00-1.349-1.619 5.946 5.946 0 00-1.903-1.023 7.274 7.274 0 00-2.316-.355c-1.505 0-2.817.374-3.934 1.122-1.118.739-1.984 1.818-2.6 3.239-.615 1.411-.923 3.125-.923 5.142 0 2.074.308 3.816.923 5.227.625 1.411 1.496 2.477 2.614 3.196 1.117.72 2.41 1.08 3.878 1.08.823 0 1.586-.109 2.286-.327a6.009 6.009 0 001.89-.952 5.483 5.483 0 001.363-1.548c.37-.606.625-1.297.767-2.074l6.222.029a11.249 11.249 0 01-1.207 3.863 11.606 11.606 0 01-2.571 3.31c-1.07.966-2.349 1.733-3.836 2.301-1.477.559-3.148.838-5.014.838-2.594 0-4.915-.587-6.96-1.761-2.036-1.174-3.646-2.874-4.83-5.1-1.174-2.225-1.761-4.919-1.761-8.082 0-3.172.597-5.871 1.79-8.097 1.193-2.225 2.812-3.92 4.858-5.085 2.045-1.174 4.346-1.761 6.903-1.761 1.686 0 3.248.237 4.688.71a11.879 11.879 0 013.85 2.074 10.662 10.662 0 012.726 3.31c.71 1.306 1.165 2.803 1.364 4.488zm10.078 10.923l7.855-13.835h5.966v21.818h-5.767v-13.877l-7.827 13.877h-6.008V250.55h5.781v13.835zm33.615-13.835v4.759h-9.062v17.059h-5.881V250.55h14.943zm3.69 21.818V250.55h9.304c2.689 0 4.815.512 6.378 1.534 1.562 1.023 2.343 2.477 2.343 4.361 0 1.184-.44 2.169-1.321 2.955-.88.786-2.102 1.316-3.664 1.591 1.306.094 2.419.393 3.338.894.928.493 1.633 1.132 2.116 1.918a4.82 4.82 0 01.739 2.614c0 1.24-.332 2.306-.995 3.196-.653.89-1.614 1.572-2.883 2.045-1.26.474-2.798.71-4.617.71h-10.738zm5.639-4.531h5.099c.843 0 1.501-.199 1.975-.596.483-.408.724-.962.724-1.662 0-.777-.241-1.388-.724-1.833-.474-.445-1.132-.667-1.975-.667h-5.099v4.758zm0-8.31h3.793c.606 0 1.122-.085 1.548-.255.436-.18.767-.436.994-.767.237-.332.355-.725.355-1.179 0-.673-.27-1.198-.809-1.577-.54-.379-1.279-.568-2.216-.568h-3.665v4.346zm27.351 13.268c-2.244 0-4.176-.455-5.796-1.364-1.609-.919-2.85-2.216-3.721-3.892-.871-1.686-1.307-3.679-1.307-5.98 0-2.245.436-4.214 1.307-5.909.871-1.695 2.097-3.016 3.679-3.963 1.591-.947 3.456-1.421 5.596-1.421 1.44 0 2.78.232 4.02.696a8.918 8.918 0 013.267 2.06c.938.918 1.667 2.074 2.188 3.466.521 1.382.781 3.002.781 4.858v1.662H158.16v-3.75h12.727c0-.872-.189-1.643-.568-2.316a4.063 4.063 0 00-1.577-1.576c-.663-.389-1.434-.583-2.315-.583-.919 0-1.733.213-2.443.639-.701.417-1.25.98-1.648 1.691-.398.7-.601 1.482-.611 2.343v3.566c0 1.079.199 2.012.597 2.798.407.786.98 1.392 1.718 1.818.739.426 1.615.639 2.628.639.673 0 1.288-.094 1.847-.284a3.825 3.825 0 001.435-.852c.397-.379.7-.843.909-1.392l5.596.369a7.638 7.638 0 01-1.747 3.523c-.871.994-1.998 1.771-3.381 2.33-1.373.549-2.959.824-4.758.824zm19.744-8.41l7.855-13.835h5.966v21.818h-5.767v-13.877l-7.827 13.877h-6.008V250.55h5.781v13.835zm6.818-21.448h4.219c-.009 1.723-.649 3.11-1.917 4.162-1.26 1.051-2.964 1.576-5.114 1.576-2.159 0-3.868-.525-5.128-1.576-1.259-1.052-1.889-2.439-1.889-4.162h4.19c-.009.653.199 1.24.625 1.761.436.521 1.17.781 2.202.781 1.004 0 1.723-.255 2.159-.767a2.653 2.653 0 00.653-1.775z" fill="#fff"/><path d="M138 132.187L153.025 108l-3.975 19.379H157L141.538 148l4.014-15.813" fill="#4BAA00"/></svg>